0
SECTION
2
HEADER
9
$INSUNITS
70
4
0
ENDSEC
0
SECTION
2
TABLES
0
TABLE
2
LTYPE
0
LTYPE
72
65
70
64
2
CONTINUOUS
3
______
73
0
40
0
0
ENDTAB
0
TABLE
2
LAYER
0
ENDTAB
0
ENDSEC
0
SECTION
2
ENTITIES
0
ARC
8
0
10
3.025
20
-16.025
40
0.5
50
180
51
270
0
ARC
8
0
10
16.025
20
-16.025
40
0.5
50
270
51
0
0
ARC
8
0
10
16.025
20
-3.025
40
0.5
50
0
51
90
0
ARC
8
0
10
3.025
20
-3.025
40
0.5
50
90
51
180
0
LINE
8
0
10
3.025
20
-16.525
11
16.025
21
-16.525
0
LINE
8
0
10
16.025
20
-2.525
11
3.025
21
-2.525
0
LINE
8
0
10
16.525
20
-16.025
11
16.525
21
-3.025
0
LINE
8
0
10
2.525
20
-3.025
11
2.525
21
-16.025
0
ARC
8
0
10
22.075
20
-16.025
40
0.5
50
180
51
270
0
ARC
8
0
10
35.075
20
-16.025
40
0.5
50
270
51
0
0
ARC
8
0
10
35.075
20
-3.025
40
0.5
50
0
51
90
0
ARC
8
0
10
22.075
20
-3.025
40
0.5
50
90
51
180
0
LINE
8
0
10
22.075
20
-16.525
11
35.075
21
-16.525
0
LINE
8
0
10
35.075
20
-2.525
11
22.075
21
-2.525
0
LINE
8
0
10
35.575
20
-16.025
11
35.575
21
-3.025
0
LINE
8
0
10
21.575
20
-3.025
11
21.575
21
-16.025
0
ARC
8
0
10
41.125
20
-16.025
40
0.5
50
180
51
270
0
ARC
8
0
10
54.125
20
-16.025
40
0.5
50
270
51
0
0
ARC
8
0
10
54.125
20
-3.025
40
0.5
50
0
51
90
0
ARC
8
0
10
41.125
20
-3.025
40
0.5
50
90
51
180
0
LINE
8
0
10
41.125
20
-16.525
11
54.125
21
-16.525
0
LINE
8
0
10
54.125
20
-2.525
11
41.125
21
-2.525
0
LINE
8
0
10
54.625
20
-16.025
11
54.625
21
-3.025
0
LINE
8
0
10
40.625
20
-3.025
11
40.625
21
-16.025
0
ARC
8
0
10
60.175
20
-16.025
40
0.5
50
180
51
270
0
ARC
8
0
10
73.175
20
-16.025
40
0.5
50
270
51
0
0
ARC
8
0
10
73.175
20
-3.025
40
0.5
50
0
51
90
0
ARC
8
0
10
60.175
20
-3.025
40
0.5
50
90
51
180
0
LINE
8
0
10
60.175
20
-16.525
11
73.175
21
-16.525
0
LINE
8
0
10
73.175
20
-2.525
11
60.175
21
-2.525
0
LINE
8
0
10
73.675
20
-16.025
11
73.675
21
-3.025
0
LINE
8
0
10
59.675
20
-3.025
11
59.675
21
-16.025
0
ARC
8
0
10
79.225
20
-16.025
40
0.5
50
180
51
270
0
ARC
8
0
10
92.225
20
-16.025
40
0.5
50
270
51
0
0
ARC
8
0
10
92.225
20
-3.025
40
0.5
50
0
51
90
0
ARC
8
0
10
79.225
20
-3.025
40
0.5
50
90
51
180
0
LINE
8
0
10
79.225
20
-16.525
11
92.225
21
-16.525
0
LINE
8
0
10
92.225
20
-2.525
11
79.225
21
-2.525
0
LINE
8
0
10
92.725
20
-16.025
11
92.725
21
-3.025
0
LINE
8
0
10
78.725
20
-3.025
11
78.725
21
-16.025
0
ARC
8
0
10
98.275
20
-16.025
40
0.5
50
180
51
270
0
ARC
8
0
10
111.275
20
-16.025
40
0.5
50
270
51
0
0
ARC
8
0
10
111.275
20
-3.025
40
0.5
50
0
51
90
0
ARC
8
0
10
98.275
20
-3.025
40
0.5
50
90
51
180
0
LINE
8
0
10
98.275
20
-16.525
11
111.275
21
-16.525
0
LINE
8
0
10
111.275
20
-2.525
11
98.275
21
-2.525
0
LINE
8
0
10
111.775
20
-16.025
11
111.775
21
-3.025
0
LINE
8
0
10
97.775
20
-3.025
11
97.775
21
-16.025
0
ARC
8
0
10
117.325
20
-16.025
40
0.5
50
180
51
270
0
ARC
8
0
10
130.325
20
-16.025
40
0.5
50
270
51
0
0
ARC
8
0
10
130.325
20
-3.025
40
0.5
50
0
51
90
0
ARC
8
0
10
117.325
20
-3.025
40
0.5
50
90
51
180
0
LINE
8
0
10
117.325
20
-16.525
11
130.325
21
-16.525
0
LINE
8
0
10
130.325
20
-2.525
11
117.325
21
-2.525
0
LINE
8
0
10
130.825
20
-16.025
11
130.825
21
-3.025
0
LINE
8
0
10
116.825
20
-3.025
11
116.825
21
-16.025
0
ARC
8
0
10
231.625
20
-16.025
40
0.5
50
180
51
270
0
ARC
8
0
10
244.625
20
-16.025
40
0.5
50
270
51
0
0
ARC
8
0
10
244.625
20
-3.025
40
0.5
50
0
51
90
0
ARC
8
0
10
231.625
20
-3.025
40
0.5
50
90
51
180
0
LINE
8
0
10
231.625
20
-16.525
11
244.625
21
-16.525
0
LINE
8
0
10
244.625
20
-2.525
11
231.625
21
-2.525
0
LINE
8
0
10
245.125
20
-16.025
11
245.125
21
-3.025
0
LINE
8
0
10
231.125
20
-3.025
11
231.125
21
-16.025
0
ARC
8
0
10
250.675
20
-16.025
40
0.5
50
180
51
270
0
ARC
8
0
10
263.675
20
-16.025
40
0.5
50
270
51
0
0
ARC
8
0
10
263.675
20
-3.025
40
0.5
50
0
51
90
0
ARC
8
0
10
250.675
20
-3.025
40
0.5
50
90
51
180
0
LINE
8
0
10
250.675
20
-16.525
11
263.675
21
-16.525
0
LINE
8
0
10
263.675
20
-2.525
11
250.675
21
-2.525
0
LINE
8
0
10
264.175
20
-16.025
11
264.175
21
-3.025
0
LINE
8
0
10
250.175
20
-3.025
11
250.175
21
-16.025
0
ARC
8
0
10
269.725
20
-16.025
40
0.5
50
180
51
270
0
ARC
8
0
10
282.725
20
-16.025
40
0.5
50
270
51
0
0
ARC
8
0
10
282.725
20
-3.025
40
0.5
50
0
51
90
0
ARC
8
0
10
269.725
20
-3.025
40
0.5
50
90
51
180
0
LINE
8
0
10
269.725
20
-16.525
11
282.725
21
-16.525
0
LINE
8
0
10
282.725
20
-2.525
11
269.725
21
-2.525
0
LINE
8
0
10
283.225
20
-16.025
11
283.225
21
-3.025
0
LINE
8
0
10
269.225
20
-3.025
11
269.225
21
-16.025
0
ARC
8
0
10
288.775
20
-16.025
40
0.5
50
180
51
270
0
ARC
8
0
10
301.775
20
-16.025
40
0.5
50
270
51
0
0
ARC
8
0
10
301.775
20
-3.025
40
0.5
50
0
51
90
0
ARC
8
0
10
288.775
20
-3.025
40
0.5
50
90
51
180
0
LINE
8
0
10
288.775
20
-16.525
11
301.775
21
-16.525
0
LINE
8
0
10
301.775
20
-2.525
11
288.775
21
-2.525
0
LINE
8
0
10
302.275
20
-16.025
11
302.275
21
-3.025
0
LINE
8
0
10
288.275
20
-3.025
11
288.275
21
-16.025
0
ARC
8
0
10
307.825
20
-16.025
40
0.5
50
180
51
270
0
ARC
8
0
10
320.825
20
-16.025
40
0.5
50
270
51
0
0
ARC
8
0
10
320.825
20
-3.025
40
0.5
50
0
51
90
0
ARC
8
0
10
307.825
20
-3.025
40
0.5
50
90
51
180
0
LINE
8
0
10
307.825
20
-16.525
11
320.825
21
-16.525
0
LINE
8
0
10
320.825
20
-2.525
11
307.825
21
-2.525
0
LINE
8
0
10
321.325
20
-16.025
11
321.325
21
-3.025
0
LINE
8
0
10
307.325
20
-3.025
11
307.325
21
-16.025
0
ARC
8
0
10
326.875
20
-16.025
40
0.5
50
180
51
270
0
ARC
8
0
10
339.875
20
-16.025
40
0.5
50
270
51
0
0
ARC
8
0
10
339.875
20
-3.025
40
0.5
50
0
51
90
0
ARC
8
0
10
326.875
20
-3.025
40
0.5
50
90
51
180
0
LINE
8
0
10
326.875
20
-16.525
11
339.875
21
-16.525
0
LINE
8
0
10
339.875
20
-2.525
11
326.875
21
-2.525
0
LINE
8
0
10
340.375
20
-16.025
11
340.375
21
-3.025
0
LINE
8
0
10
326.375
20
-3.025
11
326.375
21
-16.025
0
ARC
8
0
10
355.45
20
-16.025
40
0.5
50
180
51
270
0
ARC
8
0
10
368.45
20
-16.025
40
0.5
50
270
51
0
0
ARC
8
0
10
368.45
20
-3.025
40
0.5
50
0
51
90
0
ARC
8
0
10
355.45
20
-3.025
40
0.5
50
90
51
180
0
LINE
8
0
10
355.45
20
-16.525
11
368.45
21
-16.525
0
LINE
8
0
10
368.45
20
-2.525
11
355.45
21
-2.525
0
LINE
8
0
10
368.95
20
-16.025
11
368.95
21
-3.025
0
LINE
8
0
10
354.95
20
-3.025
11
354.95
21
-16.025
0
ARC
8
0
10
347.012
20
-17.025
40
0.5
50
180
51
270
0
ARC
8
0
10
353.012
20
-17.025
40
0.5
50
270
51
0
0
ARC
8
0
10
353.012
20
-3.025
40
0.5
50
0
51
90
0
ARC
8
0
10
347.012
20
-3.025
40
0.5
50
90
51
180
0
LINE
8
0
10
347.012
20
-17.525
11
353.012
21
-17.525
0
LINE
8
0
10
353.012
20
-2.525
11
347.012
21
-2.525
0
LINE
8
0
10
353.512
20
-17.025
11
353.512
21
-3.025
0
LINE
8
0
10
346.512
20
-3.025
11
346.512
21
-17.025
0
ARC
8
0
10
370.888
20
-17.025
40
0.5
50
180
51
270
0
ARC
8
0
10
376.888
20
-17.025
40
0.5
50
270
51
0
0
ARC
8
0
10
376.888
20
-3.025
40
0.5
50
0
51
90
0
ARC
8
0
10
370.888
20
-3.025
40
0.5
50
90
51
180
0
LINE
8
0
10
370.888
20
-17.525
11
376.888
21
-17.525
0
LINE
8
0
10
376.888
20
-2.525
11
370.888
21
-2.525
0
LINE
8
0
10
377.388
20
-17.025
11
377.388
21
-3.025
0
LINE
8
0
10
370.388
20
-3.025
11
370.388
21
-17.025
0
ARC
8
0
10
7.7875
20
-35.075
40
0.5
50
180
51
270
0
ARC
8
0
10
20.7875
20
-35.075
40
0.5
50
270
51
0
0
ARC
8
0
10
20.7875
20
-22.075
40
0.5
50
0
51
90
0
ARC
8
0
10
7.7875
20
-22.075
40
0.5
50
90
51
180
0
LINE
8
0
10
7.7875
20
-35.575
11
20.7875
21
-35.575
0
LINE
8
0
10
20.7875
20
-21.575
11
7.7875
21
-21.575
0
LINE
8
0
10
21.2875
20
-35.075
11
21.2875
21
-22.075
0
LINE
8
0
10
7.2875
20
-22.075
11
7.2875
21
-35.075
0
ARC
8
0
10
31.6
20
-35.075
40
0.5
50
180
51
270
0
ARC
8
0
10
44.6
20
-35.075
40
0.5
50
270
51
0
0
ARC
8
0
10
44.6
20
-22.075
40
0.5
50
0
51
90
0
ARC
8
0
10
31.6
20
-22.075
40
0.5
50
90
51
180
0
LINE
8
0
10
31.6
20
-35.575
11
44.6
21
-35.575
0
LINE
8
0
10
44.6
20
-21.575
11
31.6
21
-21.575
0
LINE
8
0
10
45.1
20
-35.075
11
45.1
21
-22.075
0
LINE
8
0
10
31.1
20
-22.075
11
31.1
21
-35.075
0
ARC
8
0
10
50.65
20
-35.075
40
0.5
50
180
51
270
0
ARC
8
0
10
63.65
20
-35.075
40
0.5
50
270
51
0
0
ARC
8
0
10
63.65
20
-22.075
40
0.5
50
0
51
90
0
ARC
8
0
10
50.65
20
-22.075
40
0.5
50
90
51
180
0
LINE
8
0
10
50.65
20
-35.575
11
63.65
21
-35.575
0
LINE
8
0
10
63.65
20
-21.575
11
50.65
21
-21.575
0
LINE
8
0
10
64.15
20
-35.075
11
64.15
21
-22.075
0
LINE
8
0
10
50.15
20
-22.075
11
50.15
21
-35.075
0
ARC
8
0
10
69.7
20
-35.075
40
0.5
50
180
51
270
0
ARC
8
0
10
82.7
20
-35.075
40
0.5
50
270
51
0
0
ARC
8
0
10
82.7
20
-22.075
40
0.5
50
0
51
90
0
ARC
8
0
10
69.7
20
-22.075
40
0.5
50
90
51
180
0
LINE
8
0
10
69.7
20
-35.575
11
82.7
21
-35.575
0
LINE
8
0
10
82.7
20
-21.575
11
69.7
21
-21.575
0
LINE
8
0
10
83.2
20
-35.075
11
83.2
21
-22.075
0
LINE
8
0
10
69.2
20
-22.075
11
69.2
21
-35.075
0
ARC
8
0
10
88.75
20
-35.075
40
0.5
50
180
51
270
0
ARC
8
0
10
101.75
20
-35.075
40
0.5
50
270
51
0
0
ARC
8
0
10
101.75
20
-22.075
40
0.5
50
0
51
90
0
ARC
8
0
10
88.75
20
-22.075
40
0.5
50
90
51
180
0
LINE
8
0
10
88.75
20
-35.575
11
101.75
21
-35.575
0
LINE
8
0
10
101.75
20
-21.575
11
88.75
21
-21.575
0
LINE
8
0
10
102.25
20
-35.075
11
102.25
21
-22.075
0
LINE
8
0
10
88.25
20
-22.075
11
88.25
21
-35.075
0
ARC
8
0
10
107.8
20
-35.075
40
0.5
50
180
51
270
0
ARC
8
0
10
120.8
20
-35.075
40
0.5
50
270
51
0
0
ARC
8
0
10
120.8
20
-22.075
40
0.5
50
0
51
90
0
ARC
8
0
10
107.8
20
-22.075
40
0.5
50
90
51
180
0
LINE
8
0
10
107.8
20
-35.575
11
120.8
21
-35.575
0
LINE
8
0
10
120.8
20
-21.575
11
107.8
21
-21.575
0
LINE
8
0
10
121.3
20
-35.075
11
121.3
21
-22.075
0
LINE
8
0
10
107.3
20
-22.075
11
107.3
21
-35.075
0
ARC
8
0
10
222.1
20
-35.075
40
0.5
50
180
51
270
0
ARC
8
0
10
235.1
20
-35.075
40
0.5
50
270
51
0
0
ARC
8
0
10
235.1
20
-22.075
40
0.5
50
0
51
90
0
ARC
8
0
10
222.1
20
-22.075
40
0.5
50
90
51
180
0
LINE
8
0
10
222.1
20
-35.575
11
235.1
21
-35.575
0
LINE
8
0
10
235.1
20
-21.575
11
222.1
21
-21.575
0
LINE
8
0
10
235.6
20
-35.075
11
235.6
21
-22.075
0
LINE
8
0
10
221.6
20
-22.075
11
221.6
21
-35.075
0
ARC
8
0
10
241.15
20
-35.075
40
0.5
50
180
51
270
0
ARC
8
0
10
254.15
20
-35.075
40
0.5
50
270
51
0
0
ARC
8
0
10
254.15
20
-22.075
40
0.5
50
0
51
90
0
ARC
8
0
10
241.15
20
-22.075
40
0.5
50
90
51
180
0
LINE
8
0
10
241.15
20
-35.575
11
254.15
21
-35.575
0
LINE
8
0
10
254.15
20
-21.575
11
241.15
21
-21.575
0
LINE
8
0
10
254.65
20
-35.075
11
254.65
21
-22.075
0
LINE
8
0
10
240.65
20
-22.075
11
240.65
21
-35.075
0
ARC
8
0
10
260.2
20
-35.075
40
0.5
50
180
51
270
0
ARC
8
0
10
273.2
20
-35.075
40
0.5
50
270
51
0
0
ARC
8
0
10
273.2
20
-22.075
40
0.5
50
0
51
90
0
ARC
8
0
10
260.2
20
-22.075
40
0.5
50
90
51
180
0
LINE
8
0
10
260.2
20
-35.575
11
273.2
21
-35.575
0
LINE
8
0
10
273.2
20
-21.575
11
260.2
21
-21.575
0
LINE
8
0
10
273.7
20
-35.075
11
273.7
21
-22.075
0
LINE
8
0
10
259.7
20
-22.075
11
259.7
21
-35.075
0
ARC
8
0
10
279.25
20
-35.075
40
0.5
50
180
51
270
0
ARC
8
0
10
292.25
20
-35.075
40
0.5
50
270
51
0
0
ARC
8
0
10
292.25
20
-22.075
40
0.5
50
0
51
90
0
ARC
8
0
10
279.25
20
-22.075
40
0.5
50
90
51
180
0
LINE
8
0
10
279.25
20
-35.575
11
292.25
21
-35.575
0
LINE
8
0
10
292.25
20
-21.575
11
279.25
21
-21.575
0
LINE
8
0
10
292.75
20
-35.075
11
292.75
21
-22.075
0
LINE
8
0
10
278.75
20
-22.075
11
278.75
21
-35.075
0
ARC
8
0
10
298.3
20
-35.075
40
0.5
50
180
51
270
0
ARC
8
0
10
311.3
20
-35.075
40
0.5
50
270
51
0
0
ARC
8
0
10
311.3
20
-22.075
40
0.5
50
0
51
90
0
ARC
8
0
10
298.3
20
-22.075
40
0.5
50
90
51
180
0
LINE
8
0
10
298.3
20
-35.575
11
311.3
21
-35.575
0
LINE
8
0
10
311.3
20
-21.575
11
298.3
21
-21.575
0
LINE
8
0
10
311.8
20
-35.075
11
311.8
21
-22.075
0
LINE
8
0
10
297.8
20
-22.075
11
297.8
21
-35.075
0
ARC
8
0
10
317.35
20
-35.075
40
0.5
50
180
51
270
0
ARC
8
0
10
330.35
20
-35.075
40
0.5
50
270
51
0
0
ARC
8
0
10
330.35
20
-22.075
40
0.5
50
0
51
90
0
ARC
8
0
10
317.35
20
-22.075
40
0.5
50
90
51
180
0
LINE
8
0
10
317.35
20
-35.575
11
330.35
21
-35.575
0
LINE
8
0
10
330.35
20
-21.575
11
317.35
21
-21.575
0
LINE
8
0
10
330.85
20
-35.075
11
330.85
21
-22.075
0
LINE
8
0
10
316.85
20
-22.075
11
316.85
21
-35.075
0
ARC
8
0
10
336.4
20
-35.075
40
0.5
50
180
51
270
0
ARC
8
0
10
349.4
20
-35.075
40
0.5
50
270
51
0
0
ARC
8
0
10
349.4
20
-22.075
40
0.5
50
0
51
90
0
ARC
8
0
10
336.4
20
-22.075
40
0.5
50
90
51
180
0
LINE
8
0
10
336.4
20
-35.575
11
349.4
21
-35.575
0
LINE
8
0
10
349.4
20
-21.575
11
336.4
21
-21.575
0
LINE
8
0
10
349.9
20
-35.075
11
349.9
21
-22.075
0
LINE
8
0
10
335.9
20
-22.075
11
335.9
21
-35.075
0
ARC
8
0
10
360.2125
20
-35.075
40
0.5
50
180
51
270
0
ARC
8
0
10
373.2125
20
-35.075
40
0.5
50
270
51
0
0
ARC
8
0
10
373.2125
20
-22.075
40
0.5
50
0
51
90
0
ARC
8
0
10
360.2125
20
-22.075
40
0.5
50
90
51
180
0
LINE
8
0
10
360.2125
20
-35.575
11
373.2125
21
-35.575
0
LINE
8
0
10
373.2125
20
-21.575
11
360.2125
21
-21.575
0
LINE
8
0
10
373.7125
20
-35.075
11
373.7125
21
-22.075
0
LINE
8
0
10
359.7125
20
-22.075
11
359.7125
21
-35.075
0
ARC
8
0
10
10.16875
20
-54.125
40
0.5
50
180
51
270
0
ARC
8
0
10
23.16875
20
-54.125
40
0.5
50
270
51
0
0
ARC
8
0
10
23.16875
20
-41.125
40
0.5
50
0
51
90
0
ARC
8
0
10
10.16875
20
-41.125
40
0.5
50
90
51
180
0
LINE
8
0
10
10.16875
20
-54.625
11
23.16875
21
-54.625
0
LINE
8
0
10
23.16875
20
-40.625
11
10.16875
21
-40.625
0
LINE
8
0
10
23.66875
20
-54.125
11
23.66875
21
-41.125
0
LINE
8
0
10
9.66875
20
-41.125
11
9.66875
21
-54.125
0
ARC
8
0
10
36.3625
20
-54.125
40
0.5
50
180
51
270
0
ARC
8
0
10
49.3625
20
-54.125
40
0.5
50
270
51
0
0
ARC
8
0
10
49.3625
20
-41.125
40
0.5
50
0
51
90
0
ARC
8
0
10
36.3625
20
-41.125
40
0.5
50
90
51
180
0
LINE
8
0
10
36.3625
20
-54.625
11
49.3625
21
-54.625
0
LINE
8
0
10
49.3625
20
-40.625
11
36.3625
21
-40.625
0
LINE
8
0
10
49.8625
20
-54.125
11
49.8625
21
-41.125
0
LINE
8
0
10
35.8625
20
-41.125
11
35.8625
21
-54.125
0
ARC
8
0
10
55.4125
20
-54.125
40
0.5
50
180
51
270
0
ARC
8
0
10
68.4125
20
-54.125
40
0.5
50
270
51
0
0
ARC
8
0
10
68.4125
20
-41.125
40
0.5
50
0
51
90
0
ARC
8
0
10
55.4125
20
-41.125
40
0.5
50
90
51
180
0
LINE
8
0
10
55.4125
20
-54.625
11
68.4125
21
-54.625
0
LINE
8
0
10
68.4125
20
-40.625
11
55.4125
21
-40.625
0
LINE
8
0
10
68.9125
20
-54.125
11
68.9125
21
-41.125
0
LINE
8
0
10
54.9125
20
-41.125
11
54.9125
21
-54.125
0
ARC
8
0
10
74.4625
20
-54.125
40
0.5
50
180
51
270
0
ARC
8
0
10
87.4625
20
-54.125
40
0.5
50
270
51
0
0
ARC
8
0
10
87.4625
20
-41.125
40
0.5
50
0
51
90
0
ARC
8
0
10
74.4625
20
-41.125
40
0.5
50
90
51
180
0
LINE
8
0
10
74.4625
20
-54.625
11
87.4625
21
-54.625
0
LINE
8
0
10
87.4625
20
-40.625
11
74.4625
21
-40.625
0
LINE
8
0
10
87.9625
20
-54.125
11
87.9625
21
-41.125
0
LINE
8
0
10
73.9625
20
-41.125
11
73.9625
21
-54.125
0
ARC
8
0
10
93.5125
20
-54.125
40
0.5
50
180
51
270
0
ARC
8
0
10
106.5125
20
-54.125
40
0.5
50
270
51
0
0
ARC
8
0
10
106.5125
20
-41.125
40
0.5
50
0
51
90
0
ARC
8
0
10
93.5125
20
-41.125
40
0.5
50
90
51
180
0
LINE
8
0
10
93.5125
20
-54.625
11
106.5125
21
-54.625
0
LINE
8
0
10
106.5125
20
-40.625
11
93.5125
21
-40.625
0
LINE
8
0
10
107.0125
20
-54.125
11
107.0125
21
-41.125
0
LINE
8
0
10
93.0125
20
-41.125
11
93.0125
21
-54.125
0
ARC
8
0
10
112.5625
20
-54.125
40
0.5
50
180
51
270
0
ARC
8
0
10
125.5625
20
-54.125
40
0.5
50
270
51
0
0
ARC
8
0
10
125.5625
20
-41.125
40
0.5
50
0
51
90
0
ARC
8
0
10
112.5625
20
-41.125
40
0.5
50
90
51
180
0
LINE
8
0
10
112.5625
20
-54.625
11
125.5625
21
-54.625
0
LINE
8
0
10
125.5625
20
-40.625
11
112.5625
21
-40.625
0
LINE
8
0
10
126.0625
20
-54.125
11
126.0625
21
-41.125
0
LINE
8
0
10
112.0625
20
-41.125
11
112.0625
21
-54.125
0
ARC
8
0
10
226.8625
20
-54.125
40
0.5
50
180
51
270
0
ARC
8
0
10
239.8625
20
-54.125
40
0.5
50
270
51
0
0
ARC
8
0
10
239.8625
20
-41.125
40
0.5
50
0
51
90
0
ARC
8
0
10
226.8625
20
-41.125
40
0.5
50
90
51
180
0
LINE
8
0
10
226.8625
20
-54.625
11
239.8625
21
-54.625
0
LINE
8
0
10
239.8625
20
-40.625
11
226.8625
21
-40.625
0
LINE
8
0
10
240.3625
20
-54.125
11
240.3625
21
-41.125
0
LINE
8
0
10
226.3625
20
-41.125
11
226.3625
21
-54.125
0
ARC
8
0
10
245.9125
20
-54.125
40
0.5
50
180
51
270
0
ARC
8
0
10
258.9125
20
-54.125
40
0.5
50
270
51
0
0
ARC
8
0
10
258.9125
20
-41.125
40
0.5
50
0
51
90
0
ARC
8
0
10
245.9125
20
-41.125
40
0.5
50
90
51
180
0
LINE
8
0
10
245.9125
20
-54.625
11
258.9125
21
-54.625
0
LINE
8
0
10
258.9125
20
-40.625
11
245.9125
21
-40.625
0
LINE
8
0
10
259.4125
20
-54.125
11
259.4125
21
-41.125
0
LINE
8
0
10
245.4125
20
-41.125
11
245.4125
21
-54.125
0
ARC
8
0
10
264.9625
20
-54.125
40
0.5
50
180
51
270
0
ARC
8
0
10
277.9625
20
-54.125
40
0.5
50
270
51
0
0
ARC
8
0
10
277.9625
20
-41.125
40
0.5
50
0
51
90
0
ARC
8
0
10
264.9625
20
-41.125
40
0.5
50
90
51
180
0
LINE
8
0
10
264.9625
20
-54.625
11
277.9625
21
-54.625
0
LINE
8
0
10
277.9625
20
-40.625
11
264.9625
21
-40.625
0
LINE
8
0
10
278.4625
20
-54.125
11
278.4625
21
-41.125
0
LINE
8
0
10
264.4625
20
-41.125
11
264.4625
21
-54.125
0
ARC
8
0
10
284.0125
20
-54.125
40
0.5
50
180
51
270
0
ARC
8
0
10
297.0125
20
-54.125
40
0.5
50
270
51
0
0
ARC
8
0
10
297.0125
20
-41.125
40
0.5
50
0
51
90
0
ARC
8
0
10
284.0125
20
-41.125
40
0.5
50
90
51
180
0
LINE
8
0
10
284.0125
20
-54.625
11
297.0125
21
-54.625
0
LINE
8
0
10
297.0125
20
-40.625
11
284.0125
21
-40.625
0
LINE
8
0
10
297.5125
20
-54.125
11
297.5125
21
-41.125
0
LINE
8
0
10
283.5125
20
-41.125
11
283.5125
21
-54.125
0
ARC
8
0
10
303.0625
20
-54.125
40
0.5
50
180
51
270
0
ARC
8
0
10
316.0625
20
-54.125
40
0.5
50
270
51
0
0
ARC
8
0
10
316.0625
20
-41.125
40
0.5
50
0
51
90
0
ARC
8
0
10
303.0625
20
-41.125
40
0.5
50
90
51
180
0
LINE
8
0
10
303.0625
20
-54.625
11
316.0625
21
-54.625
0
LINE
8
0
10
316.0625
20
-40.625
11
303.0625
21
-40.625
0
LINE
8
0
10
316.5625
20
-54.125
11
316.5625
21
-41.125
0
LINE
8
0
10
302.5625
20
-41.125
11
302.5625
21
-54.125
0
ARC
8
0
10
322.1125
20
-54.125
40
0.5
50
180
51
270
0
ARC
8
0
10
335.1125
20
-54.125
40
0.5
50
270
51
0
0
ARC
8
0
10
335.1125
20
-41.125
40
0.5
50
0
51
90
0
ARC
8
0
10
322.1125
20
-41.125
40
0.5
50
90
51
180
0
LINE
8
0
10
322.1125
20
-54.625
11
335.1125
21
-54.625
0
LINE
8
0
10
335.1125
20
-40.625
11
322.1125
21
-40.625
0
LINE
8
0
10
335.6125
20
-54.125
11
335.6125
21
-41.125
0
LINE
8
0
10
321.6125
20
-41.125
11
321.6125
21
-54.125
0
ARC
8
0
10
353.06875
20
-54.125
40
0.5
50
180
51
270
0
ARC
8
0
10
366.06875
20
-54.125
40
0.5
50
270
51
0
0
ARC
8
0
10
366.06875
20
-41.125
40
0.5
50
0
51
90
0
ARC
8
0
10
353.06875
20
-41.125
40
0.5
50
90
51
180
0
LINE
8
0
10
353.06875
20
-54.625
11
366.06875
21
-54.625
0
LINE
8
0
10
366.06875
20
-40.625
11
353.06875
21
-40.625
0
LINE
8
0
10
366.56875
20
-54.125
11
366.56875
21
-41.125
0
LINE
8
0
10
352.56875
20
-41.125
11
352.56875
21
-54.125
0
ARC
8
0
10
344.63075
20
-55.125
40
0.5
50
180
51
270
0
ARC
8
0
10
350.63075
20
-55.125
40
0.5
50
270
51
0
0
ARC
8
0
10
350.63075
20
-41.125
40
0.5
50
0
51
90
0
ARC
8
0
10
344.63075
20
-41.125
40
0.5
50
90
51
180
0
LINE
8
0
10
344.63075
20
-55.625
11
350.63075
21
-55.625
0
LINE
8
0
10
350.63075
20
-40.625
11
344.63075
21
-40.625
0
LINE
8
0
10
351.13075
20
-55.125
11
351.13075
21
-41.125
0
LINE
8
0
10
344.13075
20
-41.125
11
344.13075
21
-55.125
0
ARC
8
0
10
368.50675
20
-55.125
40
0.5
50
180
51
270
0
ARC
8
0
10
374.50675
20
-55.125
40
0.5
50
270
51
0
0
ARC
8
0
10
374.50675
20
-41.125
40
0.5
50
0
51
90
0
ARC
8
0
10
368.50675
20
-41.125
40
0.5
50
90
51
180
0
LINE
8
0
10
368.50675
20
-55.625
11
374.50675
21
-55.625
0
LINE
8
0
10
374.50675
20
-40.625
11
368.50675
21
-40.625
0
LINE
8
0
10
375.00675
20
-55.125
11
375.00675
21
-41.125
0
LINE
8
0
10
368.00675
20
-41.125
11
368.00675
21
-55.125
0
ARC
8
0
10
14.93125
20
-73.175
40
0.5
50
180
51
270
0
ARC
8
0
10
27.93125
20
-73.175
40
0.5
50
270
51
0
0
ARC
8
0
10
27.93125
20
-60.175
40
0.5
50
0
51
90
0
ARC
8
0
10
14.93125
20
-60.175
40
0.5
50
90
51
180
0
LINE
8
0
10
14.93125
20
-73.675
11
27.93125
21
-73.675
0
LINE
8
0
10
27.93125
20
-59.675
11
14.93125
21
-59.675
0
LINE
8
0
10
28.43125
20
-73.175
11
28.43125
21
-60.175
0
LINE
8
0
10
14.43125
20
-60.175
11
14.43125
21
-73.175
0
ARC
8
0
10
6.49325
20
-74.175
40
0.5
50
180
51
270
0
ARC
8
0
10
12.49325
20
-74.175
40
0.5
50
270
51
0
0
ARC
8
0
10
12.49325
20
-60.175
40
0.5
50
0
51
90
0
ARC
8
0
10
6.49325
20
-60.175
40
0.5
50
90
51
180
0
LINE
8
0
10
6.49325
20
-74.675
11
12.49325
21
-74.675
0
LINE
8
0
10
12.49325
20
-59.675
11
6.49325
21
-59.675
0
LINE
8
0
10
12.99325
20
-74.175
11
12.99325
21
-60.175
0
LINE
8
0
10
5.99325
20
-60.175
11
5.99325
21
-74.175
0
ARC
8
0
10
30.36925
20
-74.175
40
0.5
50
180
51
270
0
ARC
8
0
10
36.36925
20
-74.175
40
0.5
50
270
51
0
0
ARC
8
0
10
36.36925
20
-60.175
40
0.5
50
0
51
90
0
ARC
8
0
10
30.36925
20
-60.175
40
0.5
50
90
51
180
0
LINE
8
0
10
30.36925
20
-74.675
11
36.36925
21
-74.675
0
LINE
8
0
10
36.36925
20
-59.675
11
30.36925
21
-59.675
0
LINE
8
0
10
36.86925
20
-74.175
11
36.86925
21
-60.175
0
LINE
8
0
10
29.86925
20
-60.175
11
29.86925
21
-74.175
0
ARC
8
0
10
45.8875
20
-73.175
40
0.5
50
180
51
270
0
ARC
8
0
10
58.8875
20
-73.175
40
0.5
50
270
51
0
0
ARC
8
0
10
58.8875
20
-60.175
40
0.5
50
0
51
90
0
ARC
8
0
10
45.8875
20
-60.175
40
0.5
50
90
51
180
0
LINE
8
0
10
45.8875
20
-73.675
11
58.8875
21
-73.675
0
LINE
8
0
10
58.8875
20
-59.675
11
45.8875
21
-59.675
0
LINE
8
0
10
59.3875
20
-73.175
11
59.3875
21
-60.175
0
LINE
8
0
10
45.3875
20
-60.175
11
45.3875
21
-73.175
0
ARC
8
0
10
64.9375
20
-73.175
40
0.5
50
180
51
270
0
ARC
8
0
10
77.9375
20
-73.175
40
0.5
50
270
51
0
0
ARC
8
0
10
77.9375
20
-60.175
40
0.5
50
0
51
90
0
ARC
8
0
10
64.9375
20
-60.175
40
0.5
50
90
51
180
0
LINE
8
0
10
64.9375
20
-73.675
11
77.9375
21
-73.675
0
LINE
8
0
10
77.9375
20
-59.675
11
64.9375
21
-59.675
0
LINE
8
0
10
78.4375
20
-73.175
11
78.4375
21
-60.175
0
LINE
8
0
10
64.4375
20
-60.175
11
64.4375
21
-73.175
0
ARC
8
0
10
83.9875
20
-73.175
40
0.5
50
180
51
270
0
ARC
8
0
10
96.9875
20
-73.175
40
0.5
50
270
51
0
0
ARC
8
0
10
96.9875
20
-60.175
40
0.5
50
0
51
90
0
ARC
8
0
10
83.9875
20
-60.175
40
0.5
50
90
51
180
0
LINE
8
0
10
83.9875
20
-73.675
11
96.9875
21
-73.675
0
LINE
8
0
10
96.9875
20
-59.675
11
83.9875
21
-59.675
0
LINE
8
0
10
97.4875
20
-73.175
11
97.4875
21
-60.175
0
LINE
8
0
10
83.4875
20
-60.175
11
83.4875
21
-73.175
0
ARC
8
0
10
103.0375
20
-73.175
40
0.5
50
180
51
270
0
ARC
8
0
10
116.0375
20
-73.175
40
0.5
50
270
51
0
0
ARC
8
0
10
116.0375
20
-60.175
40
0.5
50
0
51
90
0
ARC
8
0
10
103.0375
20
-60.175
40
0.5
50
90
51
180
0
LINE
8
0
10
103.0375
20
-73.675
11
116.0375
21
-73.675
0
LINE
8
0
10
116.0375
20
-59.675
11
103.0375
21
-59.675
0
LINE
8
0
10
116.5375
20
-73.175
11
116.5375
21
-60.175
0
LINE
8
0
10
102.5375
20
-60.175
11
102.5375
21
-73.175
0
ARC
8
0
10
122.0875
20
-73.175
40
0.5
50
180
51
270
0
ARC
8
0
10
135.0875
20
-73.175
40
0.5
50
270
51
0
0
ARC
8
0
10
135.0875
20
-60.175
40
0.5
50
0
51
90
0
ARC
8
0
10
122.0875
20
-60.175
40
0.5
50
90
51
180
0
LINE
8
0
10
122.0875
20
-73.675
11
135.0875
21
-73.675
0
LINE
8
0
10
135.0875
20
-59.675
11
122.0875
21
-59.675
0
LINE
8
0
10
135.5875
20
-73.175
11
135.5875
21
-60.175
0
LINE
8
0
10
121.5875
20
-60.175
11
121.5875
21
-73.175
0
ARC
8
0
10
236.3875
20
-73.175
40
0.5
50
180
51
270
0
ARC
8
0
10
249.3875
20
-73.175
40
0.5
50
270
51
0
0
ARC
8
0
10
249.3875
20
-60.175
40
0.5
50
0
51
90
0
ARC
8
0
10
236.3875
20
-60.175
40
0.5
50
90
51
180
0
LINE
8
0
10
236.3875
20
-73.675
11
249.3875
21
-73.675
0
LINE
8
0
10
249.3875
20
-59.675
11
236.3875
21
-59.675
0
LINE
8
0
10
249.8875
20
-73.175
11
249.8875
21
-60.175
0
LINE
8
0
10
235.8875
20
-60.175
11
235.8875
21
-73.175
0
ARC
8
0
10
255.4375
20
-73.175
40
0.5
50
180
51
270
0
ARC
8
0
10
268.4375
20
-73.175
40
0.5
50
270
51
0
0
ARC
8
0
10
268.4375
20
-60.175
40
0.5
50
0
51
90
0
ARC
8
0
10
255.4375
20
-60.175
40
0.5
50
90
51
180
0
LINE
8
0
10
255.4375
20
-73.675
11
268.4375
21
-73.675
0
LINE
8
0
10
268.4375
20
-59.675
11
255.4375
21
-59.675
0
LINE
8
0
10
268.9375
20
-73.175
11
268.9375
21
-60.175
0
LINE
8
0
10
254.9375
20
-60.175
11
254.9375
21
-73.175
0
ARC
8
0
10
274.4875
20
-73.175
40
0.5
50
180
51
270
0
ARC
8
0
10
287.4875
20
-73.175
40
0.5
50
270
51
0
0
ARC
8
0
10
287.4875
20
-60.175
40
0.5
50
0
51
90
0
ARC
8
0
10
274.4875
20
-60.175
40
0.5
50
90
51
180
0
LINE
8
0
10
274.4875
20
-73.675
11
287.4875
21
-73.675
0
LINE
8
0
10
287.4875
20
-59.675
11
274.4875
21
-59.675
0
LINE
8
0
10
287.9875
20
-73.175
11
287.9875
21
-60.175
0
LINE
8
0
10
273.9875
20
-60.175
11
273.9875
21
-73.175
0
ARC
8
0
10
293.5375
20
-73.175
40
0.5
50
180
51
270
0
ARC
8
0
10
306.5375
20
-73.175
40
0.5
50
270
51
0
0
ARC
8
0
10
306.5375
20
-60.175
40
0.5
50
0
51
90
0
ARC
8
0
10
293.5375
20
-60.175
40
0.5
50
90
51
180
0
LINE
8
0
10
293.5375
20
-73.675
11
306.5375
21
-73.675
0
LINE
8
0
10
306.5375
20
-59.675
11
293.5375
21
-59.675
0
LINE
8
0
10
307.0375
20
-73.175
11
307.0375
21
-60.175
0
LINE
8
0
10
293.0375
20
-60.175
11
293.0375
21
-73.175
0
ARC
8
0
10
312.5875
20
-73.175
40
0.5
50
180
51
270
0
ARC
8
0
10
325.5875
20
-73.175
40
0.5
50
270
51
0
0
ARC
8
0
10
325.5875
20
-60.175
40
0.5
50
0
51
90
0
ARC
8
0
10
312.5875
20
-60.175
40
0.5
50
90
51
180
0
LINE
8
0
10
312.5875
20
-73.675
11
325.5875
21
-73.675
0
LINE
8
0
10
325.5875
20
-59.675
11
312.5875
21
-59.675
0
LINE
8
0
10
326.0875
20
-73.175
11
326.0875
21
-60.175
0
LINE
8
0
10
312.0875
20
-60.175
11
312.0875
21
-73.175
0
ARC
8
0
10
348.30625
20
-73.175
40
0.5
50
180
51
270
0
ARC
8
0
10
361.30625
20
-73.175
40
0.5
50
270
51
0
0
ARC
8
0
10
361.30625
20
-60.175
40
0.5
50
0
51
90
0
ARC
8
0
10
348.30625
20
-60.175
40
0.5
50
90
51
180
0
LINE
8
0
10
348.30625
20
-73.675
11
361.30625
21
-73.675
0
LINE
8
0
10
361.30625
20
-59.675
11
348.30625
21
-59.675
0
LINE
8
0
10
361.80625
20
-73.175
11
361.80625
21
-60.175
0
LINE
8
0
10
347.80625
20
-60.175
11
347.80625
21
-73.175
0
ARC
8
0
10
339.86825
20
-74.175
40
0.5
50
180
51
270
0
ARC
8
0
10
345.86825
20
-74.175
40
0.5
50
270
51
0
0
ARC
8
0
10
345.86825
20
-60.175
40
0.5
50
0
51
90
0
ARC
8
0
10
339.86825
20
-60.175
40
0.5
50
90
51
180
0
LINE
8
0
10
339.86825
20
-74.675
11
345.86825
21
-74.675
0
LINE
8
0
10
345.86825
20
-59.675
11
339.86825
21
-59.675
0
LINE
8
0
10
346.36825
20
-74.175
11
346.36825
21
-60.175
0
LINE
8
0
10
339.36825
20
-60.175
11
339.36825
21
-74.175
0
ARC
8
0
10
363.74425
20
-74.175
40
0.5
50
180
51
270
0
ARC
8
0
10
369.74425
20
-74.175
40
0.5
50
270
51
0
0
ARC
8
0
10
369.74425
20
-60.175
40
0.5
50
0
51
90
0
ARC
8
0
10
363.74425
20
-60.175
40
0.5
50
90
51
180
0
LINE
8
0
10
363.74425
20
-74.675
11
369.74425
21
-74.675
0
LINE
8
0
10
369.74425
20
-59.675
11
363.74425
21
-59.675
0
LINE
8
0
10
370.24425
20
-74.175
11
370.24425
21
-60.175
0
LINE
8
0
10
363.24425
20
-60.175
11
363.24425
21
-74.175
0
ARC
8
0
10
5.40625
20
-92.225
40
0.5
50
180
51
270
0
ARC
8
0
10
18.40625
20
-92.225
40
0.5
50
270
51
0
0
ARC
8
0
10
18.40625
20
-79.225
40
0.5
50
0
51
90
0
ARC
8
0
10
5.40625
20
-79.225
40
0.5
50
90
51
180
0
LINE
8
0
10
5.40625
20
-92.725
11
18.40625
21
-92.725
0
LINE
8
0
10
18.40625
20
-78.725
11
5.40625
21
-78.725
0
LINE
8
0
10
18.90625
20
-92.225
11
18.90625
21
-79.225
0
LINE
8
0
10
4.90625
20
-79.225
11
4.90625
21
-92.225
0
ARC
8
0
10
29.21875
20
-92.225
40
0.5
50
180
51
270
0
ARC
8
0
10
42.21875
20
-92.225
40
0.5
50
270
51
0
0
ARC
8
0
10
42.21875
20
-79.225
40
0.5
50
0
51
90
0
ARC
8
0
10
29.21875
20
-79.225
40
0.5
50
90
51
180
0
LINE
8
0
10
29.21875
20
-92.725
11
42.21875
21
-92.725
0
LINE
8
0
10
42.21875
20
-78.725
11
29.21875
21
-78.725
0
LINE
8
0
10
42.71875
20
-92.225
11
42.71875
21
-79.225
0
LINE
8
0
10
28.71875
20
-79.225
11
28.71875
21
-92.225
0
ARC
8
0
10
53.03125
20
-92.225
40
0.5
50
180
51
270
0
ARC
8
0
10
66.03125
20
-92.225
40
0.5
50
270
51
0
0
ARC
8
0
10
66.03125
20
-79.225
40
0.5
50
0
51
90
0
ARC
8
0
10
53.03125
20
-79.225
40
0.5
50
90
51
180
0
LINE
8
0
10
53.03125
20
-92.725
11
66.03125
21
-92.725
0
LINE
8
0
10
66.03125
20
-78.725
11
53.03125
21
-78.725
0
LINE
8
0
10
66.53125
20
-92.225
11
66.53125
21
-79.225
0
LINE
8
0
10
52.53125
20
-79.225
11
52.53125
21
-92.225
0
ARC
8
0
10
86.36875
20
-92.225
40
0.5
50
180
51
270
0
ARC
8
0
10
99.36875
20
-92.225
40
0.5
50
270
51
0
0
ARC
8
0
10
99.36875
20
-79.225
40
0.5
50
0
51
90
0
ARC
8
0
10
86.36875
20
-79.225
40
0.5
50
90
51
180
0
LINE
8
0
10
86.36875
20
-92.725
11
99.36875
21
-92.725
0
LINE
8
0
10
99.36875
20
-78.725
11
86.36875
21
-78.725
0
LINE
8
0
10
99.86875
20
-92.225
11
99.86875
21
-79.225
0
LINE
8
0
10
85.86875
20
-79.225
11
85.86875
21
-92.225
0
ARC
8
0
10
77.93075
20
-93.225
40
0.5
50
180
51
270
0
ARC
8
0
10
83.93075
20
-93.225
40
0.5
50
270
51
0
0
ARC
8
0
10
83.93075
20
-79.225
40
0.5
50
0
51
90
0
ARC
8
0
10
77.93075
20
-79.225
40
0.5
50
90
51
180
0
LINE
8
0
10
77.93075
20
-93.725
11
83.93075
21
-93.725
0
LINE
8
0
10
83.93075
20
-78.725
11
77.93075
21
-78.725
0
LINE
8
0
10
84.43075
20
-93.225
11
84.43075
21
-79.225
0
LINE
8
0
10
77.43075
20
-79.225
11
77.43075
21
-93.225
0
ARC
8
0
10
101.80675
20
-93.225
40
0.5
50
180
51
270
0
ARC
8
0
10
107.80675
20
-93.225
40
0.5
50
270
51
0
0
ARC
8
0
10
107.80675
20
-79.225
40
0.5
50
0
51
90
0
ARC
8
0
10
101.80675
20
-79.225
40
0.5
50
90
51
180
0
LINE
8
0
10
101.80675
20
-93.725
11
107.80675
21
-93.725
0
LINE
8
0
10
107.80675
20
-78.725
11
101.80675
21
-78.725
0
LINE
8
0
10
108.30675
20
-93.225
11
108.30675
21
-79.225
0
LINE
8
0
10
101.30675
20
-79.225
11
101.30675
21
-93.225
0
ARC
8
0
10
119.70625
20
-92.225
40
0.5
50
180
51
270
0
ARC
8
0
10
132.70625
20
-92.225
40
0.5
50
270
51
0
0
ARC
8
0
10
132.70625
20
-79.225
40
0.5
50
0
51
90
0
ARC
8
0
10
119.70625
20
-79.225
40
0.5
50
90
51
180
0
LINE
8
0
10
119.70625
20
-92.725
11
132.70625
21
-92.725
0
LINE
8
0
10
132.70625
20
-78.725
11
119.70625
21
-78.725
0
LINE
8
0
10
133.20625
20
-92.225
11
133.20625
21
-79.225
0
LINE
8
0
10
119.20625
20
-79.225
11
119.20625
21
-92.225
0
ARC
8
0
10
253.05625
20
-92.225
40
0.5
50
180
51
270
0
ARC
8
0
10
266.05625
20
-92.225
40
0.5
50
270
51
0
0
ARC
8
0
10
266.05625
20
-79.225
40
0.5
50
0
51
90
0
ARC
8
0
10
253.05625
20
-79.225
40
0.5
50
90
51
180
0
LINE
8
0
10
253.05625
20
-92.725
11
266.05625
21
-92.725
0
LINE
8
0
10
266.05625
20
-78.725
11
253.05625
21
-78.725
0
LINE
8
0
10
266.55625
20
-92.225
11
266.55625
21
-79.225
0
LINE
8
0
10
252.55625
20
-79.225
11
252.55625
21
-92.225
0
ARC
8
0
10
244.61825
20
-93.225
40
0.5
50
180
51
270
0
ARC
8
0
10
250.61825
20
-93.225
40
0.5
50
270
51
0
0
ARC
8
0
10
250.61825
20
-79.225
40
0.5
50
0
51
90
0
ARC
8
0
10
244.61825
20
-79.225
40
0.5
50
90
51
180
0
LINE
8
0
10
244.61825
20
-93.725
11
250.61825
21
-93.725
0
LINE
8
0
10
250.61825
20
-78.725
11
244.61825
21
-78.725
0
LINE
8
0
10
251.11825
20
-93.225
11
251.11825
21
-79.225
0
LINE
8
0
10
244.11825
20
-79.225
11
244.11825
21
-93.225
0
ARC
8
0
10
268.49425
20
-93.225
40
0.5
50
180
51
270
0
ARC
8
0
10
274.49425
20
-93.225
40
0.5
50
270
51
0
0
ARC
8
0
10
274.49425
20
-79.225
40
0.5
50
0
51
90
0
ARC
8
0
10
268.49425
20
-79.225
40
0.5
50
90
51
180
0
LINE
8
0
10
268.49425
20
-93.725
11
274.49425
21
-93.725
0
LINE
8
0
10
274.49425
20
-78.725
11
268.49425
21
-78.725
0
LINE
8
0
10
274.99425
20
-93.225
11
274.99425
21
-79.225
0
LINE
8
0
10
267.99425
20
-79.225
11
267.99425
21
-93.225
0
ARC
8
0
10
291.15625
20
-92.225
40
0.5
50
180
51
270
0
ARC
8
0
10
304.15625
20
-92.225
40
0.5
50
270
51
0
0
ARC
8
0
10
304.15625
20
-79.225
40
0.5
50
0
51
90
0
ARC
8
0
10
291.15625
20
-79.225
40
0.5
50
90
51
180
0
LINE
8
0
10
291.15625
20
-92.725
11
304.15625
21
-92.725
0
LINE
8
0
10
304.15625
20
-78.725
11
291.15625
21
-78.725
0
LINE
8
0
10
304.65625
20
-92.225
11
304.65625
21
-79.225
0
LINE
8
0
10
290.65625
20
-79.225
11
290.65625
21
-92.225
0
ARC
8
0
10
314.96875
20
-92.225
40
0.5
50
180
51
270
0
ARC
8
0
10
327.96875
20
-92.225
40
0.5
50
270
51
0
0
ARC
8
0
10
327.96875
20
-79.225
40
0.5
50
0
51
90
0
ARC
8
0
10
314.96875
20
-79.225
40
0.5
50
90
51
180
0
LINE
8
0
10
314.96875
20
-92.725
11
327.96875
21
-92.725
0
LINE
8
0
10
327.96875
20
-78.725
11
314.96875
21
-78.725
0
LINE
8
0
10
328.46875
20
-92.225
11
328.46875
21
-79.225
0
LINE
8
0
10
314.46875
20
-79.225
11
314.46875
21
-92.225
0
ARC
8
0
10
338.78125
20
-92.225
40
0.5
50
180
51
270
0
ARC
8
0
10
351.78125
20
-92.225
40
0.5
50
270
51
0
0
ARC
8
0
10
351.78125
20
-79.225
40
0.5
50
0
51
90
0
ARC
8
0
10
338.78125
20
-79.225
40
0.5
50
90
51
180
0
LINE
8
0
10
338.78125
20
-92.725
11
351.78125
21
-92.725
0
LINE
8
0
10
351.78125
20
-78.725
11
338.78125
21
-78.725
0
LINE
8
0
10
352.28125
20
-92.225
11
352.28125
21
-79.225
0
LINE
8
0
10
338.28125
20
-79.225
11
338.28125
21
-92.225
0
ARC
8
0
10
362.59375
20
-92.225
40
0.5
50
180
51
270
0
ARC
8
0
10
375.59375
20
-92.225
40
0.5
50
270
51
0
0
ARC
8
0
10
375.59375
20
-79.225
40
0.5
50
0
51
90
0
ARC
8
0
10
362.59375
20
-79.225
40
0.5
50
90
51
180
0
LINE
8
0
10
362.59375
20
-92.725
11
375.59375
21
-92.725
0
LINE
8
0
10
375.59375
20
-78.725
11
362.59375
21
-78.725
0
LINE
8
0
10
376.09375
20
-92.225
11
376.09375
21
-79.225
0
LINE
8
0
10
362.09375
20
-79.225
11
362.09375
21
-92.225
0
ENDSEC
0
EOF