M48
; DRILL file {KiCad (5.1.10-1-10_14)} date Friday, June 17, 2022 at 07:42:28 PM
; FORMAT={-:-/ absolute / inch / decimal}
; #@! TF.CreationDate,2022-06-17T19:42:28+09:00
; #@! TF.GenerationSoftware,Kicad,Pcbnew,(5.1.10-1-10_14)
; #@! TF.FileFunction,NonPlated,1,2,NPTH
FMAT,2
INCH
T1C0.0256
T2C0.0689
T3C0.1200
T4C0.1570
%
G90
G05
T1
X1.7112Y-0.8311
X1.9388Y-0.8311
X5.4762Y-0.8311
X5.7038Y-0.8311
T2
X0.8937Y-1.7812
X1.0813Y-2.5312
X1.2688Y-1.0312
X1.2937Y-1.7812
X1.4563Y-3.2812
X1.4812Y-2.5312
X1.6438Y-1.7812
X1.6687Y-1.0312
X1.8313Y-2.5312
X1.8562Y-3.2812
X2.0187Y-1.0312
X2.0437Y-1.7812
X2.1125Y-4.0312
X2.2062Y-3.2812
X2.2312Y-2.5312
X2.3937Y-1.7812
X2.4187Y-1.0312
X2.5125Y-4.0312
X2.5812Y-2.5312
X2.6062Y-3.2812
X2.7687Y-1.0312
X2.7937Y-1.7812
X2.9562Y-3.2812
X2.9812Y-2.5312
X3.1437Y-1.7812
X3.1687Y-1.0312
X3.3312Y-2.5312
X3.3562Y-3.2812
X3.5187Y-1.0312
X3.5437Y-1.7812
X3.6125Y-4.0312
X3.7062Y-3.2812
X3.7312Y-2.5312
X3.8937Y-1.7812
X3.9187Y-1.0312
X4.0125Y-4.0312
X4.0812Y-2.5312
X4.1063Y-3.2812
X4.2687Y-1.0312
X4.2938Y-1.7812
X4.4562Y-3.2812
X4.4813Y-2.5312
X4.55Y-4.0312
X4.6437Y-1.7812
X4.6688Y-1.0312
X4.8312Y-2.5312
X4.8563Y-3.2812
X4.95Y-4.0312
X5.0187Y-1.0312
X5.0438Y-1.7812
X5.2313Y-2.5312
X5.3937Y-1.7812
X5.4188Y-1.0312
X5.4875Y-4.0312
X5.7938Y-1.7812
X5.8625Y-3.2812
X5.8875Y-4.0312
X6.05Y-2.5312
X6.1437Y-1.0312
X6.2625Y-3.2812
X6.3312Y-1.7812
X6.425Y-4.0312
X6.45Y-2.5312
X6.5438Y-1.0312
X6.7313Y-1.7812
X6.825Y-4.0312
T3
X1.8438Y-3.7563
X2.7812Y-3.7563
X5.5938Y-3.0063
X5.7812Y-2.2563
X5.875Y-0.7562
X6.5312Y-3.0063
X6.7188Y-2.2563
X6.8125Y-0.7562
T4
X1.0938Y-1.7812
X1.2812Y-2.5312
X1.4688Y-1.0312
X1.6562Y-3.2812
X1.8438Y-1.7812
X1.8438Y-4.3563
X2.0312Y-2.5312
X2.2188Y-1.0312
X2.3125Y-4.0312
X2.4062Y-3.2812
X2.5938Y-1.7812
X2.7812Y-2.5312
X2.7812Y-4.3563
X2.9688Y-1.0312
X3.1562Y-3.2812
X3.3438Y-1.7812
X3.5312Y-2.5312
X3.7188Y-1.0312
X3.8125Y-4.0312
X3.9062Y-3.2812
X4.0938Y-1.7812
X4.2812Y-2.5312
X4.4688Y-1.0312
X4.6562Y-3.2812
X4.75Y-4.0312
X4.8438Y-1.7812
X5.0312Y-2.5312
X5.2188Y-1.0312
X5.5938Y-1.7812
X5.5938Y-3.6062
X5.6875Y-4.0312
X5.7812Y-2.8562
X5.875Y-1.3562
X6.0625Y-3.2812
X6.25Y-2.5312
X6.3438Y-1.0312
X6.5312Y-1.7812
X6.5312Y-3.6062
X6.625Y-4.0312
X6.7188Y-2.8562
X6.8125Y-1.3562
T0
M30
