%TF.GenerationSoftware,KiCad,Pcbnew,(5.1.10-1-10_14)*%
%TF.CreationDate,2022-06-17T19:42:32+09:00*%
%TF.ProjectId,pcb-right,7063622d-7269-4676-9874-2e6b69636164,rev?*%
%TF.SameCoordinates,Original*%
%TF.FileFunction,Soldermask,Bot*%
%TF.FilePolarity,Negative*%
%FSLAX46Y46*%
G04 Gerber Fmt 4.6, Leading zero omitted, Abs format (unit mm)*
G04 Created by KiCad (PCBNEW (5.1.10-1-10_14)) date 2022-06-17 19:42:32*
%MOMM*%
%LPD*%
G01*
G04 APERTURE LIST*
%ADD10C,0.150000*%
%ADD11C,0.100000*%
%ADD12C,2.250000*%
%ADD13C,3.987800*%
%ADD14C,1.750000*%
%ADD15C,3.048000*%
%ADD16R,1.200000X1.400000*%
%ADD17C,0.750000*%
%ADD18O,1.100000X2.200000*%
%ADD19O,1.100000X1.700000*%
%ADD20R,1.500000X0.550000*%
%ADD21R,0.550000X1.500000*%
%ADD22R,1.100000X1.800000*%
%ADD23R,1.200000X0.900000*%
G04 APERTURE END LIST*
D10*
X149684226Y-67079761D02*
X149541369Y-67127380D01*
X149303273Y-67127380D01*
X149208035Y-67079761D01*
X149160416Y-67032142D01*
X149112797Y-66936904D01*
X149112797Y-66841666D01*
X149160416Y-66746428D01*
X149208035Y-66698809D01*
X149303273Y-66651190D01*
X149493750Y-66603571D01*
X149588988Y-66555952D01*
X149636607Y-66508333D01*
X149684226Y-66413095D01*
X149684226Y-66317857D01*
X149636607Y-66222619D01*
X149588988Y-66175000D01*
X149493750Y-66127380D01*
X149255654Y-66127380D01*
X149112797Y-66175000D01*
X148684226Y-66460714D02*
X148684226Y-67460714D01*
X148684226Y-66508333D02*
X148588988Y-66460714D01*
X148398511Y-66460714D01*
X148303273Y-66508333D01*
X148255654Y-66555952D01*
X148208035Y-66651190D01*
X148208035Y-66936904D01*
X148255654Y-67032142D01*
X148303273Y-67079761D01*
X148398511Y-67127380D01*
X148588988Y-67127380D01*
X148684226Y-67079761D01*
X147636607Y-67127380D02*
X147731845Y-67079761D01*
X147779464Y-66984523D01*
X147779464Y-66127380D01*
X147255654Y-67127380D02*
X147255654Y-66460714D01*
X147255654Y-66127380D02*
X147303273Y-66175000D01*
X147255654Y-66222619D01*
X147208035Y-66175000D01*
X147255654Y-66127380D01*
X147255654Y-66222619D01*
X146922321Y-66460714D02*
X146541369Y-66460714D01*
X146779464Y-66127380D02*
X146779464Y-66984523D01*
X146731845Y-67079761D01*
X146636607Y-67127380D01*
X146541369Y-67127380D01*
X145779464Y-66127380D02*
X145969940Y-66127380D01*
X146065178Y-66175000D01*
X146112797Y-66222619D01*
X146208035Y-66365476D01*
X146255654Y-66555952D01*
X146255654Y-66936904D01*
X146208035Y-67032142D01*
X146160416Y-67079761D01*
X146065178Y-67127380D01*
X145874702Y-67127380D01*
X145779464Y-67079761D01*
X145731845Y-67032142D01*
X145684226Y-66936904D01*
X145684226Y-66698809D01*
X145731845Y-66603571D01*
X145779464Y-66555952D01*
X145874702Y-66508333D01*
X146065178Y-66508333D01*
X146160416Y-66555952D01*
X146208035Y-66603571D01*
X146255654Y-66698809D01*
X145065178Y-66127380D02*
X144969940Y-66127380D01*
X144874702Y-66175000D01*
X144827083Y-66222619D01*
X144779464Y-66317857D01*
X144731845Y-66508333D01*
X144731845Y-66746428D01*
X144779464Y-66936904D01*
X144827083Y-67032142D01*
X144874702Y-67079761D01*
X144969940Y-67127380D01*
X145065178Y-67127380D01*
X145160416Y-67079761D01*
X145208035Y-67032142D01*
X145255654Y-66936904D01*
X145303273Y-66746428D01*
X145303273Y-66508333D01*
X145255654Y-66317857D01*
X145208035Y-66222619D01*
X145160416Y-66175000D01*
X145065178Y-66127380D01*
X143541369Y-67127380D02*
X143541369Y-66127380D01*
X143541369Y-66508333D02*
X143446130Y-66460714D01*
X143255654Y-66460714D01*
X143160416Y-66508333D01*
X143112797Y-66555952D01*
X143065178Y-66651190D01*
X143065178Y-66936904D01*
X143112797Y-67032142D01*
X143160416Y-67079761D01*
X143255654Y-67127380D01*
X143446130Y-67127380D01*
X143541369Y-67079761D01*
X142731845Y-66460714D02*
X142493750Y-67127380D01*
X142255654Y-66460714D02*
X142493750Y-67127380D01*
X142588988Y-67365476D01*
X142636607Y-67413095D01*
X142731845Y-67460714D01*
X141112797Y-67127380D02*
X141112797Y-66127380D01*
X141112797Y-66603571D02*
X140541369Y-66603571D01*
X140541369Y-67127380D02*
X140541369Y-66127380D01*
X139636607Y-66460714D02*
X139636607Y-67127380D01*
X140065178Y-66460714D02*
X140065178Y-66984523D01*
X140017559Y-67079761D01*
X139922321Y-67127380D01*
X139779464Y-67127380D01*
X139684226Y-67079761D01*
X139636607Y-67032142D01*
X139208035Y-67079761D02*
X139112797Y-67127380D01*
X138922321Y-67127380D01*
X138827083Y-67079761D01*
X138779464Y-66984523D01*
X138779464Y-66936904D01*
X138827083Y-66841666D01*
X138922321Y-66794047D01*
X139065178Y-66794047D01*
X139160416Y-66746428D01*
X139208035Y-66651190D01*
X139208035Y-66603571D01*
X139160416Y-66508333D01*
X139065178Y-66460714D01*
X138922321Y-66460714D01*
X138827083Y-66508333D01*
X138350892Y-67127380D02*
X138350892Y-66127380D01*
X138255654Y-66746428D02*
X137969940Y-67127380D01*
X137969940Y-66460714D02*
X138350892Y-66841666D01*
X137160416Y-67079761D02*
X137255654Y-67127380D01*
X137446130Y-67127380D01*
X137541369Y-67079761D01*
X137588988Y-66984523D01*
X137588988Y-66603571D01*
X137541369Y-66508333D01*
X137446130Y-66460714D01*
X137255654Y-66460714D01*
X137160416Y-66508333D01*
X137112797Y-66603571D01*
X137112797Y-66698809D01*
X137588988Y-66794047D01*
X136779464Y-66460714D02*
X136541369Y-67127380D01*
X136303273Y-66460714D02*
X136541369Y-67127380D01*
X136636607Y-67365476D01*
X136684226Y-67413095D01*
X136779464Y-67460714D01*
X135922321Y-67127380D02*
X135922321Y-66127380D01*
X135922321Y-66508333D02*
X135827083Y-66460714D01*
X135636607Y-66460714D01*
X135541369Y-66508333D01*
X135493750Y-66555952D01*
X135446130Y-66651190D01*
X135446130Y-66936904D01*
X135493750Y-67032142D01*
X135541369Y-67079761D01*
X135636607Y-67127380D01*
X135827083Y-67127380D01*
X135922321Y-67079761D01*
X134874702Y-67127380D02*
X134969940Y-67079761D01*
X135017559Y-67032142D01*
X135065178Y-66936904D01*
X135065178Y-66651190D01*
X135017559Y-66555952D01*
X134969940Y-66508333D01*
X134874702Y-66460714D01*
X134731845Y-66460714D01*
X134636607Y-66508333D01*
X134588988Y-66555952D01*
X134541369Y-66651190D01*
X134541369Y-66936904D01*
X134588988Y-67032142D01*
X134636607Y-67079761D01*
X134731845Y-67127380D01*
X134874702Y-67127380D01*
X133684226Y-67127380D02*
X133684226Y-66603571D01*
X133731845Y-66508333D01*
X133827083Y-66460714D01*
X134017559Y-66460714D01*
X134112797Y-66508333D01*
X133684226Y-67079761D02*
X133779464Y-67127380D01*
X134017559Y-67127380D01*
X134112797Y-67079761D01*
X134160416Y-66984523D01*
X134160416Y-66889285D01*
X134112797Y-66794047D01*
X134017559Y-66746428D01*
X133779464Y-66746428D01*
X133684226Y-66698809D01*
X133208035Y-67127380D02*
X133208035Y-66460714D01*
X133208035Y-66651190D02*
X133160416Y-66555952D01*
X133112797Y-66508333D01*
X133017559Y-66460714D01*
X132922321Y-66460714D01*
X132160416Y-67127380D02*
X132160416Y-66127380D01*
X132160416Y-67079761D02*
X132255654Y-67127380D01*
X132446130Y-67127380D01*
X132541369Y-67079761D01*
X132588988Y-67032142D01*
X132636607Y-66936904D01*
X132636607Y-66651190D01*
X132588988Y-66555952D01*
X132541369Y-66508333D01*
X132446130Y-66460714D01*
X132255654Y-66460714D01*
X132160416Y-66508333D01*
X131731845Y-67079761D02*
X131636607Y-67127380D01*
X131446130Y-67127380D01*
X131350892Y-67079761D01*
X131303273Y-66984523D01*
X131303273Y-66936904D01*
X131350892Y-66841666D01*
X131446130Y-66794047D01*
X131588988Y-66794047D01*
X131684226Y-66746428D01*
X131731845Y-66651190D01*
X131731845Y-66603571D01*
X131684226Y-66508333D01*
X131588988Y-66460714D01*
X131446130Y-66460714D01*
X131350892Y-66508333D01*
D11*
G36*
X142875000Y-57150000D02*
G01*
X144462500Y-57150000D01*
X144462500Y-58737500D01*
X142875000Y-58737500D01*
X142875000Y-64293750D01*
X144462500Y-64293750D01*
X144462500Y-65881250D01*
X141287500Y-65881250D01*
X141287500Y-62706250D01*
X138112500Y-62706250D01*
X138112500Y-64293750D01*
X139700000Y-64293750D01*
X139700000Y-65881250D01*
X136525000Y-65881250D01*
X136525000Y-58737500D01*
X134937500Y-58737500D01*
X134937500Y-57150000D01*
X138112500Y-57150000D01*
X138112500Y-60325000D01*
X141287500Y-60325000D01*
X141287500Y-57150000D01*
X142875000Y-55562500D01*
X142875000Y-57150000D01*
G37*
X142875000Y-57150000D02*
X144462500Y-57150000D01*
X144462500Y-58737500D01*
X142875000Y-58737500D01*
X142875000Y-64293750D01*
X144462500Y-64293750D01*
X144462500Y-65881250D01*
X141287500Y-65881250D01*
X141287500Y-62706250D01*
X138112500Y-62706250D01*
X138112500Y-64293750D01*
X139700000Y-64293750D01*
X139700000Y-65881250D01*
X136525000Y-65881250D01*
X136525000Y-58737500D01*
X134937500Y-58737500D01*
X134937500Y-57150000D01*
X138112500Y-57150000D01*
X138112500Y-60325000D01*
X141287500Y-60325000D01*
X141287500Y-57150000D01*
X142875000Y-55562500D01*
X142875000Y-57150000D01*
D12*
%TO.C,MX25*%
X123190000Y-97313750D03*
D13*
X120650000Y-102393750D03*
D12*
X116840000Y-99853750D03*
D14*
X115570000Y-102393750D03*
X125730000Y-102393750D03*
%TD*%
D12*
%TO.C,MX23*%
X130333750Y-59213750D03*
D13*
X127793750Y-64293750D03*
D12*
X123983750Y-61753750D03*
D14*
X122713750Y-64293750D03*
X132873750Y-64293750D03*
%TD*%
%TO.C,C7*%
G36*
G01*
X81796000Y-110965000D02*
X81796000Y-110015000D01*
G75*
G02*
X82046000Y-109765000I250000J0D01*
G01*
X82546000Y-109765000D01*
G75*
G02*
X82796000Y-110015000I0J-250000D01*
G01*
X82796000Y-110965000D01*
G75*
G02*
X82546000Y-111215000I-250000J0D01*
G01*
X82046000Y-111215000D01*
G75*
G02*
X81796000Y-110965000I0J250000D01*
G01*
G37*
G36*
G01*
X79896000Y-110965000D02*
X79896000Y-110015000D01*
G75*
G02*
X80146000Y-109765000I250000J0D01*
G01*
X80646000Y-109765000D01*
G75*
G02*
X80896000Y-110015000I0J-250000D01*
G01*
X80896000Y-110965000D01*
G75*
G02*
X80646000Y-111215000I-250000J0D01*
G01*
X80146000Y-111215000D01*
G75*
G02*
X79896000Y-110965000I0J250000D01*
G01*
G37*
%TD*%
%TO.C,R8*%
G36*
G01*
X83523500Y-92513999D02*
X83523500Y-93414001D01*
G75*
G02*
X83273501Y-93664000I-249999J0D01*
G01*
X82748499Y-93664000D01*
G75*
G02*
X82498500Y-93414001I0J249999D01*
G01*
X82498500Y-92513999D01*
G75*
G02*
X82748499Y-92264000I249999J0D01*
G01*
X83273501Y-92264000D01*
G75*
G02*
X83523500Y-92513999I0J-249999D01*
G01*
G37*
G36*
G01*
X85348500Y-92513999D02*
X85348500Y-93414001D01*
G75*
G02*
X85098501Y-93664000I-249999J0D01*
G01*
X84573499Y-93664000D01*
G75*
G02*
X84323500Y-93414001I0J249999D01*
G01*
X84323500Y-92513999D01*
G75*
G02*
X84573499Y-92264000I249999J0D01*
G01*
X85098501Y-92264000D01*
G75*
G02*
X85348500Y-92513999I0J-249999D01*
G01*
G37*
%TD*%
D12*
%TO.C,MX32*%
X156527500Y-78263750D03*
D13*
X153987500Y-83343750D03*
D12*
X150177500Y-80803750D03*
D14*
X148907500Y-83343750D03*
X159067500Y-83343750D03*
D15*
X142081250Y-76358750D03*
X165893750Y-76358750D03*
D13*
X142081250Y-91598750D03*
X165893750Y-91598750D03*
%TD*%
D12*
%TO.C,MX33*%
X170815000Y-97313750D03*
D13*
X168275000Y-102393750D03*
D12*
X164465000Y-99853750D03*
D14*
X163195000Y-102393750D03*
X173355000Y-102393750D03*
%TD*%
D12*
%TO.C,MX28*%
X147002500Y-97313750D03*
D13*
X144462500Y-102393750D03*
D12*
X140652500Y-99853750D03*
D14*
X139382500Y-102393750D03*
X149542500Y-102393750D03*
%TD*%
D12*
%TO.C,MX20*%
X99377500Y-97313750D03*
D13*
X96837500Y-102393750D03*
D12*
X93027500Y-99853750D03*
D14*
X91757500Y-102393750D03*
X101917500Y-102393750D03*
%TD*%
D16*
%TO.C,Y1*%
X68277000Y-101600000D03*
X68277000Y-103800000D03*
X69977000Y-103800000D03*
X69977000Y-101600000D03*
%TD*%
%TO.C,USB2*%
G36*
G01*
X49230000Y-23279000D02*
X49230000Y-21829000D01*
G75*
G02*
X49280000Y-21779000I50000J0D01*
G01*
X49880000Y-21779000D01*
G75*
G02*
X49930000Y-21829000I0J-50000D01*
G01*
X49930000Y-23279000D01*
G75*
G02*
X49880000Y-23329000I-50000J0D01*
G01*
X49280000Y-23329000D01*
G75*
G02*
X49230000Y-23279000I0J50000D01*
G01*
G37*
G36*
G01*
X42780000Y-23279000D02*
X42780000Y-21829000D01*
G75*
G02*
X42830000Y-21779000I50000J0D01*
G01*
X43430000Y-21779000D01*
G75*
G02*
X43480000Y-21829000I0J-50000D01*
G01*
X43480000Y-23279000D01*
G75*
G02*
X43430000Y-23329000I-50000J0D01*
G01*
X42830000Y-23329000D01*
G75*
G02*
X42780000Y-23279000I0J50000D01*
G01*
G37*
G36*
G01*
X48455000Y-23279000D02*
X48455000Y-21829000D01*
G75*
G02*
X48505000Y-21779000I50000J0D01*
G01*
X49105000Y-21779000D01*
G75*
G02*
X49155000Y-21829000I0J-50000D01*
G01*
X49155000Y-23279000D01*
G75*
G02*
X49105000Y-23329000I-50000J0D01*
G01*
X48505000Y-23329000D01*
G75*
G02*
X48455000Y-23279000I0J50000D01*
G01*
G37*
G36*
G01*
X43555000Y-23279000D02*
X43555000Y-21829000D01*
G75*
G02*
X43605000Y-21779000I50000J0D01*
G01*
X44205000Y-21779000D01*
G75*
G02*
X44255000Y-21829000I0J-50000D01*
G01*
X44255000Y-23279000D01*
G75*
G02*
X44205000Y-23329000I-50000J0D01*
G01*
X43605000Y-23329000D01*
G75*
G02*
X43555000Y-23279000I0J50000D01*
G01*
G37*
G36*
G01*
X44405000Y-23279000D02*
X44405000Y-21829000D01*
G75*
G02*
X44455000Y-21779000I50000J0D01*
G01*
X44755000Y-21779000D01*
G75*
G02*
X44805000Y-21829000I0J-50000D01*
G01*
X44805000Y-23279000D01*
G75*
G02*
X44755000Y-23329000I-50000J0D01*
G01*
X44455000Y-23329000D01*
G75*
G02*
X44405000Y-23279000I0J50000D01*
G01*
G37*
G36*
G01*
X47905000Y-23279000D02*
X47905000Y-21829000D01*
G75*
G02*
X47955000Y-21779000I50000J0D01*
G01*
X48255000Y-21779000D01*
G75*
G02*
X48305000Y-21829000I0J-50000D01*
G01*
X48305000Y-23279000D01*
G75*
G02*
X48255000Y-23329000I-50000J0D01*
G01*
X47955000Y-23329000D01*
G75*
G02*
X47905000Y-23279000I0J50000D01*
G01*
G37*
G36*
G01*
X44905000Y-23279000D02*
X44905000Y-21829000D01*
G75*
G02*
X44955000Y-21779000I50000J0D01*
G01*
X45255000Y-21779000D01*
G75*
G02*
X45305000Y-21829000I0J-50000D01*
G01*
X45305000Y-23279000D01*
G75*
G02*
X45255000Y-23329000I-50000J0D01*
G01*
X44955000Y-23329000D01*
G75*
G02*
X44905000Y-23279000I0J50000D01*
G01*
G37*
G36*
G01*
X47405000Y-23279000D02*
X47405000Y-21829000D01*
G75*
G02*
X47455000Y-21779000I50000J0D01*
G01*
X47755000Y-21779000D01*
G75*
G02*
X47805000Y-21829000I0J-50000D01*
G01*
X47805000Y-23279000D01*
G75*
G02*
X47755000Y-23329000I-50000J0D01*
G01*
X47455000Y-23329000D01*
G75*
G02*
X47405000Y-23279000I0J50000D01*
G01*
G37*
G36*
G01*
X45405000Y-23279000D02*
X45405000Y-21829000D01*
G75*
G02*
X45455000Y-21779000I50000J0D01*
G01*
X45755000Y-21779000D01*
G75*
G02*
X45805000Y-21829000I0J-50000D01*
G01*
X45805000Y-23279000D01*
G75*
G02*
X45755000Y-23329000I-50000J0D01*
G01*
X45455000Y-23329000D01*
G75*
G02*
X45405000Y-23279000I0J50000D01*
G01*
G37*
G36*
G01*
X46905000Y-23279000D02*
X46905000Y-21829000D01*
G75*
G02*
X46955000Y-21779000I50000J0D01*
G01*
X47255000Y-21779000D01*
G75*
G02*
X47305000Y-21829000I0J-50000D01*
G01*
X47305000Y-23279000D01*
G75*
G02*
X47255000Y-23329000I-50000J0D01*
G01*
X46955000Y-23329000D01*
G75*
G02*
X46905000Y-23279000I0J50000D01*
G01*
G37*
G36*
G01*
X46405000Y-23279000D02*
X46405000Y-21829000D01*
G75*
G02*
X46455000Y-21779000I50000J0D01*
G01*
X46755000Y-21779000D01*
G75*
G02*
X46805000Y-21829000I0J-50000D01*
G01*
X46805000Y-23279000D01*
G75*
G02*
X46755000Y-23329000I-50000J0D01*
G01*
X46455000Y-23329000D01*
G75*
G02*
X46405000Y-23279000I0J50000D01*
G01*
G37*
G36*
G01*
X45905000Y-23279000D02*
X45905000Y-21829000D01*
G75*
G02*
X45955000Y-21779000I50000J0D01*
G01*
X46255000Y-21779000D01*
G75*
G02*
X46305000Y-21829000I0J-50000D01*
G01*
X46305000Y-23279000D01*
G75*
G02*
X46255000Y-23329000I-50000J0D01*
G01*
X45955000Y-23329000D01*
G75*
G02*
X45905000Y-23279000I0J50000D01*
G01*
G37*
D17*
X49245000Y-21109000D03*
X43465000Y-21109000D03*
D18*
X42035000Y-21639000D03*
X50675000Y-21639000D03*
D19*
X42035000Y-17459000D03*
X50675000Y-17459000D03*
%TD*%
%TO.C,USB1*%
G36*
G01*
X144861000Y-23279000D02*
X144861000Y-21829000D01*
G75*
G02*
X144911000Y-21779000I50000J0D01*
G01*
X145511000Y-21779000D01*
G75*
G02*
X145561000Y-21829000I0J-50000D01*
G01*
X145561000Y-23279000D01*
G75*
G02*
X145511000Y-23329000I-50000J0D01*
G01*
X144911000Y-23329000D01*
G75*
G02*
X144861000Y-23279000I0J50000D01*
G01*
G37*
G36*
G01*
X138411000Y-23279000D02*
X138411000Y-21829000D01*
G75*
G02*
X138461000Y-21779000I50000J0D01*
G01*
X139061000Y-21779000D01*
G75*
G02*
X139111000Y-21829000I0J-50000D01*
G01*
X139111000Y-23279000D01*
G75*
G02*
X139061000Y-23329000I-50000J0D01*
G01*
X138461000Y-23329000D01*
G75*
G02*
X138411000Y-23279000I0J50000D01*
G01*
G37*
G36*
G01*
X144086000Y-23279000D02*
X144086000Y-21829000D01*
G75*
G02*
X144136000Y-21779000I50000J0D01*
G01*
X144736000Y-21779000D01*
G75*
G02*
X144786000Y-21829000I0J-50000D01*
G01*
X144786000Y-23279000D01*
G75*
G02*
X144736000Y-23329000I-50000J0D01*
G01*
X144136000Y-23329000D01*
G75*
G02*
X144086000Y-23279000I0J50000D01*
G01*
G37*
G36*
G01*
X139186000Y-23279000D02*
X139186000Y-21829000D01*
G75*
G02*
X139236000Y-21779000I50000J0D01*
G01*
X139836000Y-21779000D01*
G75*
G02*
X139886000Y-21829000I0J-50000D01*
G01*
X139886000Y-23279000D01*
G75*
G02*
X139836000Y-23329000I-50000J0D01*
G01*
X139236000Y-23329000D01*
G75*
G02*
X139186000Y-23279000I0J50000D01*
G01*
G37*
G36*
G01*
X140036000Y-23279000D02*
X140036000Y-21829000D01*
G75*
G02*
X140086000Y-21779000I50000J0D01*
G01*
X140386000Y-21779000D01*
G75*
G02*
X140436000Y-21829000I0J-50000D01*
G01*
X140436000Y-23279000D01*
G75*
G02*
X140386000Y-23329000I-50000J0D01*
G01*
X140086000Y-23329000D01*
G75*
G02*
X140036000Y-23279000I0J50000D01*
G01*
G37*
G36*
G01*
X143536000Y-23279000D02*
X143536000Y-21829000D01*
G75*
G02*
X143586000Y-21779000I50000J0D01*
G01*
X143886000Y-21779000D01*
G75*
G02*
X143936000Y-21829000I0J-50000D01*
G01*
X143936000Y-23279000D01*
G75*
G02*
X143886000Y-23329000I-50000J0D01*
G01*
X143586000Y-23329000D01*
G75*
G02*
X143536000Y-23279000I0J50000D01*
G01*
G37*
G36*
G01*
X140536000Y-23279000D02*
X140536000Y-21829000D01*
G75*
G02*
X140586000Y-21779000I50000J0D01*
G01*
X140886000Y-21779000D01*
G75*
G02*
X140936000Y-21829000I0J-50000D01*
G01*
X140936000Y-23279000D01*
G75*
G02*
X140886000Y-23329000I-50000J0D01*
G01*
X140586000Y-23329000D01*
G75*
G02*
X140536000Y-23279000I0J50000D01*
G01*
G37*
G36*
G01*
X143036000Y-23279000D02*
X143036000Y-21829000D01*
G75*
G02*
X143086000Y-21779000I50000J0D01*
G01*
X143386000Y-21779000D01*
G75*
G02*
X143436000Y-21829000I0J-50000D01*
G01*
X143436000Y-23279000D01*
G75*
G02*
X143386000Y-23329000I-50000J0D01*
G01*
X143086000Y-23329000D01*
G75*
G02*
X143036000Y-23279000I0J50000D01*
G01*
G37*
G36*
G01*
X141036000Y-23279000D02*
X141036000Y-21829000D01*
G75*
G02*
X141086000Y-21779000I50000J0D01*
G01*
X141386000Y-21779000D01*
G75*
G02*
X141436000Y-21829000I0J-50000D01*
G01*
X141436000Y-23279000D01*
G75*
G02*
X141386000Y-23329000I-50000J0D01*
G01*
X141086000Y-23329000D01*
G75*
G02*
X141036000Y-23279000I0J50000D01*
G01*
G37*
G36*
G01*
X142536000Y-23279000D02*
X142536000Y-21829000D01*
G75*
G02*
X142586000Y-21779000I50000J0D01*
G01*
X142886000Y-21779000D01*
G75*
G02*
X142936000Y-21829000I0J-50000D01*
G01*
X142936000Y-23279000D01*
G75*
G02*
X142886000Y-23329000I-50000J0D01*
G01*
X142586000Y-23329000D01*
G75*
G02*
X142536000Y-23279000I0J50000D01*
G01*
G37*
G36*
G01*
X142036000Y-23279000D02*
X142036000Y-21829000D01*
G75*
G02*
X142086000Y-21779000I50000J0D01*
G01*
X142386000Y-21779000D01*
G75*
G02*
X142436000Y-21829000I0J-50000D01*
G01*
X142436000Y-23279000D01*
G75*
G02*
X142386000Y-23329000I-50000J0D01*
G01*
X142086000Y-23329000D01*
G75*
G02*
X142036000Y-23279000I0J50000D01*
G01*
G37*
G36*
G01*
X141536000Y-23279000D02*
X141536000Y-21829000D01*
G75*
G02*
X141586000Y-21779000I50000J0D01*
G01*
X141886000Y-21779000D01*
G75*
G02*
X141936000Y-21829000I0J-50000D01*
G01*
X141936000Y-23279000D01*
G75*
G02*
X141886000Y-23329000I-50000J0D01*
G01*
X141586000Y-23329000D01*
G75*
G02*
X141536000Y-23279000I0J50000D01*
G01*
G37*
D17*
X144876000Y-21109000D03*
X139096000Y-21109000D03*
D18*
X137666000Y-21639000D03*
X146306000Y-21639000D03*
D19*
X137666000Y-17459000D03*
X146306000Y-17459000D03*
%TD*%
D20*
%TO.C,U1*%
X86662500Y-106393750D03*
X86662500Y-105593750D03*
X86662500Y-104793750D03*
X86662500Y-103993750D03*
X86662500Y-103193750D03*
X86662500Y-102393750D03*
X86662500Y-101593750D03*
X86662500Y-100793750D03*
X86662500Y-99993750D03*
X86662500Y-99193750D03*
X86662500Y-98393750D03*
D21*
X84962500Y-96693750D03*
X84162500Y-96693750D03*
X83362500Y-96693750D03*
X82562500Y-96693750D03*
X81762500Y-96693750D03*
X80962500Y-96693750D03*
X80162500Y-96693750D03*
X79362500Y-96693750D03*
X78562500Y-96693750D03*
X77762500Y-96693750D03*
X76962500Y-96693750D03*
D20*
X75262500Y-98393750D03*
X75262500Y-99193750D03*
X75262500Y-99993750D03*
X75262500Y-100793750D03*
X75262500Y-101593750D03*
X75262500Y-102393750D03*
X75262500Y-103193750D03*
X75262500Y-103993750D03*
X75262500Y-104793750D03*
X75262500Y-105593750D03*
X75262500Y-106393750D03*
D21*
X76962500Y-108093750D03*
X77762500Y-108093750D03*
X78562500Y-108093750D03*
X79362500Y-108093750D03*
X80162500Y-108093750D03*
X80962500Y-108093750D03*
X81762500Y-108093750D03*
X82562500Y-108093750D03*
X83362500Y-108093750D03*
X84162500Y-108093750D03*
X84962500Y-108093750D03*
%TD*%
D22*
%TO.C,SW1*%
X42473000Y-105970000D03*
X46173000Y-99770000D03*
X46173000Y-105970000D03*
X42473000Y-99770000D03*
%TD*%
%TO.C,R7*%
G36*
G01*
X65108500Y-106483999D02*
X65108500Y-107384001D01*
G75*
G02*
X64858501Y-107634000I-249999J0D01*
G01*
X64333499Y-107634000D01*
G75*
G02*
X64083500Y-107384001I0J249999D01*
G01*
X64083500Y-106483999D01*
G75*
G02*
X64333499Y-106234000I249999J0D01*
G01*
X64858501Y-106234000D01*
G75*
G02*
X65108500Y-106483999I0J-249999D01*
G01*
G37*
G36*
G01*
X66933500Y-106483999D02*
X66933500Y-107384001D01*
G75*
G02*
X66683501Y-107634000I-249999J0D01*
G01*
X66158499Y-107634000D01*
G75*
G02*
X65908500Y-107384001I0J249999D01*
G01*
X65908500Y-106483999D01*
G75*
G02*
X66158499Y-106234000I249999J0D01*
G01*
X66683501Y-106234000D01*
G75*
G02*
X66933500Y-106483999I0J-249999D01*
G01*
G37*
%TD*%
%TO.C,R6*%
G36*
G01*
X143579001Y-27817500D02*
X142678999Y-27817500D01*
G75*
G02*
X142429000Y-27567501I0J249999D01*
G01*
X142429000Y-27042499D01*
G75*
G02*
X142678999Y-26792500I249999J0D01*
G01*
X143579001Y-26792500D01*
G75*
G02*
X143829000Y-27042499I0J-249999D01*
G01*
X143829000Y-27567501D01*
G75*
G02*
X143579001Y-27817500I-249999J0D01*
G01*
G37*
G36*
G01*
X143579001Y-29642500D02*
X142678999Y-29642500D01*
G75*
G02*
X142429000Y-29392501I0J249999D01*
G01*
X142429000Y-28867499D01*
G75*
G02*
X142678999Y-28617500I249999J0D01*
G01*
X143579001Y-28617500D01*
G75*
G02*
X143829000Y-28867499I0J-249999D01*
G01*
X143829000Y-29392501D01*
G75*
G02*
X143579001Y-29642500I-249999J0D01*
G01*
G37*
%TD*%
%TO.C,R5*%
G36*
G01*
X141547001Y-27817500D02*
X140646999Y-27817500D01*
G75*
G02*
X140397000Y-27567501I0J249999D01*
G01*
X140397000Y-27042499D01*
G75*
G02*
X140646999Y-26792500I249999J0D01*
G01*
X141547001Y-26792500D01*
G75*
G02*
X141797000Y-27042499I0J-249999D01*
G01*
X141797000Y-27567501D01*
G75*
G02*
X141547001Y-27817500I-249999J0D01*
G01*
G37*
G36*
G01*
X141547001Y-29642500D02*
X140646999Y-29642500D01*
G75*
G02*
X140397000Y-29392501I0J249999D01*
G01*
X140397000Y-28867499D01*
G75*
G02*
X140646999Y-28617500I249999J0D01*
G01*
X141547001Y-28617500D01*
G75*
G02*
X141797000Y-28867499I0J-249999D01*
G01*
X141797000Y-29392501D01*
G75*
G02*
X141547001Y-29642500I-249999J0D01*
G01*
G37*
%TD*%
%TO.C,R2*%
G36*
G01*
X144102500Y-25076999D02*
X144102500Y-25977001D01*
G75*
G02*
X143852501Y-26227000I-249999J0D01*
G01*
X143327499Y-26227000D01*
G75*
G02*
X143077500Y-25977001I0J249999D01*
G01*
X143077500Y-25076999D01*
G75*
G02*
X143327499Y-24827000I249999J0D01*
G01*
X143852501Y-24827000D01*
G75*
G02*
X144102500Y-25076999I0J-249999D01*
G01*
G37*
G36*
G01*
X145927500Y-25076999D02*
X145927500Y-25977001D01*
G75*
G02*
X145677501Y-26227000I-249999J0D01*
G01*
X145152499Y-26227000D01*
G75*
G02*
X144902500Y-25977001I0J249999D01*
G01*
X144902500Y-25076999D01*
G75*
G02*
X145152499Y-24827000I249999J0D01*
G01*
X145677501Y-24827000D01*
G75*
G02*
X145927500Y-25076999I0J-249999D01*
G01*
G37*
%TD*%
%TO.C,R1*%
G36*
G01*
X139869500Y-24961001D02*
X139869500Y-24060999D01*
G75*
G02*
X140119499Y-23811000I249999J0D01*
G01*
X140644501Y-23811000D01*
G75*
G02*
X140894500Y-24060999I0J-249999D01*
G01*
X140894500Y-24961001D01*
G75*
G02*
X140644501Y-25211000I-249999J0D01*
G01*
X140119499Y-25211000D01*
G75*
G02*
X139869500Y-24961001I0J249999D01*
G01*
G37*
G36*
G01*
X138044500Y-24961001D02*
X138044500Y-24060999D01*
G75*
G02*
X138294499Y-23811000I249999J0D01*
G01*
X138819501Y-23811000D01*
G75*
G02*
X139069500Y-24060999I0J-249999D01*
G01*
X139069500Y-24961001D01*
G75*
G02*
X138819501Y-25211000I-249999J0D01*
G01*
X138294499Y-25211000D01*
G75*
G02*
X138044500Y-24961001I0J249999D01*
G01*
G37*
%TD*%
D12*
%TO.C,MX31*%
X161290000Y-59213750D03*
D13*
X158750000Y-64293750D03*
D12*
X154940000Y-61753750D03*
D14*
X153670000Y-64293750D03*
X163830000Y-64293750D03*
D15*
X146843750Y-57308750D03*
X170656250Y-57308750D03*
D13*
X146843750Y-72548750D03*
X170656250Y-72548750D03*
%TD*%
D12*
%TO.C,MX30*%
X168433750Y-40163750D03*
D13*
X165893750Y-45243750D03*
D12*
X162083750Y-42703750D03*
D14*
X160813750Y-45243750D03*
X170973750Y-45243750D03*
%TD*%
D12*
%TO.C,MX29*%
X163671250Y-21113750D03*
D13*
X161131250Y-26193750D03*
D12*
X157321250Y-23653750D03*
D14*
X156051250Y-26193750D03*
X166211250Y-26193750D03*
D15*
X149225000Y-19208750D03*
X173037500Y-19208750D03*
D13*
X149225000Y-34448750D03*
X173037500Y-34448750D03*
%TD*%
D12*
%TO.C,MX27*%
X144621250Y-40163750D03*
D13*
X142081250Y-45243750D03*
D12*
X138271250Y-42703750D03*
D14*
X137001250Y-45243750D03*
X147161250Y-45243750D03*
%TD*%
D12*
%TO.C,MX26*%
X135096250Y-21113750D03*
D13*
X132556250Y-26193750D03*
D12*
X128746250Y-23653750D03*
D14*
X127476250Y-26193750D03*
X137636250Y-26193750D03*
%TD*%
D12*
%TO.C,MX24*%
X120808750Y-78263750D03*
D13*
X118268750Y-83343750D03*
D12*
X114458750Y-80803750D03*
D14*
X113188750Y-83343750D03*
X123348750Y-83343750D03*
%TD*%
D12*
%TO.C,MX22*%
X125571250Y-40163750D03*
D13*
X123031250Y-45243750D03*
D12*
X119221250Y-42703750D03*
D14*
X117951250Y-45243750D03*
X128111250Y-45243750D03*
%TD*%
D12*
%TO.C,MX21*%
X116046250Y-21113750D03*
D13*
X113506250Y-26193750D03*
D12*
X109696250Y-23653750D03*
D14*
X108426250Y-26193750D03*
X118586250Y-26193750D03*
%TD*%
D12*
%TO.C,MX19*%
X101758750Y-78263750D03*
D13*
X99218750Y-83343750D03*
D12*
X95408750Y-80803750D03*
D14*
X94138750Y-83343750D03*
X104298750Y-83343750D03*
%TD*%
D12*
%TO.C,MX18*%
X111283750Y-59213750D03*
D13*
X108743750Y-64293750D03*
D12*
X104933750Y-61753750D03*
D14*
X103663750Y-64293750D03*
X113823750Y-64293750D03*
%TD*%
D12*
%TO.C,MX17*%
X106521250Y-40163750D03*
D13*
X103981250Y-45243750D03*
D12*
X100171250Y-42703750D03*
D14*
X98901250Y-45243750D03*
X109061250Y-45243750D03*
%TD*%
D12*
%TO.C,MX16*%
X96996250Y-21113750D03*
D13*
X94456250Y-26193750D03*
D12*
X90646250Y-23653750D03*
D14*
X89376250Y-26193750D03*
X99536250Y-26193750D03*
%TD*%
D12*
%TO.C,MX15*%
X82708750Y-78263750D03*
D13*
X80168750Y-83343750D03*
D12*
X76358750Y-80803750D03*
D14*
X75088750Y-83343750D03*
X85248750Y-83343750D03*
%TD*%
D12*
%TO.C,MX14*%
X92233750Y-59213750D03*
D13*
X89693750Y-64293750D03*
D12*
X85883750Y-61753750D03*
D14*
X84613750Y-64293750D03*
X94773750Y-64293750D03*
%TD*%
D12*
%TO.C,MX13*%
X87471250Y-40163750D03*
D13*
X84931250Y-45243750D03*
D12*
X81121250Y-42703750D03*
D14*
X79851250Y-45243750D03*
X90011250Y-45243750D03*
%TD*%
D12*
%TO.C,MX12*%
X77946250Y-21113750D03*
D13*
X75406250Y-26193750D03*
D12*
X71596250Y-23653750D03*
D14*
X70326250Y-26193750D03*
X80486250Y-26193750D03*
%TD*%
D12*
%TO.C,MX11*%
X61277500Y-97313750D03*
D13*
X58737500Y-102393750D03*
D12*
X54927500Y-99853750D03*
D14*
X53657500Y-102393750D03*
X63817500Y-102393750D03*
D15*
X46831250Y-95408750D03*
X70643750Y-95408750D03*
D13*
X46831250Y-110648750D03*
X70643750Y-110648750D03*
%TD*%
D12*
%TO.C,MX10*%
X63658750Y-78263750D03*
D13*
X61118750Y-83343750D03*
D12*
X57308750Y-80803750D03*
D14*
X56038750Y-83343750D03*
X66198750Y-83343750D03*
%TD*%
D12*
%TO.C,MX9*%
X73183750Y-59213750D03*
D13*
X70643750Y-64293750D03*
D12*
X66833750Y-61753750D03*
D14*
X65563750Y-64293750D03*
X75723750Y-64293750D03*
%TD*%
D12*
%TO.C,MX8*%
X68421250Y-40163750D03*
D13*
X65881250Y-45243750D03*
D12*
X62071250Y-42703750D03*
D14*
X60801250Y-45243750D03*
X70961250Y-45243750D03*
%TD*%
D12*
%TO.C,MX7*%
X58896250Y-21113750D03*
D13*
X56356250Y-26193750D03*
D12*
X52546250Y-23653750D03*
D14*
X51276250Y-26193750D03*
X61436250Y-26193750D03*
%TD*%
D12*
%TO.C,MX6*%
X44608750Y-78263750D03*
D13*
X42068750Y-83343750D03*
D12*
X38258750Y-80803750D03*
D14*
X36988750Y-83343750D03*
X47148750Y-83343750D03*
%TD*%
D12*
%TO.C,MX5*%
X54133750Y-59213750D03*
D13*
X51593750Y-64293750D03*
D12*
X47783750Y-61753750D03*
D14*
X46513750Y-64293750D03*
X56673750Y-64293750D03*
%TD*%
D12*
%TO.C,MX4*%
X49371250Y-40163750D03*
D13*
X46831250Y-45243750D03*
D12*
X43021250Y-42703750D03*
D14*
X41751250Y-45243750D03*
X51911250Y-45243750D03*
%TD*%
D12*
%TO.C,MX3*%
X39846250Y-21113750D03*
D13*
X37306250Y-26193750D03*
D12*
X33496250Y-23653750D03*
D14*
X32226250Y-26193750D03*
X42386250Y-26193750D03*
%TD*%
D12*
%TO.C,MX2*%
X35083750Y-59213750D03*
D13*
X32543750Y-64293750D03*
D12*
X28733750Y-61753750D03*
D14*
X27463750Y-64293750D03*
X37623750Y-64293750D03*
%TD*%
D12*
%TO.C,MX1*%
X30321250Y-40163750D03*
D13*
X27781250Y-45243750D03*
D12*
X23971250Y-42703750D03*
D14*
X22701250Y-45243750D03*
X32861250Y-45243750D03*
%TD*%
D23*
%TO.C,D33*%
X170656250Y-105506250D03*
X170656250Y-108806250D03*
%TD*%
%TO.C,D32*%
X156368750Y-86456250D03*
X156368750Y-89756250D03*
%TD*%
%TO.C,D31*%
X161131250Y-67406250D03*
X161131250Y-70706250D03*
%TD*%
%TO.C,D30*%
X168275000Y-48356250D03*
X168275000Y-51656250D03*
%TD*%
%TO.C,D29*%
X163512500Y-29306250D03*
X163512500Y-32606250D03*
%TD*%
%TO.C,D28*%
X146843750Y-105506250D03*
X146843750Y-108806250D03*
%TD*%
%TO.C,D27*%
X144462500Y-48356250D03*
X144462500Y-51656250D03*
%TD*%
%TO.C,D26*%
X134937500Y-29306250D03*
X134937500Y-32606250D03*
%TD*%
%TO.C,D25*%
X123031250Y-105506250D03*
X123031250Y-108806250D03*
%TD*%
%TO.C,D24*%
X120650000Y-86456250D03*
X120650000Y-89756250D03*
%TD*%
%TO.C,D23*%
X130175000Y-67406250D03*
X130175000Y-70706250D03*
%TD*%
%TO.C,D22*%
X125412500Y-48356250D03*
X125412500Y-51656250D03*
%TD*%
%TO.C,D21*%
X115887500Y-29306250D03*
X115887500Y-32606250D03*
%TD*%
%TO.C,D20*%
X99218750Y-105506250D03*
X99218750Y-108806250D03*
%TD*%
%TO.C,D19*%
X101600000Y-86456250D03*
X101600000Y-89756250D03*
%TD*%
%TO.C,D18*%
X111125000Y-67406250D03*
X111125000Y-70706250D03*
%TD*%
%TO.C,D17*%
X106362500Y-48356250D03*
X106362500Y-51656250D03*
%TD*%
%TO.C,D16*%
X96837500Y-29306250D03*
X96837500Y-32606250D03*
%TD*%
%TO.C,D15*%
X82550000Y-86456250D03*
X82550000Y-89756250D03*
%TD*%
%TO.C,D14*%
X92075000Y-67406250D03*
X92075000Y-70706250D03*
%TD*%
%TO.C,D13*%
X87312500Y-48356250D03*
X87312500Y-51656250D03*
%TD*%
%TO.C,D12*%
X77787500Y-29306250D03*
X77787500Y-32606250D03*
%TD*%
%TO.C,D11*%
X61181250Y-105506250D03*
X61181250Y-108806250D03*
%TD*%
%TO.C,D10*%
X63500000Y-86456250D03*
X63500000Y-89756250D03*
%TD*%
%TO.C,D9*%
X73025000Y-67406250D03*
X73025000Y-70706250D03*
%TD*%
%TO.C,D8*%
X68262500Y-48356250D03*
X68262500Y-51656250D03*
%TD*%
%TO.C,D7*%
X58737500Y-29306250D03*
X58737500Y-32606250D03*
%TD*%
%TO.C,D6*%
X44450000Y-86456250D03*
X44450000Y-89756250D03*
%TD*%
%TO.C,D5*%
X53975000Y-67406250D03*
X53975000Y-70706250D03*
%TD*%
%TO.C,D4*%
X49212500Y-48356250D03*
X49212500Y-51656250D03*
%TD*%
%TO.C,D3*%
X39687500Y-29306250D03*
X39687500Y-32606250D03*
%TD*%
%TO.C,D2*%
X34925000Y-67406250D03*
X34925000Y-70706250D03*
%TD*%
%TO.C,D1*%
X30162500Y-48418750D03*
X30162500Y-51718750D03*
%TD*%
%TO.C,C6*%
G36*
G01*
X69538000Y-106393000D02*
X69538000Y-105443000D01*
G75*
G02*
X69788000Y-105193000I250000J0D01*
G01*
X70288000Y-105193000D01*
G75*
G02*
X70538000Y-105443000I0J-250000D01*
G01*
X70538000Y-106393000D01*
G75*
G02*
X70288000Y-106643000I-250000J0D01*
G01*
X69788000Y-106643000D01*
G75*
G02*
X69538000Y-106393000I0J250000D01*
G01*
G37*
G36*
G01*
X67638000Y-106393000D02*
X67638000Y-105443000D01*
G75*
G02*
X67888000Y-105193000I250000J0D01*
G01*
X68388000Y-105193000D01*
G75*
G02*
X68638000Y-105443000I0J-250000D01*
G01*
X68638000Y-106393000D01*
G75*
G02*
X68388000Y-106643000I-250000J0D01*
G01*
X67888000Y-106643000D01*
G75*
G02*
X67638000Y-106393000I0J250000D01*
G01*
G37*
%TD*%
%TO.C,C5*%
G36*
G01*
X68699000Y-99093000D02*
X68699000Y-100043000D01*
G75*
G02*
X68449000Y-100293000I-250000J0D01*
G01*
X67949000Y-100293000D01*
G75*
G02*
X67699000Y-100043000I0J250000D01*
G01*
X67699000Y-99093000D01*
G75*
G02*
X67949000Y-98843000I250000J0D01*
G01*
X68449000Y-98843000D01*
G75*
G02*
X68699000Y-99093000I0J-250000D01*
G01*
G37*
G36*
G01*
X70599000Y-99093000D02*
X70599000Y-100043000D01*
G75*
G02*
X70349000Y-100293000I-250000J0D01*
G01*
X69849000Y-100293000D01*
G75*
G02*
X69599000Y-100043000I0J250000D01*
G01*
X69599000Y-99093000D01*
G75*
G02*
X69849000Y-98843000I250000J0D01*
G01*
X70349000Y-98843000D01*
G75*
G02*
X70599000Y-99093000I0J-250000D01*
G01*
G37*
%TD*%
%TO.C,C4*%
G36*
G01*
X76614000Y-93099000D02*
X77564000Y-93099000D01*
G75*
G02*
X77814000Y-93349000I0J-250000D01*
G01*
X77814000Y-93849000D01*
G75*
G02*
X77564000Y-94099000I-250000J0D01*
G01*
X76614000Y-94099000D01*
G75*
G02*
X76364000Y-93849000I0J250000D01*
G01*
X76364000Y-93349000D01*
G75*
G02*
X76614000Y-93099000I250000J0D01*
G01*
G37*
G36*
G01*
X76614000Y-91199000D02*
X77564000Y-91199000D01*
G75*
G02*
X77814000Y-91449000I0J-250000D01*
G01*
X77814000Y-91949000D01*
G75*
G02*
X77564000Y-92199000I-250000J0D01*
G01*
X76614000Y-92199000D01*
G75*
G02*
X76364000Y-91949000I0J250000D01*
G01*
X76364000Y-91449000D01*
G75*
G02*
X76614000Y-91199000I250000J0D01*
G01*
G37*
%TD*%
%TO.C,C3*%
G36*
G01*
X72738000Y-105910000D02*
X71788000Y-105910000D01*
G75*
G02*
X71538000Y-105660000I0J250000D01*
G01*
X71538000Y-105160000D01*
G75*
G02*
X71788000Y-104910000I250000J0D01*
G01*
X72738000Y-104910000D01*
G75*
G02*
X72988000Y-105160000I0J-250000D01*
G01*
X72988000Y-105660000D01*
G75*
G02*
X72738000Y-105910000I-250000J0D01*
G01*
G37*
G36*
G01*
X72738000Y-107810000D02*
X71788000Y-107810000D01*
G75*
G02*
X71538000Y-107560000I0J250000D01*
G01*
X71538000Y-107060000D01*
G75*
G02*
X71788000Y-106810000I250000J0D01*
G01*
X72738000Y-106810000D01*
G75*
G02*
X72988000Y-107060000I0J-250000D01*
G01*
X72988000Y-107560000D01*
G75*
G02*
X72738000Y-107810000I-250000J0D01*
G01*
G37*
%TD*%
%TO.C,C2*%
G36*
G01*
X91062000Y-98011000D02*
X91062000Y-97061000D01*
G75*
G02*
X91312000Y-96811000I250000J0D01*
G01*
X91812000Y-96811000D01*
G75*
G02*
X92062000Y-97061000I0J-250000D01*
G01*
X92062000Y-98011000D01*
G75*
G02*
X91812000Y-98261000I-250000J0D01*
G01*
X91312000Y-98261000D01*
G75*
G02*
X91062000Y-98011000I0J250000D01*
G01*
G37*
G36*
G01*
X89162000Y-98011000D02*
X89162000Y-97061000D01*
G75*
G02*
X89412000Y-96811000I250000J0D01*
G01*
X89912000Y-96811000D01*
G75*
G02*
X90162000Y-97061000I0J-250000D01*
G01*
X90162000Y-98011000D01*
G75*
G02*
X89912000Y-98261000I-250000J0D01*
G01*
X89412000Y-98261000D01*
G75*
G02*
X89162000Y-98011000I0J250000D01*
G01*
G37*
%TD*%
%TO.C,C1*%
G36*
G01*
X91432000Y-105062000D02*
X91432000Y-106012000D01*
G75*
G02*
X91182000Y-106262000I-250000J0D01*
G01*
X90682000Y-106262000D01*
G75*
G02*
X90432000Y-106012000I0J250000D01*
G01*
X90432000Y-105062000D01*
G75*
G02*
X90682000Y-104812000I250000J0D01*
G01*
X91182000Y-104812000D01*
G75*
G02*
X91432000Y-105062000I0J-250000D01*
G01*
G37*
G36*
G01*
X93332000Y-105062000D02*
X93332000Y-106012000D01*
G75*
G02*
X93082000Y-106262000I-250000J0D01*
G01*
X92582000Y-106262000D01*
G75*
G02*
X92332000Y-106012000I0J250000D01*
G01*
X92332000Y-105062000D01*
G75*
G02*
X92582000Y-104812000I250000J0D01*
G01*
X93082000Y-104812000D01*
G75*
G02*
X93332000Y-105062000I0J-250000D01*
G01*
G37*
%TD*%
M02*
