%TF.GenerationSoftware,KiCad,Pcbnew,(5.1.10-1-10_14)*%
%TF.CreationDate,2022-06-17T19:42:32+09:00*%
%TF.ProjectId,pcb-right,7063622d-7269-4676-9874-2e6b69636164,rev?*%
%TF.SameCoordinates,Original*%
%TF.FileFunction,Copper,L2,Bot*%
%TF.FilePolarity,Positive*%
%FSLAX46Y46*%
G04 Gerber Fmt 4.6, Leading zero omitted, Abs format (unit mm)*
G04 Created by KiCad (PCBNEW (5.1.10-1-10_14)) date 2022-06-17 19:42:32*
%MOMM*%
%LPD*%
G01*
G04 APERTURE LIST*
%TA.AperFunction,ComponentPad*%
%ADD10C,2.250000*%
%TD*%
%TA.AperFunction,SMDPad,CuDef*%
%ADD11R,1.200000X1.400000*%
%TD*%
%TA.AperFunction,SMDPad,CuDef*%
%ADD12R,0.600000X1.450000*%
%TD*%
%TA.AperFunction,SMDPad,CuDef*%
%ADD13R,0.300000X1.450000*%
%TD*%
%TA.AperFunction,ComponentPad*%
%ADD14O,1.000000X2.100000*%
%TD*%
%TA.AperFunction,ComponentPad*%
%ADD15O,1.000000X1.600000*%
%TD*%
%TA.AperFunction,SMDPad,CuDef*%
%ADD16R,1.500000X0.550000*%
%TD*%
%TA.AperFunction,SMDPad,CuDef*%
%ADD17R,0.550000X1.500000*%
%TD*%
%TA.AperFunction,SMDPad,CuDef*%
%ADD18R,1.100000X1.800000*%
%TD*%
%TA.AperFunction,SMDPad,CuDef*%
%ADD19R,1.200000X0.900000*%
%TD*%
%TA.AperFunction,ViaPad*%
%ADD20C,0.800000*%
%TD*%
%TA.AperFunction,Conductor*%
%ADD21C,0.381000*%
%TD*%
%TA.AperFunction,Conductor*%
%ADD22C,0.250000*%
%TD*%
%TA.AperFunction,Conductor*%
%ADD23C,0.025400*%
%TD*%
%TA.AperFunction,Conductor*%
%ADD24C,0.100000*%
%TD*%
%TA.AperFunction,NonConductor*%
%ADD25C,0.254000*%
%TD*%
%TA.AperFunction,NonConductor*%
%ADD26C,0.100000*%
%TD*%
%TA.AperFunction,NonConductor*%
%ADD27C,0.025400*%
%TD*%
G04 APERTURE END LIST*
D10*
%TO.P,MX25,2*%
%TO.N,Net-(D25-Pad2)*%
X123190000Y-97313750D03*
%TO.P,MX25,1*%
%TO.N,col5*%
X116840000Y-99853750D03*
%TD*%
%TO.P,MX23,2*%
%TO.N,Net-(D23-Pad2)*%
X130333750Y-59213750D03*
%TO.P,MX23,1*%
%TO.N,col5*%
X123983750Y-61753750D03*
%TD*%
%TO.P,C7,2*%
%TO.N,GND*%
%TA.AperFunction,SMDPad,CuDef*%
G36*
G01*
X81796000Y-110965000D02*
X81796000Y-110015000D01*
G75*
G02*
X82046000Y-109765000I250000J0D01*
G01*
X82546000Y-109765000D01*
G75*
G02*
X82796000Y-110015000I0J-250000D01*
G01*
X82796000Y-110965000D01*
G75*
G02*
X82546000Y-111215000I-250000J0D01*
G01*
X82046000Y-111215000D01*
G75*
G02*
X81796000Y-110965000I0J250000D01*
G01*
G37*
%TD.AperFunction*%
%TO.P,C7,1*%
%TO.N,Net-(C7-Pad1)*%
%TA.AperFunction,SMDPad,CuDef*%
G36*
G01*
X79896000Y-110965000D02*
X79896000Y-110015000D01*
G75*
G02*
X80146000Y-109765000I250000J0D01*
G01*
X80646000Y-109765000D01*
G75*
G02*
X80896000Y-110015000I0J-250000D01*
G01*
X80896000Y-110965000D01*
G75*
G02*
X80646000Y-111215000I-250000J0D01*
G01*
X80146000Y-111215000D01*
G75*
G02*
X79896000Y-110965000I0J250000D01*
G01*
G37*
%TD.AperFunction*%
%TD*%
%TO.P,R8,2*%
%TO.N,Net-(R8-Pad2)*%
%TA.AperFunction,SMDPad,CuDef*%
G36*
G01*
X83523500Y-92513999D02*
X83523500Y-93414001D01*
G75*
G02*
X83273501Y-93664000I-249999J0D01*
G01*
X82748499Y-93664000D01*
G75*
G02*
X82498500Y-93414001I0J249999D01*
G01*
X82498500Y-92513999D01*
G75*
G02*
X82748499Y-92264000I249999J0D01*
G01*
X83273501Y-92264000D01*
G75*
G02*
X83523500Y-92513999I0J-249999D01*
G01*
G37*
%TD.AperFunction*%
%TO.P,R8,1*%
%TO.N,GND*%
%TA.AperFunction,SMDPad,CuDef*%
G36*
G01*
X85348500Y-92513999D02*
X85348500Y-93414001D01*
G75*
G02*
X85098501Y-93664000I-249999J0D01*
G01*
X84573499Y-93664000D01*
G75*
G02*
X84323500Y-93414001I0J249999D01*
G01*
X84323500Y-92513999D01*
G75*
G02*
X84573499Y-92264000I249999J0D01*
G01*
X85098501Y-92264000D01*
G75*
G02*
X85348500Y-92513999I0J-249999D01*
G01*
G37*
%TD.AperFunction*%
%TD*%
%TO.P,MX32,2*%
%TO.N,Net-(D32-Pad2)*%
X156527500Y-78263750D03*
%TO.P,MX32,1*%
%TO.N,col7*%
X150177500Y-80803750D03*
%TD*%
%TO.P,MX33,2*%
%TO.N,Net-(D33-Pad2)*%
X170815000Y-97313750D03*
%TO.P,MX33,1*%
%TO.N,col7*%
X164465000Y-99853750D03*
%TD*%
%TO.P,MX28,2*%
%TO.N,Net-(D28-Pad2)*%
X147002500Y-97313750D03*
%TO.P,MX28,1*%
%TO.N,col6*%
X140652500Y-99853750D03*
%TD*%
%TO.P,MX20,2*%
%TO.N,Net-(D20-Pad2)*%
X99377500Y-97313750D03*
%TO.P,MX20,1*%
%TO.N,col4*%
X93027500Y-99853750D03*
%TD*%
D11*
%TO.P,Y1,4*%
%TO.N,GND*%
X68277000Y-101600000D03*
%TO.P,Y1,3*%
%TO.N,Net-(C6-Pad1)*%
X68277000Y-103800000D03*
%TO.P,Y1,2*%
%TO.N,GND*%
X69977000Y-103800000D03*
%TO.P,Y1,1*%
%TO.N,Net-(C5-Pad1)*%
X69977000Y-101600000D03*
%TD*%
D12*
%TO.P,USB2,12*%
%TO.N,GND*%
X49580000Y-22554000D03*
%TO.P,USB2,1*%
X43130000Y-22554000D03*
%TO.P,USB2,11*%
%TO.N,+5V*%
X48805000Y-22554000D03*
%TO.P,USB2,2*%
X43905000Y-22554000D03*
D13*
%TO.P,USB2,3*%
%TO.N,Net-(USB2-Pad3)*%
X44605000Y-22554000D03*
%TO.P,USB2,10*%
%TO.N,Net-(USB2-Pad10)*%
X48105000Y-22554000D03*
%TO.P,USB2,4*%
%TO.N,Net-(USB2-Pad4)*%
X45105000Y-22554000D03*
%TO.P,USB2,9*%
%TO.N,Net-(USB2-Pad9)*%
X47605000Y-22554000D03*
%TO.P,USB2,5*%
%TO.N,SD-*%
X45605000Y-22554000D03*
%TO.P,USB2,8*%
%TO.N,SD+*%
X47105000Y-22554000D03*
%TO.P,USB2,7*%
%TO.N,SD-*%
X46605000Y-22554000D03*
%TO.P,USB2,6*%
%TO.N,SD+*%
X46105000Y-22554000D03*
D14*
%TO.P,USB2,13*%
%TO.N,GND*%
X42035000Y-21639000D03*
X50675000Y-21639000D03*
D15*
X42035000Y-17459000D03*
X50675000Y-17459000D03*
%TD*%
D12*
%TO.P,USB1,12*%
%TO.N,GND*%
X145211000Y-22554000D03*
%TO.P,USB1,1*%
X138761000Y-22554000D03*
%TO.P,USB1,11*%
%TO.N,+5V*%
X144436000Y-22554000D03*
%TO.P,USB1,2*%
X139536000Y-22554000D03*
D13*
%TO.P,USB1,3*%
%TO.N,Net-(USB1-Pad3)*%
X140236000Y-22554000D03*
%TO.P,USB1,10*%
%TO.N,Net-(R2-Pad2)*%
X143736000Y-22554000D03*
%TO.P,USB1,4*%
%TO.N,Net-(R1-Pad2)*%
X140736000Y-22554000D03*
%TO.P,USB1,9*%
%TO.N,Net-(USB1-Pad9)*%
X143236000Y-22554000D03*
%TO.P,USB1,5*%
%TO.N,D-*%
X141236000Y-22554000D03*
%TO.P,USB1,8*%
%TO.N,D+*%
X142736000Y-22554000D03*
%TO.P,USB1,7*%
%TO.N,D-*%
X142236000Y-22554000D03*
%TO.P,USB1,6*%
%TO.N,D+*%
X141736000Y-22554000D03*
D14*
%TO.P,USB1,13*%
%TO.N,GND*%
X137666000Y-21639000D03*
X146306000Y-21639000D03*
D15*
X137666000Y-17459000D03*
X146306000Y-17459000D03*
%TD*%
D16*
%TO.P,U1,44*%
%TO.N,+5V*%
X86662500Y-106393750D03*
%TO.P,U1,43*%
%TO.N,GND*%
X86662500Y-105593750D03*
%TO.P,U1,42*%
%TO.N,Net-(U1-Pad42)*%
X86662500Y-104793750D03*
%TO.P,U1,41*%
%TO.N,Net-(U1-Pad41)*%
X86662500Y-103993750D03*
%TO.P,U1,40*%
%TO.N,Net-(U1-Pad40)*%
X86662500Y-103193750D03*
%TO.P,U1,39*%
%TO.N,col7*%
X86662500Y-102393750D03*
%TO.P,U1,38*%
%TO.N,col6*%
X86662500Y-101593750D03*
%TO.P,U1,37*%
%TO.N,col5*%
X86662500Y-100793750D03*
%TO.P,U1,36*%
%TO.N,col4*%
X86662500Y-99993750D03*
%TO.P,U1,35*%
%TO.N,GND*%
X86662500Y-99193750D03*
%TO.P,U1,34*%
%TO.N,+5V*%
X86662500Y-98393750D03*
D17*
%TO.P,U1,33*%
%TO.N,Net-(R8-Pad2)*%
X84962500Y-96693750D03*
%TO.P,U1,32*%
%TO.N,Net-(U1-Pad32)*%
X84162500Y-96693750D03*
%TO.P,U1,31*%
%TO.N,Net-(U1-Pad31)*%
X83362500Y-96693750D03*
%TO.P,U1,30*%
%TO.N,Net-(U1-Pad30)*%
X82562500Y-96693750D03*
%TO.P,U1,29*%
%TO.N,Net-(U1-Pad29)*%
X81762500Y-96693750D03*
%TO.P,U1,28*%
%TO.N,row0*%
X80962500Y-96693750D03*
%TO.P,U1,27*%
%TO.N,row1*%
X80162500Y-96693750D03*
%TO.P,U1,26*%
%TO.N,row2*%
X79362500Y-96693750D03*
%TO.P,U1,25*%
%TO.N,row3*%
X78562500Y-96693750D03*
%TO.P,U1,24*%
%TO.N,+5V*%
X77762500Y-96693750D03*
%TO.P,U1,23*%
%TO.N,GND*%
X76962500Y-96693750D03*
D16*
%TO.P,U1,22*%
%TO.N,col3*%
X75262500Y-98393750D03*
%TO.P,U1,21*%
%TO.N,col1*%
X75262500Y-99193750D03*
%TO.P,U1,20*%
%TO.N,col2*%
X75262500Y-99993750D03*
%TO.P,U1,19*%
%TO.N,SD-*%
X75262500Y-100793750D03*
%TO.P,U1,18*%
%TO.N,SD+*%
X75262500Y-101593750D03*
%TO.P,U1,17*%
%TO.N,Net-(C5-Pad1)*%
X75262500Y-102393750D03*
%TO.P,U1,16*%
%TO.N,Net-(C6-Pad1)*%
X75262500Y-103193750D03*
%TO.P,U1,15*%
%TO.N,GND*%
X75262500Y-103993750D03*
%TO.P,U1,14*%
%TO.N,+5V*%
X75262500Y-104793750D03*
%TO.P,U1,13*%
%TO.N,Net-(R7-Pad2)*%
X75262500Y-105593750D03*
%TO.P,U1,12*%
%TO.N,col0*%
X75262500Y-106393750D03*
D17*
%TO.P,U1,11*%
%TO.N,row4*%
X76962500Y-108093750D03*
%TO.P,U1,10*%
%TO.N,Net-(U1-Pad10)*%
X77762500Y-108093750D03*
%TO.P,U1,9*%
%TO.N,Net-(U1-Pad9)*%
X78562500Y-108093750D03*
%TO.P,U1,8*%
%TO.N,Net-(U1-Pad8)*%
X79362500Y-108093750D03*
%TO.P,U1,7*%
%TO.N,+5V*%
X80162500Y-108093750D03*
%TO.P,U1,6*%
%TO.N,Net-(C7-Pad1)*%
X80962500Y-108093750D03*
%TO.P,U1,5*%
%TO.N,GND*%
X81762500Y-108093750D03*
%TO.P,U1,4*%
%TO.N,Net-(R6-Pad1)*%
X82562500Y-108093750D03*
%TO.P,U1,3*%
%TO.N,Net-(R5-Pad1)*%
X83362500Y-108093750D03*
%TO.P,U1,2*%
%TO.N,+5V*%
X84162500Y-108093750D03*
%TO.P,U1,1*%
%TO.N,Net-(U1-Pad1)*%
X84962500Y-108093750D03*
%TD*%
D18*
%TO.P,SW1,4*%
%TO.N,N/C*%
X42473000Y-105970000D03*
%TO.P,SW1,3*%
X46173000Y-99770000D03*
%TO.P,SW1,2*%
%TO.N,Net-(R7-Pad2)*%
X46173000Y-105970000D03*
%TO.P,SW1,1*%
%TO.N,GND*%
X42473000Y-99770000D03*
%TD*%
%TO.P,R7,2*%
%TO.N,Net-(R7-Pad2)*%
%TA.AperFunction,SMDPad,CuDef*%
G36*
G01*
X65108500Y-106483999D02*
X65108500Y-107384001D01*
G75*
G02*
X64858501Y-107634000I-249999J0D01*
G01*
X64333499Y-107634000D01*
G75*
G02*
X64083500Y-107384001I0J249999D01*
G01*
X64083500Y-106483999D01*
G75*
G02*
X64333499Y-106234000I249999J0D01*
G01*
X64858501Y-106234000D01*
G75*
G02*
X65108500Y-106483999I0J-249999D01*
G01*
G37*
%TD.AperFunction*%
%TO.P,R7,1*%
%TO.N,+5V*%
%TA.AperFunction,SMDPad,CuDef*%
G36*
G01*
X66933500Y-106483999D02*
X66933500Y-107384001D01*
G75*
G02*
X66683501Y-107634000I-249999J0D01*
G01*
X66158499Y-107634000D01*
G75*
G02*
X65908500Y-107384001I0J249999D01*
G01*
X65908500Y-106483999D01*
G75*
G02*
X66158499Y-106234000I249999J0D01*
G01*
X66683501Y-106234000D01*
G75*
G02*
X66933500Y-106483999I0J-249999D01*
G01*
G37*
%TD.AperFunction*%
%TD*%
%TO.P,R6,2*%
%TO.N,D+*%
%TA.AperFunction,SMDPad,CuDef*%
G36*
G01*
X143579001Y-27817500D02*
X142678999Y-27817500D01*
G75*
G02*
X142429000Y-27567501I0J249999D01*
G01*
X142429000Y-27042499D01*
G75*
G02*
X142678999Y-26792500I249999J0D01*
G01*
X143579001Y-26792500D01*
G75*
G02*
X143829000Y-27042499I0J-249999D01*
G01*
X143829000Y-27567501D01*
G75*
G02*
X143579001Y-27817500I-249999J0D01*
G01*
G37*
%TD.AperFunction*%
%TO.P,R6,1*%
%TO.N,Net-(R6-Pad1)*%
%TA.AperFunction,SMDPad,CuDef*%
G36*
G01*
X143579001Y-29642500D02*
X142678999Y-29642500D01*
G75*
G02*
X142429000Y-29392501I0J249999D01*
G01*
X142429000Y-28867499D01*
G75*
G02*
X142678999Y-28617500I249999J0D01*
G01*
X143579001Y-28617500D01*
G75*
G02*
X143829000Y-28867499I0J-249999D01*
G01*
X143829000Y-29392501D01*
G75*
G02*
X143579001Y-29642500I-249999J0D01*
G01*
G37*
%TD.AperFunction*%
%TD*%
%TO.P,R5,2*%
%TO.N,D-*%
%TA.AperFunction,SMDPad,CuDef*%
G36*
G01*
X141547001Y-27817500D02*
X140646999Y-27817500D01*
G75*
G02*
X140397000Y-27567501I0J249999D01*
G01*
X140397000Y-27042499D01*
G75*
G02*
X140646999Y-26792500I249999J0D01*
G01*
X141547001Y-26792500D01*
G75*
G02*
X141797000Y-27042499I0J-249999D01*
G01*
X141797000Y-27567501D01*
G75*
G02*
X141547001Y-27817500I-249999J0D01*
G01*
G37*
%TD.AperFunction*%
%TO.P,R5,1*%
%TO.N,Net-(R5-Pad1)*%
%TA.AperFunction,SMDPad,CuDef*%
G36*
G01*
X141547001Y-29642500D02*
X140646999Y-29642500D01*
G75*
G02*
X140397000Y-29392501I0J249999D01*
G01*
X140397000Y-28867499D01*
G75*
G02*
X140646999Y-28617500I249999J0D01*
G01*
X141547001Y-28617500D01*
G75*
G02*
X141797000Y-28867499I0J-249999D01*
G01*
X141797000Y-29392501D01*
G75*
G02*
X141547001Y-29642500I-249999J0D01*
G01*
G37*
%TD.AperFunction*%
%TD*%
%TO.P,R2,2*%
%TO.N,Net-(R2-Pad2)*%
%TA.AperFunction,SMDPad,CuDef*%
G36*
G01*
X144102500Y-25076999D02*
X144102500Y-25977001D01*
G75*
G02*
X143852501Y-26227000I-249999J0D01*
G01*
X143327499Y-26227000D01*
G75*
G02*
X143077500Y-25977001I0J249999D01*
G01*
X143077500Y-25076999D01*
G75*
G02*
X143327499Y-24827000I249999J0D01*
G01*
X143852501Y-24827000D01*
G75*
G02*
X144102500Y-25076999I0J-249999D01*
G01*
G37*
%TD.AperFunction*%
%TO.P,R2,1*%
%TO.N,GND*%
%TA.AperFunction,SMDPad,CuDef*%
G36*
G01*
X145927500Y-25076999D02*
X145927500Y-25977001D01*
G75*
G02*
X145677501Y-26227000I-249999J0D01*
G01*
X145152499Y-26227000D01*
G75*
G02*
X144902500Y-25977001I0J249999D01*
G01*
X144902500Y-25076999D01*
G75*
G02*
X145152499Y-24827000I249999J0D01*
G01*
X145677501Y-24827000D01*
G75*
G02*
X145927500Y-25076999I0J-249999D01*
G01*
G37*
%TD.AperFunction*%
%TD*%
%TO.P,R1,2*%
%TO.N,Net-(R1-Pad2)*%
%TA.AperFunction,SMDPad,CuDef*%
G36*
G01*
X139869500Y-24961001D02*
X139869500Y-24060999D01*
G75*
G02*
X140119499Y-23811000I249999J0D01*
G01*
X140644501Y-23811000D01*
G75*
G02*
X140894500Y-24060999I0J-249999D01*
G01*
X140894500Y-24961001D01*
G75*
G02*
X140644501Y-25211000I-249999J0D01*
G01*
X140119499Y-25211000D01*
G75*
G02*
X139869500Y-24961001I0J249999D01*
G01*
G37*
%TD.AperFunction*%
%TO.P,R1,1*%
%TO.N,GND*%
%TA.AperFunction,SMDPad,CuDef*%
G36*
G01*
X138044500Y-24961001D02*
X138044500Y-24060999D01*
G75*
G02*
X138294499Y-23811000I249999J0D01*
G01*
X138819501Y-23811000D01*
G75*
G02*
X139069500Y-24060999I0J-249999D01*
G01*
X139069500Y-24961001D01*
G75*
G02*
X138819501Y-25211000I-249999J0D01*
G01*
X138294499Y-25211000D01*
G75*
G02*
X138044500Y-24961001I0J249999D01*
G01*
G37*
%TD.AperFunction*%
%TD*%
D10*
%TO.P,MX31,2*%
%TO.N,Net-(D31-Pad2)*%
X161290000Y-59213750D03*
%TO.P,MX31,1*%
%TO.N,col7*%
X154940000Y-61753750D03*
%TD*%
%TO.P,MX30,2*%
%TO.N,Net-(D30-Pad2)*%
X168433750Y-40163750D03*
%TO.P,MX30,1*%
%TO.N,col7*%
X162083750Y-42703750D03*
%TD*%
%TO.P,MX29,2*%
%TO.N,Net-(D29-Pad2)*%
X163671250Y-21113750D03*
%TO.P,MX29,1*%
%TO.N,col7*%
X157321250Y-23653750D03*
%TD*%
%TO.P,MX27,2*%
%TO.N,Net-(D27-Pad2)*%
X144621250Y-40163750D03*
%TO.P,MX27,1*%
%TO.N,col6*%
X138271250Y-42703750D03*
%TD*%
%TO.P,MX26,2*%
%TO.N,Net-(D26-Pad2)*%
X135096250Y-21113750D03*
%TO.P,MX26,1*%
%TO.N,col6*%
X128746250Y-23653750D03*
%TD*%
%TO.P,MX24,2*%
%TO.N,Net-(D24-Pad2)*%
X120808750Y-78263750D03*
%TO.P,MX24,1*%
%TO.N,col5*%
X114458750Y-80803750D03*
%TD*%
%TO.P,MX22,2*%
%TO.N,Net-(D22-Pad2)*%
X125571250Y-40163750D03*
%TO.P,MX22,1*%
%TO.N,col5*%
X119221250Y-42703750D03*
%TD*%
%TO.P,MX21,2*%
%TO.N,Net-(D21-Pad2)*%
X116046250Y-21113750D03*
%TO.P,MX21,1*%
%TO.N,col5*%
X109696250Y-23653750D03*
%TD*%
%TO.P,MX19,2*%
%TO.N,Net-(D19-Pad2)*%
X101758750Y-78263750D03*
%TO.P,MX19,1*%
%TO.N,col4*%
X95408750Y-80803750D03*
%TD*%
%TO.P,MX18,2*%
%TO.N,Net-(D18-Pad2)*%
X111283750Y-59213750D03*
%TO.P,MX18,1*%
%TO.N,col4*%
X104933750Y-61753750D03*
%TD*%
%TO.P,MX17,2*%
%TO.N,Net-(D17-Pad2)*%
X106521250Y-40163750D03*
%TO.P,MX17,1*%
%TO.N,col4*%
X100171250Y-42703750D03*
%TD*%
%TO.P,MX16,2*%
%TO.N,Net-(D16-Pad2)*%
X96996250Y-21113750D03*
%TO.P,MX16,1*%
%TO.N,col4*%
X90646250Y-23653750D03*
%TD*%
%TO.P,MX15,2*%
%TO.N,Net-(D15-Pad2)*%
X82708750Y-78263750D03*
%TO.P,MX15,1*%
%TO.N,col3*%
X76358750Y-80803750D03*
%TD*%
%TO.P,MX14,2*%
%TO.N,Net-(D14-Pad2)*%
X92233750Y-59213750D03*
%TO.P,MX14,1*%
%TO.N,col3*%
X85883750Y-61753750D03*
%TD*%
%TO.P,MX13,2*%
%TO.N,Net-(D13-Pad2)*%
X87471250Y-40163750D03*
%TO.P,MX13,1*%
%TO.N,col3*%
X81121250Y-42703750D03*
%TD*%
%TO.P,MX12,2*%
%TO.N,Net-(D12-Pad2)*%
X77946250Y-21113750D03*
%TO.P,MX12,1*%
%TO.N,col3*%
X71596250Y-23653750D03*
%TD*%
%TO.P,MX11,2*%
%TO.N,Net-(D11-Pad2)*%
X61277500Y-97313750D03*
%TO.P,MX11,1*%
%TO.N,col2*%
X54927500Y-99853750D03*
%TD*%
%TO.P,MX10,2*%
%TO.N,Net-(D10-Pad2)*%
X63658750Y-78263750D03*
%TO.P,MX10,1*%
%TO.N,col2*%
X57308750Y-80803750D03*
%TD*%
%TO.P,MX9,2*%
%TO.N,Net-(D9-Pad2)*%
X73183750Y-59213750D03*
%TO.P,MX9,1*%
%TO.N,col2*%
X66833750Y-61753750D03*
%TD*%
%TO.P,MX8,2*%
%TO.N,Net-(D8-Pad2)*%
X68421250Y-40163750D03*
%TO.P,MX8,1*%
%TO.N,col2*%
X62071250Y-42703750D03*
%TD*%
%TO.P,MX7,2*%
%TO.N,Net-(D7-Pad2)*%
X58896250Y-21113750D03*
%TO.P,MX7,1*%
%TO.N,col2*%
X52546250Y-23653750D03*
%TD*%
%TO.P,MX6,2*%
%TO.N,Net-(D6-Pad2)*%
X44608750Y-78263750D03*
%TO.P,MX6,1*%
%TO.N,col1*%
X38258750Y-80803750D03*
%TD*%
%TO.P,MX5,2*%
%TO.N,Net-(D5-Pad2)*%
X54133750Y-59213750D03*
%TO.P,MX5,1*%
%TO.N,col1*%
X47783750Y-61753750D03*
%TD*%
%TO.P,MX4,2*%
%TO.N,Net-(D4-Pad2)*%
X49371250Y-40163750D03*
%TO.P,MX4,1*%
%TO.N,col1*%
X43021250Y-42703750D03*
%TD*%
%TO.P,MX3,2*%
%TO.N,Net-(D3-Pad2)*%
X39846250Y-21113750D03*
%TO.P,MX3,1*%
%TO.N,col1*%
X33496250Y-23653750D03*
%TD*%
%TO.P,MX2,2*%
%TO.N,Net-(D2-Pad2)*%
X35083750Y-59213750D03*
%TO.P,MX2,1*%
%TO.N,col0*%
X28733750Y-61753750D03*
%TD*%
%TO.P,MX1,2*%
%TO.N,Net-(D1-Pad2)*%
X30321250Y-40163750D03*
%TO.P,MX1,1*%
%TO.N,col0*%
X23971250Y-42703750D03*
%TD*%
D19*
%TO.P,D33,2*%
%TO.N,Net-(D33-Pad2)*%
X170656250Y-105506250D03*
%TO.P,D33,1*%
%TO.N,row4*%
X170656250Y-108806250D03*
%TD*%
%TO.P,D32,2*%
%TO.N,Net-(D32-Pad2)*%
X156368750Y-86456250D03*
%TO.P,D32,1*%
%TO.N,row3*%
X156368750Y-89756250D03*
%TD*%
%TO.P,D31,2*%
%TO.N,Net-(D31-Pad2)*%
X161131250Y-67406250D03*
%TO.P,D31,1*%
%TO.N,row2*%
X161131250Y-70706250D03*
%TD*%
%TO.P,D30,2*%
%TO.N,Net-(D30-Pad2)*%
X168275000Y-48356250D03*
%TO.P,D30,1*%
%TO.N,row1*%
X168275000Y-51656250D03*
%TD*%
%TO.P,D29,2*%
%TO.N,Net-(D29-Pad2)*%
X163512500Y-29306250D03*
%TO.P,D29,1*%
%TO.N,row0*%
X163512500Y-32606250D03*
%TD*%
%TO.P,D28,2*%
%TO.N,Net-(D28-Pad2)*%
X146843750Y-105506250D03*
%TO.P,D28,1*%
%TO.N,row4*%
X146843750Y-108806250D03*
%TD*%
%TO.P,D27,2*%
%TO.N,Net-(D27-Pad2)*%
X144462500Y-48356250D03*
%TO.P,D27,1*%
%TO.N,row1*%
X144462500Y-51656250D03*
%TD*%
%TO.P,D26,2*%
%TO.N,Net-(D26-Pad2)*%
X134937500Y-29306250D03*
%TO.P,D26,1*%
%TO.N,row0*%
X134937500Y-32606250D03*
%TD*%
%TO.P,D25,2*%
%TO.N,Net-(D25-Pad2)*%
X123031250Y-105506250D03*
%TO.P,D25,1*%
%TO.N,row4*%
X123031250Y-108806250D03*
%TD*%
%TO.P,D24,2*%
%TO.N,Net-(D24-Pad2)*%
X120650000Y-86456250D03*
%TO.P,D24,1*%
%TO.N,row3*%
X120650000Y-89756250D03*
%TD*%
%TO.P,D23,2*%
%TO.N,Net-(D23-Pad2)*%
X130175000Y-67406250D03*
%TO.P,D23,1*%
%TO.N,row2*%
X130175000Y-70706250D03*
%TD*%
%TO.P,D22,2*%
%TO.N,Net-(D22-Pad2)*%
X125412500Y-48356250D03*
%TO.P,D22,1*%
%TO.N,row1*%
X125412500Y-51656250D03*
%TD*%
%TO.P,D21,2*%
%TO.N,Net-(D21-Pad2)*%
X115887500Y-29306250D03*
%TO.P,D21,1*%
%TO.N,row0*%
X115887500Y-32606250D03*
%TD*%
%TO.P,D20,2*%
%TO.N,Net-(D20-Pad2)*%
X99218750Y-105506250D03*
%TO.P,D20,1*%
%TO.N,row4*%
X99218750Y-108806250D03*
%TD*%
%TO.P,D19,2*%
%TO.N,Net-(D19-Pad2)*%
X101600000Y-86456250D03*
%TO.P,D19,1*%
%TO.N,row3*%
X101600000Y-89756250D03*
%TD*%
%TO.P,D18,2*%
%TO.N,Net-(D18-Pad2)*%
X111125000Y-67406250D03*
%TO.P,D18,1*%
%TO.N,row2*%
X111125000Y-70706250D03*
%TD*%
%TO.P,D17,2*%
%TO.N,Net-(D17-Pad2)*%
X106362500Y-48356250D03*
%TO.P,D17,1*%
%TO.N,row1*%
X106362500Y-51656250D03*
%TD*%
%TO.P,D16,2*%
%TO.N,Net-(D16-Pad2)*%
X96837500Y-29306250D03*
%TO.P,D16,1*%
%TO.N,row0*%
X96837500Y-32606250D03*
%TD*%
%TO.P,D15,2*%
%TO.N,Net-(D15-Pad2)*%
X82550000Y-86456250D03*
%TO.P,D15,1*%
%TO.N,row3*%
X82550000Y-89756250D03*
%TD*%
%TO.P,D14,2*%
%TO.N,Net-(D14-Pad2)*%
X92075000Y-67406250D03*
%TO.P,D14,1*%
%TO.N,row2*%
X92075000Y-70706250D03*
%TD*%
%TO.P,D13,2*%
%TO.N,Net-(D13-Pad2)*%
X87312500Y-48356250D03*
%TO.P,D13,1*%
%TO.N,row1*%
X87312500Y-51656250D03*
%TD*%
%TO.P,D12,2*%
%TO.N,Net-(D12-Pad2)*%
X77787500Y-29306250D03*
%TO.P,D12,1*%
%TO.N,row0*%
X77787500Y-32606250D03*
%TD*%
%TO.P,D11,2*%
%TO.N,Net-(D11-Pad2)*%
X61181250Y-105506250D03*
%TO.P,D11,1*%
%TO.N,row4*%
X61181250Y-108806250D03*
%TD*%
%TO.P,D10,2*%
%TO.N,Net-(D10-Pad2)*%
X63500000Y-86456250D03*
%TO.P,D10,1*%
%TO.N,row3*%
X63500000Y-89756250D03*
%TD*%
%TO.P,D9,2*%
%TO.N,Net-(D9-Pad2)*%
X73025000Y-67406250D03*
%TO.P,D9,1*%
%TO.N,row2*%
X73025000Y-70706250D03*
%TD*%
%TO.P,D8,2*%
%TO.N,Net-(D8-Pad2)*%
X68262500Y-48356250D03*
%TO.P,D8,1*%
%TO.N,row1*%
X68262500Y-51656250D03*
%TD*%
%TO.P,D7,2*%
%TO.N,Net-(D7-Pad2)*%
X58737500Y-29306250D03*
%TO.P,D7,1*%
%TO.N,row0*%
X58737500Y-32606250D03*
%TD*%
%TO.P,D6,2*%
%TO.N,Net-(D6-Pad2)*%
X44450000Y-86456250D03*
%TO.P,D6,1*%
%TO.N,row3*%
X44450000Y-89756250D03*
%TD*%
%TO.P,D5,2*%
%TO.N,Net-(D5-Pad2)*%
X53975000Y-67406250D03*
%TO.P,D5,1*%
%TO.N,row2*%
X53975000Y-70706250D03*
%TD*%
%TO.P,D4,2*%
%TO.N,Net-(D4-Pad2)*%
X49212500Y-48356250D03*
%TO.P,D4,1*%
%TO.N,row1*%
X49212500Y-51656250D03*
%TD*%
%TO.P,D3,2*%
%TO.N,Net-(D3-Pad2)*%
X39687500Y-29306250D03*
%TO.P,D3,1*%
%TO.N,row0*%
X39687500Y-32606250D03*
%TD*%
%TO.P,D2,2*%
%TO.N,Net-(D2-Pad2)*%
X34925000Y-67406250D03*
%TO.P,D2,1*%
%TO.N,row2*%
X34925000Y-70706250D03*
%TD*%
%TO.P,D1,2*%
%TO.N,Net-(D1-Pad2)*%
X30162500Y-48418750D03*
%TO.P,D1,1*%
%TO.N,row1*%
X30162500Y-51718750D03*
%TD*%
%TO.P,C6,2*%
%TO.N,GND*%
%TA.AperFunction,SMDPad,CuDef*%
G36*
G01*
X69538000Y-106393000D02*
X69538000Y-105443000D01*
G75*
G02*
X69788000Y-105193000I250000J0D01*
G01*
X70288000Y-105193000D01*
G75*
G02*
X70538000Y-105443000I0J-250000D01*
G01*
X70538000Y-106393000D01*
G75*
G02*
X70288000Y-106643000I-250000J0D01*
G01*
X69788000Y-106643000D01*
G75*
G02*
X69538000Y-106393000I0J250000D01*
G01*
G37*
%TD.AperFunction*%
%TO.P,C6,1*%
%TO.N,Net-(C6-Pad1)*%
%TA.AperFunction,SMDPad,CuDef*%
G36*
G01*
X67638000Y-106393000D02*
X67638000Y-105443000D01*
G75*
G02*
X67888000Y-105193000I250000J0D01*
G01*
X68388000Y-105193000D01*
G75*
G02*
X68638000Y-105443000I0J-250000D01*
G01*
X68638000Y-106393000D01*
G75*
G02*
X68388000Y-106643000I-250000J0D01*
G01*
X67888000Y-106643000D01*
G75*
G02*
X67638000Y-106393000I0J250000D01*
G01*
G37*
%TD.AperFunction*%
%TD*%
%TO.P,C5,2*%
%TO.N,GND*%
%TA.AperFunction,SMDPad,CuDef*%
G36*
G01*
X68699000Y-99093000D02*
X68699000Y-100043000D01*
G75*
G02*
X68449000Y-100293000I-250000J0D01*
G01*
X67949000Y-100293000D01*
G75*
G02*
X67699000Y-100043000I0J250000D01*
G01*
X67699000Y-99093000D01*
G75*
G02*
X67949000Y-98843000I250000J0D01*
G01*
X68449000Y-98843000D01*
G75*
G02*
X68699000Y-99093000I0J-250000D01*
G01*
G37*
%TD.AperFunction*%
%TO.P,C5,1*%
%TO.N,Net-(C5-Pad1)*%
%TA.AperFunction,SMDPad,CuDef*%
G36*
G01*
X70599000Y-99093000D02*
X70599000Y-100043000D01*
G75*
G02*
X70349000Y-100293000I-250000J0D01*
G01*
X69849000Y-100293000D01*
G75*
G02*
X69599000Y-100043000I0J250000D01*
G01*
X69599000Y-99093000D01*
G75*
G02*
X69849000Y-98843000I250000J0D01*
G01*
X70349000Y-98843000D01*
G75*
G02*
X70599000Y-99093000I0J-250000D01*
G01*
G37*
%TD.AperFunction*%
%TD*%
%TO.P,C4,2*%
%TO.N,GND*%
%TA.AperFunction,SMDPad,CuDef*%
G36*
G01*
X76614000Y-93099000D02*
X77564000Y-93099000D01*
G75*
G02*
X77814000Y-93349000I0J-250000D01*
G01*
X77814000Y-93849000D01*
G75*
G02*
X77564000Y-94099000I-250000J0D01*
G01*
X76614000Y-94099000D01*
G75*
G02*
X76364000Y-93849000I0J250000D01*
G01*
X76364000Y-93349000D01*
G75*
G02*
X76614000Y-93099000I250000J0D01*
G01*
G37*
%TD.AperFunction*%
%TO.P,C4,1*%
%TO.N,+5V*%
%TA.AperFunction,SMDPad,CuDef*%
G36*
G01*
X76614000Y-91199000D02*
X77564000Y-91199000D01*
G75*
G02*
X77814000Y-91449000I0J-250000D01*
G01*
X77814000Y-91949000D01*
G75*
G02*
X77564000Y-92199000I-250000J0D01*
G01*
X76614000Y-92199000D01*
G75*
G02*
X76364000Y-91949000I0J250000D01*
G01*
X76364000Y-91449000D01*
G75*
G02*
X76614000Y-91199000I250000J0D01*
G01*
G37*
%TD.AperFunction*%
%TD*%
%TO.P,C3,2*%
%TO.N,GND*%
%TA.AperFunction,SMDPad,CuDef*%
G36*
G01*
X72738000Y-105910000D02*
X71788000Y-105910000D01*
G75*
G02*
X71538000Y-105660000I0J250000D01*
G01*
X71538000Y-105160000D01*
G75*
G02*
X71788000Y-104910000I250000J0D01*
G01*
X72738000Y-104910000D01*
G75*
G02*
X72988000Y-105160000I0J-250000D01*
G01*
X72988000Y-105660000D01*
G75*
G02*
X72738000Y-105910000I-250000J0D01*
G01*
G37*
%TD.AperFunction*%
%TO.P,C3,1*%
%TO.N,+5V*%
%TA.AperFunction,SMDPad,CuDef*%
G36*
G01*
X72738000Y-107810000D02*
X71788000Y-107810000D01*
G75*
G02*
X71538000Y-107560000I0J250000D01*
G01*
X71538000Y-107060000D01*
G75*
G02*
X71788000Y-106810000I250000J0D01*
G01*
X72738000Y-106810000D01*
G75*
G02*
X72988000Y-107060000I0J-250000D01*
G01*
X72988000Y-107560000D01*
G75*
G02*
X72738000Y-107810000I-250000J0D01*
G01*
G37*
%TD.AperFunction*%
%TD*%
%TO.P,C2,2*%
%TO.N,GND*%
%TA.AperFunction,SMDPad,CuDef*%
G36*
G01*
X91062000Y-98011000D02*
X91062000Y-97061000D01*
G75*
G02*
X91312000Y-96811000I250000J0D01*
G01*
X91812000Y-96811000D01*
G75*
G02*
X92062000Y-97061000I0J-250000D01*
G01*
X92062000Y-98011000D01*
G75*
G02*
X91812000Y-98261000I-250000J0D01*
G01*
X91312000Y-98261000D01*
G75*
G02*
X91062000Y-98011000I0J250000D01*
G01*
G37*
%TD.AperFunction*%
%TO.P,C2,1*%
%TO.N,+5V*%
%TA.AperFunction,SMDPad,CuDef*%
G36*
G01*
X89162000Y-98011000D02*
X89162000Y-97061000D01*
G75*
G02*
X89412000Y-96811000I250000J0D01*
G01*
X89912000Y-96811000D01*
G75*
G02*
X90162000Y-97061000I0J-250000D01*
G01*
X90162000Y-98011000D01*
G75*
G02*
X89912000Y-98261000I-250000J0D01*
G01*
X89412000Y-98261000D01*
G75*
G02*
X89162000Y-98011000I0J250000D01*
G01*
G37*
%TD.AperFunction*%
%TD*%
%TO.P,C1,2*%
%TO.N,GND*%
%TA.AperFunction,SMDPad,CuDef*%
G36*
G01*
X91432000Y-105062000D02*
X91432000Y-106012000D01*
G75*
G02*
X91182000Y-106262000I-250000J0D01*
G01*
X90682000Y-106262000D01*
G75*
G02*
X90432000Y-106012000I0J250000D01*
G01*
X90432000Y-105062000D01*
G75*
G02*
X90682000Y-104812000I250000J0D01*
G01*
X91182000Y-104812000D01*
G75*
G02*
X91432000Y-105062000I0J-250000D01*
G01*
G37*
%TD.AperFunction*%
%TO.P,C1,1*%
%TO.N,+5V*%
%TA.AperFunction,SMDPad,CuDef*%
G36*
G01*
X93332000Y-105062000D02*
X93332000Y-106012000D01*
G75*
G02*
X93082000Y-106262000I-250000J0D01*
G01*
X92582000Y-106262000D01*
G75*
G02*
X92332000Y-106012000I0J250000D01*
G01*
X92332000Y-105062000D01*
G75*
G02*
X92582000Y-104812000I250000J0D01*
G01*
X93082000Y-104812000D01*
G75*
G02*
X93332000Y-105062000I0J-250000D01*
G01*
G37*
%TD.AperFunction*%
%TD*%
D20*
%TO.N,GND*%
X49558500Y-30197500D03*
X52705000Y-107442000D03*
%TO.N,+5V*%
X91792089Y-106672419D03*
X88945254Y-109519254D03*
X92837000Y-106807000D03*
X90421740Y-95120740D03*
X88706240Y-95120740D03*
X77089000Y-90678000D03*
X78486000Y-30988000D03*
X78867000Y-109601000D03*
X139573000Y-28194000D03*
X144526000Y-28194000D03*
%TO.N,row1*%
X80694113Y-93228176D03*
X82963750Y-51656250D03*
%TO.N,row2*%
X79969113Y-92489500D03*
X86900750Y-70706250D03*
%TO.N,row0*%
X81419113Y-93957648D03*
X87089250Y-32606250D03*
%TO.N,row3*%
X80137000Y-89789000D03*
X78930103Y-92500813D03*
%TO.N,row4*%
X74445871Y-108810500D03*
X73327935Y-109933065D03*
%TO.N,col0*%
X51435000Y-106426000D03*
X53848000Y-106426000D03*
X74867355Y-107359750D03*
%TO.N,col1*%
X69519749Y-97282000D03*
X67938749Y-97282000D03*
%TO.N,col2*%
X69519749Y-98298000D03*
%TO.N,col3*%
X74549000Y-97409000D03*
%TO.N,col6*%
X101473000Y-104013000D03*
X95504000Y-104648000D03*
%TO.N,col7*%
X99060000Y-88519000D03*
X94102347Y-104357000D03*
%TO.N,Net-(R5-Pad1)*%
X141097000Y-31881250D03*
X135608903Y-39016097D03*
X134366000Y-40132000D03*
X122174000Y-58674000D03*
X120142000Y-60579000D03*
X101346000Y-106553000D03*
%TO.N,Net-(R6-Pad1)*%
X143129000Y-31877000D03*
X136316011Y-39723206D03*
X135087052Y-40840569D03*
X122748095Y-59492789D03*
X120696701Y-61411051D03*
X101346000Y-107569000D03*
%TO.N,Net-(R7-Pad2)*%
X73660000Y-107569000D03*
X49530000Y-108077000D03*
X62490669Y-107067669D03*
%TO.N,SD-*%
X73533000Y-100838000D03*
X54963903Y-34571097D03*
X51215273Y-34255727D03*
X48014500Y-24028624D03*
%TO.N,SD+*%
X47117000Y-24804942D03*
X51240240Y-35306000D03*
X55753000Y-35306000D03*
X72771000Y-101600000D03*
X47255709Y-21259308D03*
%TD*%
D21*
%TO.N,GND*%
X70038000Y-103861000D02*
X69977000Y-103800000D01*
X70038000Y-105918000D02*
X70038000Y-103861000D01*
X69977000Y-103602902D02*
X69977000Y-103800000D01*
X68277000Y-101902902D02*
X69977000Y-103602902D01*
X68277000Y-101600000D02*
X68277000Y-101902902D01*
X68199000Y-101522000D02*
X68277000Y-101600000D01*
X68199000Y-99568000D02*
X68199000Y-101522000D01*
X73679250Y-103993750D02*
X75262500Y-103993750D01*
X72263000Y-105410000D02*
X73679250Y-103993750D01*
X76984249Y-93494249D02*
X77089000Y-93599000D01*
X68729249Y-94489789D02*
X69724789Y-93494249D01*
X68729249Y-99037751D02*
X68729249Y-94489789D01*
X69724789Y-93494249D02*
X76984249Y-93494249D01*
X68199000Y-99568000D02*
X68729249Y-99037751D01*
X77089000Y-96567250D02*
X76962500Y-96693750D01*
X77089000Y-93599000D02*
X77089000Y-96567250D01*
X90875250Y-105593750D02*
X90932000Y-105537000D01*
X86662500Y-105593750D02*
X90875250Y-105593750D01*
X91292820Y-97536000D02*
X91562000Y-97536000D01*
X89635070Y-99193750D02*
X91292820Y-97536000D01*
X86662500Y-99193750D02*
X89635070Y-99193750D01*
X91562000Y-97536000D02*
X90491999Y-98606001D01*
X85521999Y-99406349D02*
X85734598Y-99193750D01*
X85521999Y-105584249D02*
X85521999Y-99406349D01*
X85531500Y-105593750D02*
X85521999Y-105584249D01*
X85734598Y-99193750D02*
X86662500Y-99193750D01*
X86662500Y-105593750D02*
X85531500Y-105593750D01*
X76962500Y-97621652D02*
X76962500Y-96693750D01*
X78534598Y-99193750D02*
X76962500Y-97621652D01*
X86662500Y-99193750D02*
X78534598Y-99193750D01*
X76190402Y-103993750D02*
X78534598Y-101649554D01*
X78534598Y-101649554D02*
X78534598Y-99193750D01*
X75262500Y-103993750D02*
X76190402Y-103993750D01*
X81762500Y-107165848D02*
X81762500Y-108093750D01*
X76190402Y-103993750D02*
X78590402Y-103993750D01*
X85531500Y-99193750D02*
X86662500Y-99193750D01*
X85521999Y-99203251D02*
X85531500Y-99193750D01*
X85521999Y-97806349D02*
X85521999Y-99203251D01*
X85727828Y-97600520D02*
X85521999Y-97806349D01*
X85727828Y-93855828D02*
X85727828Y-97600520D01*
X84836000Y-92964000D02*
X85727828Y-93855828D01*
X42950000Y-22554000D02*
X42035000Y-21639000D01*
X43130000Y-22554000D02*
X42950000Y-22554000D01*
X42035000Y-21639000D02*
X42035000Y-17459000D01*
X42035000Y-17459000D02*
X50675000Y-17459000D01*
X50675000Y-17459000D02*
X50675000Y-21639000D01*
X50495000Y-21639000D02*
X49580000Y-22554000D01*
X50675000Y-21639000D02*
X50495000Y-21639000D01*
X49580000Y-30176000D02*
X49558500Y-30197500D01*
X49580000Y-22554000D02*
X49580000Y-30176000D01*
X60956882Y-107483520D02*
X66294000Y-102146402D01*
X52746520Y-107483520D02*
X60956882Y-107483520D01*
X52705000Y-107442000D02*
X52746520Y-107483520D01*
X66294000Y-101473000D02*
X68199000Y-99568000D01*
X66294000Y-102146402D02*
X66294000Y-101473000D01*
X79055826Y-104459174D02*
X78869174Y-104459174D01*
X78590402Y-103993750D02*
X79055826Y-104459174D01*
X79055826Y-104459174D02*
X81762500Y-107165848D01*
X81762500Y-109956500D02*
X82296000Y-110490000D01*
X81762500Y-108093750D02*
X81762500Y-109956500D01*
X137846000Y-21639000D02*
X138761000Y-22554000D01*
X137666000Y-21639000D02*
X137846000Y-21639000D01*
X145391000Y-22554000D02*
X146306000Y-21639000D01*
X145211000Y-22554000D02*
X145391000Y-22554000D01*
X146306000Y-21639000D02*
X146306000Y-17459000D01*
X146306000Y-17459000D02*
X137666000Y-17459000D01*
X137666000Y-17459000D02*
X137666000Y-21639000D01*
X145211000Y-25323000D02*
X145415000Y-25527000D01*
X145211000Y-22554000D02*
X145211000Y-25323000D01*
X138557000Y-22758000D02*
X138761000Y-22554000D01*
X138557000Y-24511000D02*
X138557000Y-22758000D01*
X137666000Y-17459000D02*
X50675000Y-17459000D01*
X50145000Y-107442000D02*
X52705000Y-107442000D01*
X42473000Y-99770000D02*
X50145000Y-107442000D01*
%TO.N,+5V*%
X72263000Y-107310000D02*
X73378510Y-106194490D01*
X74334598Y-104793750D02*
X75262500Y-104793750D01*
X73378510Y-105749838D02*
X74334598Y-104793750D01*
X73378510Y-106194490D02*
X73378510Y-105749838D01*
X77762500Y-95562750D02*
X77762500Y-96693750D01*
X78204510Y-95120740D02*
X77762500Y-95562750D01*
X78204510Y-92814510D02*
X78204510Y-95120740D01*
X77089000Y-91699000D02*
X78204510Y-92814510D01*
X91716490Y-106652510D02*
X86921260Y-106652510D01*
X86921260Y-106652510D02*
X86662500Y-106393750D01*
X92832000Y-105537000D02*
X91716490Y-106652510D01*
X88804250Y-98393750D02*
X89662000Y-97536000D01*
X86662500Y-98393750D02*
X88804250Y-98393750D01*
X80137000Y-108119250D02*
X80162500Y-108093750D01*
X84162500Y-108093750D02*
X84162500Y-109224750D01*
X84457004Y-109519254D02*
X88945254Y-109519254D01*
X84162500Y-109224750D02*
X84457004Y-109519254D01*
X92837000Y-105542000D02*
X92832000Y-105537000D01*
X92837000Y-106807000D02*
X92837000Y-105542000D01*
X89662000Y-95880480D02*
X90421740Y-95120740D01*
X89662000Y-97536000D02*
X89662000Y-95880480D01*
X85284500Y-91699000D02*
X88706240Y-95120740D01*
X77089000Y-91699000D02*
X85284500Y-91699000D01*
X77089000Y-91699000D02*
X77089000Y-90678000D01*
X48805000Y-25595442D02*
X48805000Y-22554000D01*
X48805000Y-25595442D02*
X44000558Y-25595442D01*
X43905000Y-25499884D02*
X43905000Y-22554000D01*
X44000558Y-25595442D02*
X43905000Y-25499884D01*
X48768000Y-25632442D02*
X48805000Y-25595442D01*
X48768000Y-30988000D02*
X48768000Y-25632442D01*
X78486000Y-30988000D02*
X48768000Y-30988000D01*
X79583152Y-109601000D02*
X78867000Y-109601000D01*
X80162500Y-109021652D02*
X79583152Y-109601000D01*
X80162500Y-108093750D02*
X80162500Y-109021652D01*
X72263000Y-107750194D02*
X74113806Y-109601000D01*
X74113806Y-109601000D02*
X78867000Y-109601000D01*
X72263000Y-107310000D02*
X72263000Y-107750194D01*
X144436000Y-22770000D02*
X144520499Y-22854499D01*
X144436000Y-22554000D02*
X144436000Y-22770000D01*
X139695499Y-21516599D02*
X139695499Y-22394501D01*
X140223609Y-20988489D02*
X139695499Y-21516599D01*
X143696547Y-20988489D02*
X140223609Y-20988489D01*
X144520499Y-21812441D02*
X143696547Y-20988489D01*
X139695499Y-22394501D02*
X139536000Y-22554000D01*
X144520499Y-22854499D02*
X144520499Y-21812441D01*
X139478990Y-28099990D02*
X139573000Y-28194000D01*
X139478990Y-22611010D02*
X139478990Y-28099990D01*
X139536000Y-22554000D02*
X139478990Y-22611010D01*
X144511990Y-26242310D02*
X144511990Y-22629990D01*
X144526000Y-26256320D02*
X144511990Y-26242310D01*
X144511990Y-22629990D02*
X144436000Y-22554000D01*
X144526000Y-28194000D02*
X144526000Y-26256320D01*
X79263749Y-31765749D02*
X78486000Y-30988000D01*
X136001251Y-31765749D02*
X79263749Y-31765749D01*
X139573000Y-28194000D02*
X136001251Y-31765749D01*
X72089480Y-107483520D02*
X72263000Y-107310000D01*
X66970520Y-107483520D02*
X72089480Y-107483520D01*
X66421000Y-106934000D02*
X66970520Y-107483520D01*
D22*
%TO.N,Net-(C5-Pad1)*%
X70099000Y-101478000D02*
X69977000Y-101600000D01*
X70099000Y-99568000D02*
X70099000Y-101478000D01*
X70770750Y-102393750D02*
X75262500Y-102393750D01*
X69977000Y-101600000D02*
X70770750Y-102393750D01*
%TO.N,Net-(C6-Pad1)*%
X68138000Y-103939000D02*
X68277000Y-103800000D01*
X68138000Y-105918000D02*
X68138000Y-103939000D01*
X69188010Y-106968010D02*
X70526180Y-106968010D01*
X70526180Y-106968010D02*
X70902001Y-106592189D01*
X68138000Y-105918000D02*
X69188010Y-106968010D01*
X70902001Y-106592189D02*
X70902001Y-104760001D01*
X72468252Y-103193750D02*
X75262500Y-103193750D01*
X70902001Y-104760001D02*
X72468252Y-103193750D01*
%TO.N,Net-(C7-Pad1)*%
X80962500Y-109923500D02*
X80962500Y-108093750D01*
X80396000Y-110490000D02*
X80962500Y-109923500D01*
%TO.N,Net-(D1-Pad2)*%
X30321250Y-48260000D02*
X30162500Y-48418750D01*
X30321250Y-40163750D02*
X30321250Y-48260000D01*
%TO.N,row1*%
X30225000Y-51656250D02*
X30162500Y-51718750D01*
X80694113Y-94998547D02*
X80694113Y-93228176D01*
X80162500Y-95530160D02*
X80694113Y-94998547D01*
X80162500Y-96693750D02*
X80162500Y-95530160D01*
X82963750Y-51656250D02*
X30225000Y-51656250D01*
X168275000Y-51656250D02*
X82963750Y-51656250D01*
%TO.N,Net-(D2-Pad2)*%
X35083750Y-67247500D02*
X34925000Y-67406250D01*
X35083750Y-59213750D02*
X35083750Y-67247500D01*
%TO.N,row2*%
X160654849Y-70229849D02*
X161131250Y-70706250D01*
X130651401Y-70229849D02*
X160654849Y-70229849D01*
X130175000Y-70706250D02*
X130651401Y-70229849D01*
X79969113Y-95087137D02*
X79969113Y-92489500D01*
X79362500Y-95693750D02*
X79969113Y-95087137D01*
X79362500Y-96693750D02*
X79362500Y-95693750D01*
X86900750Y-70706250D02*
X130175000Y-70706250D01*
X34925000Y-70706250D02*
X86900750Y-70706250D01*
%TO.N,Net-(D3-Pad2)*%
X39846250Y-29147500D02*
X39687500Y-29306250D01*
X39846250Y-21113750D02*
X39846250Y-29147500D01*
%TO.N,row0*%
X101109752Y-32606250D02*
X115887500Y-32606250D01*
X148111927Y-32129849D02*
X163036099Y-32129849D01*
X147635526Y-32606250D02*
X148111927Y-32129849D01*
X163036099Y-32129849D02*
X163512500Y-32606250D01*
X115887500Y-32606250D02*
X147635526Y-32606250D01*
X81419113Y-95237137D02*
X81419113Y-93957648D01*
X80962500Y-95693750D02*
X81419113Y-95237137D01*
X80962500Y-96693750D02*
X80962500Y-95693750D01*
X87089250Y-32606250D02*
X101109752Y-32606250D01*
X39687500Y-32606250D02*
X87089250Y-32606250D01*
%TO.N,Net-(D4-Pad2)*%
X49371250Y-48197500D02*
X49212500Y-48356250D01*
X49371250Y-40163750D02*
X49371250Y-48197500D01*
%TO.N,Net-(D5-Pad2)*%
X54133750Y-67247500D02*
X53975000Y-67406250D01*
X54133750Y-59213750D02*
X54133750Y-67247500D01*
%TO.N,Net-(D6-Pad2)*%
X44608750Y-86297500D02*
X44450000Y-86456250D01*
X44608750Y-78263750D02*
X44608750Y-86297500D01*
%TO.N,row3*%
X155892349Y-89279849D02*
X121126401Y-89279849D01*
X121126401Y-89279849D02*
X120650000Y-89756250D01*
X156368750Y-89756250D02*
X155892349Y-89279849D01*
X80169750Y-89756250D02*
X80137000Y-89789000D01*
X120650000Y-89756250D02*
X80169750Y-89756250D01*
X80169750Y-89756250D02*
X44450000Y-89756250D01*
X78562500Y-95693750D02*
X78562500Y-96693750D01*
X78930103Y-95326147D02*
X78562500Y-95693750D01*
X78930103Y-92500813D02*
X78930103Y-95326147D01*
%TO.N,Net-(D7-Pad2)*%
X58896250Y-29147500D02*
X58737500Y-29306250D01*
X58896250Y-21113750D02*
X58896250Y-29147500D01*
%TO.N,Net-(D8-Pad2)*%
X68421250Y-48197500D02*
X68262500Y-48356250D01*
X68421250Y-40163750D02*
X68421250Y-48197500D01*
%TO.N,Net-(D9-Pad2)*%
X73183750Y-67247500D02*
X73025000Y-67406250D01*
X73183750Y-59213750D02*
X73183750Y-67247500D01*
%TO.N,Net-(D10-Pad2)*%
X63658750Y-86297500D02*
X63500000Y-86456250D01*
X63658750Y-78263750D02*
X63658750Y-86297500D01*
%TO.N,Net-(D11-Pad2)*%
X61277500Y-105410000D02*
X61181250Y-105506250D01*
X61277500Y-97313750D02*
X61277500Y-105410000D01*
%TO.N,row4*%
X99218750Y-108806250D02*
X170656250Y-108806250D01*
X97789500Y-110235500D02*
X99218750Y-108806250D01*
X96519000Y-111506000D02*
X97789500Y-110235500D01*
X84201000Y-111760000D02*
X84455000Y-111506000D01*
X84455000Y-111506000D02*
X96519000Y-111506000D01*
X73406000Y-111506000D02*
X79502000Y-111506000D01*
X73374250Y-111474250D02*
X73406000Y-111506000D01*
X79756000Y-111760000D02*
X84201000Y-111760000D01*
X79502000Y-111506000D02*
X79756000Y-111760000D01*
X61181250Y-108806250D02*
X61657651Y-108329849D01*
X71817349Y-108329849D02*
X73374250Y-109886750D01*
X61657651Y-108329849D02*
X71817349Y-108329849D01*
X73374250Y-109886750D02*
X73374250Y-111474250D01*
X75162621Y-108093750D02*
X74445871Y-108810500D01*
X76962500Y-108093750D02*
X75162621Y-108093750D01*
%TO.N,Net-(D12-Pad2)*%
X77946250Y-29147500D02*
X77787500Y-29306250D01*
X77946250Y-21113750D02*
X77946250Y-29147500D01*
%TO.N,Net-(D13-Pad2)*%
X87471250Y-48197500D02*
X87312500Y-48356250D01*
X87471250Y-40163750D02*
X87471250Y-48197500D01*
%TO.N,Net-(D14-Pad2)*%
X92233750Y-67247500D02*
X92075000Y-67406250D01*
X92233750Y-59213750D02*
X92233750Y-67247500D01*
%TO.N,Net-(D15-Pad2)*%
X82708750Y-86297500D02*
X82550000Y-86456250D01*
X82708750Y-78263750D02*
X82708750Y-86297500D01*
%TO.N,Net-(D16-Pad2)*%
X96996250Y-29147500D02*
X96837500Y-29306250D01*
X96996250Y-21113750D02*
X96996250Y-29147500D01*
%TO.N,Net-(D17-Pad2)*%
X106521250Y-48197500D02*
X106362500Y-48356250D01*
X106521250Y-40163750D02*
X106521250Y-48197500D01*
%TO.N,Net-(D18-Pad2)*%
X111283750Y-67247500D02*
X111125000Y-67406250D01*
X111283750Y-59213750D02*
X111283750Y-67247500D01*
%TO.N,Net-(D19-Pad2)*%
X101758750Y-86297500D02*
X101600000Y-86456250D01*
X101758750Y-78263750D02*
X101758750Y-86297500D01*
%TO.N,Net-(D20-Pad2)*%
X99377500Y-105347500D02*
X99218750Y-105506250D01*
X99377500Y-97313750D02*
X99377500Y-105347500D01*
%TO.N,Net-(D21-Pad2)*%
X116046250Y-29147500D02*
X115887500Y-29306250D01*
X116046250Y-21113750D02*
X116046250Y-29147500D01*
%TO.N,Net-(D22-Pad2)*%
X125571250Y-48197500D02*
X125412500Y-48356250D01*
X125571250Y-40163750D02*
X125571250Y-48197500D01*
%TO.N,Net-(D23-Pad2)*%
X130333750Y-67247500D02*
X130175000Y-67406250D01*
X130333750Y-59213750D02*
X130333750Y-67247500D01*
%TO.N,Net-(D24-Pad2)*%
X120808750Y-86297500D02*
X120650000Y-86456250D01*
X120808750Y-78263750D02*
X120808750Y-86297500D01*
%TO.N,Net-(D25-Pad2)*%
X123190000Y-105347500D02*
X123031250Y-105506250D01*
X123190000Y-97313750D02*
X123190000Y-105347500D01*
%TO.N,Net-(D26-Pad2)*%
X135096250Y-29147500D02*
X134937500Y-29306250D01*
X135096250Y-21113750D02*
X135096250Y-29147500D01*
%TO.N,Net-(D27-Pad2)*%
X144621250Y-48197500D02*
X144462500Y-48356250D01*
X144621250Y-40163750D02*
X144621250Y-48197500D01*
%TO.N,Net-(D28-Pad2)*%
X147002500Y-105347500D02*
X146843750Y-105506250D01*
X147002500Y-97313750D02*
X147002500Y-105347500D01*
%TO.N,Net-(D29-Pad2)*%
X163671250Y-29147500D02*
X163512500Y-29306250D01*
X163671250Y-21113750D02*
X163671250Y-29147500D01*
%TO.N,Net-(D30-Pad2)*%
X168433750Y-48197500D02*
X168275000Y-48356250D01*
X168433750Y-40163750D02*
X168433750Y-48197500D01*
%TO.N,Net-(D31-Pad2)*%
X161290000Y-67247500D02*
X161131250Y-67406250D01*
X161290000Y-59213750D02*
X161290000Y-67247500D01*
%TO.N,Net-(D32-Pad2)*%
X156527500Y-86297500D02*
X156368750Y-86456250D01*
X156527500Y-78263750D02*
X156527500Y-86297500D01*
%TO.N,Net-(D33-Pad2)*%
X170815000Y-105347500D02*
X170656250Y-105506250D01*
X170815000Y-97313750D02*
X170815000Y-105347500D01*
%TO.N,col0*%
X51435000Y-106426000D02*
X53848000Y-106426000D01*
X74867355Y-106788895D02*
X75262500Y-106393750D01*
X74867355Y-107359750D02*
X74867355Y-106788895D01*
%TO.N,col1*%
X72350750Y-97282000D02*
X69519749Y-97282000D01*
X74262500Y-99193750D02*
X72350750Y-97282000D01*
X75262500Y-99193750D02*
X74262500Y-99193750D01*
X66520498Y-95863749D02*
X52937749Y-95863749D01*
X67938749Y-97282000D02*
X66520498Y-95863749D01*
X43589999Y-90531251D02*
X38258750Y-85200002D01*
X38258750Y-85200002D02*
X38258750Y-80803750D01*
X48240251Y-90531251D02*
X43589999Y-90531251D01*
X52937749Y-95228749D02*
X48240251Y-90531251D01*
X52937749Y-95863749D02*
X52937749Y-95228749D01*
%TO.N,col2*%
X71211390Y-98298000D02*
X69519749Y-98298000D01*
X72907140Y-99993750D02*
X71211390Y-98298000D01*
X75262500Y-99993750D02*
X72907140Y-99993750D01*
%TO.N,col3*%
X74549000Y-97680250D02*
X75262500Y-98393750D01*
X74549000Y-97409000D02*
X74549000Y-97680250D01*
%TO.N,col4*%
X86802500Y-99853750D02*
X86662500Y-99993750D01*
X93027500Y-99853750D02*
X86802500Y-99853750D01*
%TO.N,col5*%
X95724427Y-98820821D02*
X98681499Y-95863749D01*
X95724427Y-100074849D02*
X95724427Y-98820821D01*
X94495525Y-101303751D02*
X95724427Y-100074849D01*
X98681499Y-95863749D02*
X112849999Y-95863749D01*
X92331499Y-101303751D02*
X94495525Y-101303751D01*
X92221497Y-101193749D02*
X92331499Y-101303751D01*
X112849999Y-95863749D02*
X116840000Y-99853750D01*
X91668749Y-101193749D02*
X92221497Y-101193749D01*
X91268750Y-100793750D02*
X91668749Y-101193749D01*
X86662500Y-100793750D02*
X91268750Y-100793750D01*
%TO.N,col6*%
X103741251Y-106281251D02*
X101473000Y-104013000D01*
X123891251Y-106281251D02*
X103741251Y-106281251D01*
X130318752Y-99853750D02*
X123891251Y-106281251D01*
X140652500Y-99853750D02*
X130318752Y-99853750D01*
X95504000Y-104648000D02*
X94488000Y-103632000D01*
X91219748Y-103632000D02*
X90424000Y-102836252D01*
X94488000Y-103632000D02*
X91219748Y-103632000D01*
X90424000Y-102836252D02*
X90424000Y-101600000D01*
X86668750Y-101600000D02*
X86662500Y-101593750D01*
X90424000Y-101600000D02*
X86668750Y-101600000D01*
%TO.N,col7*%
X120222252Y-88519000D02*
X99060000Y-88519000D01*
X127937502Y-80803750D02*
X120222252Y-88519000D01*
X150177500Y-80803750D02*
X127937502Y-80803750D01*
X87472502Y-102393750D02*
X86662500Y-102393750D01*
X89435752Y-104357000D02*
X87472502Y-102393750D01*
X94102347Y-104357000D02*
X89435752Y-104357000D01*
%TO.N,Net-(R1-Pad2)*%
X140736000Y-24157000D02*
X140382000Y-24511000D01*
X140736000Y-22554000D02*
X140736000Y-24157000D01*
%TO.N,Net-(R2-Pad2)*%
X143590000Y-25527000D02*
X143383000Y-25527000D01*
X143736000Y-25174000D02*
X143736000Y-22554000D01*
X143383000Y-25527000D02*
X143736000Y-25174000D01*
%TO.N,D-*%
X142146001Y-21503999D02*
X142236000Y-21593998D01*
X141325999Y-21503999D02*
X142146001Y-21503999D01*
X142236000Y-21593998D02*
X142236000Y-22554000D01*
X141236000Y-21593998D02*
X141325999Y-21503999D01*
X141236000Y-22554000D02*
X141236000Y-21593998D01*
X141236000Y-27166000D02*
X141097000Y-27305000D01*
X141236000Y-22554000D02*
X141236000Y-27166000D01*
%TO.N,Net-(R5-Pad1)*%
X141097000Y-29130000D02*
X141097000Y-31881250D01*
X135481903Y-39016097D02*
X134366000Y-40132000D01*
X135608903Y-39016097D02*
X135481903Y-39016097D01*
X120269000Y-60579000D02*
X120142000Y-60579000D01*
X122174000Y-58674000D02*
X120269000Y-60579000D01*
X84452964Y-110244255D02*
X93082745Y-110244255D01*
X83362500Y-109153791D02*
X84452964Y-110244255D01*
X83362500Y-108093750D02*
X83362500Y-109153791D01*
X96774000Y-106553000D02*
X101346000Y-106553000D01*
X93082745Y-110244255D02*
X96774000Y-106553000D01*
%TO.N,D+*%
X142736000Y-23514002D02*
X142736000Y-22554000D01*
X141825999Y-23604001D02*
X142646001Y-23604001D01*
X142646001Y-23604001D02*
X142736000Y-23514002D01*
X141736000Y-23514002D02*
X141825999Y-23604001D01*
X141736000Y-22554000D02*
X141736000Y-23514002D01*
X142646001Y-26822001D02*
X143129000Y-27305000D01*
X142646001Y-23604001D02*
X142646001Y-26822001D01*
%TO.N,Net-(R6-Pad1)*%
X143129000Y-29130000D02*
X143129000Y-31877000D01*
X136204415Y-39723206D02*
X135087052Y-40840569D01*
X136316011Y-39723206D02*
X136204415Y-39723206D01*
X120829833Y-61411051D02*
X120696701Y-61411051D01*
X122748095Y-59492789D02*
X120829833Y-61411051D01*
X93269145Y-110694265D02*
X84266563Y-110694264D01*
X82562500Y-108990201D02*
X82562500Y-108093750D01*
X96394410Y-107569000D02*
X93269145Y-110694265D01*
X101346000Y-107569000D02*
X96394410Y-107569000D01*
X82562500Y-108990201D02*
X84266563Y-110694264D01*
%TO.N,Net-(R7-Pad2)*%
X74187499Y-107041501D02*
X73660000Y-107569000D01*
X74187499Y-105858749D02*
X74187499Y-107041501D01*
X74452498Y-105593750D02*
X74187499Y-105858749D01*
X75262500Y-105593750D02*
X74452498Y-105593750D01*
X47423000Y-105970000D02*
X46173000Y-105970000D01*
X49530000Y-108077000D02*
X47423000Y-105970000D01*
X62624338Y-106934000D02*
X62490669Y-107067669D01*
X64596000Y-106934000D02*
X62624338Y-106934000D01*
%TO.N,Net-(R8-Pad2)*%
X84962500Y-94915500D02*
X84962500Y-96693750D01*
X83011000Y-92964000D02*
X84962500Y-94915500D01*
%TO.N,SD-*%
X73577250Y-100793750D02*
X73533000Y-100838000D01*
X75262500Y-100793750D02*
X73577250Y-100793750D01*
X51530643Y-34571097D02*
X51215273Y-34255727D01*
X54963903Y-34571097D02*
X51530643Y-34571097D01*
X46605000Y-23514002D02*
X47119622Y-24028624D01*
X47119622Y-24028624D02*
X48014500Y-24028624D01*
X46605000Y-22554000D02*
X46605000Y-23514002D01*
X45605000Y-21593998D02*
X45605000Y-22554000D01*
X45694999Y-21503999D02*
X45605000Y-21593998D01*
X46529999Y-21503999D02*
X45694999Y-21503999D01*
X46605000Y-21579000D02*
X46529999Y-21503999D01*
X46605000Y-22554000D02*
X46605000Y-21579000D01*
%TO.N,SD+*%
X47015001Y-24702943D02*
X47117000Y-24804942D01*
X51240240Y-35306000D02*
X55753000Y-35306000D01*
X75256250Y-101600000D02*
X75262500Y-101593750D01*
X72771000Y-101600000D02*
X75256250Y-101600000D01*
X46105000Y-23792942D02*
X47117000Y-24804942D01*
X46105000Y-22554000D02*
X46105000Y-23792942D01*
X47105000Y-21410017D02*
X47105000Y-22554000D01*
X47255709Y-21259308D02*
X47105000Y-21410017D01*
%TD*%
D23*
%TO.N,GND*%
X67329028Y-98473028D02*
X67263959Y-98552315D01*
X67215609Y-98642773D01*
X67185835Y-98740925D01*
X67175781Y-98843000D01*
X67178300Y-99196525D01*
X67308475Y-99326700D01*
X67957700Y-99326700D01*
X67957700Y-99306700D01*
X68440300Y-99306700D01*
X68440300Y-99326700D01*
X69089525Y-99326700D01*
X69219700Y-99196525D01*
X69222219Y-98843000D01*
X69221490Y-98835598D01*
X69229527Y-98840968D01*
X69341031Y-98887155D01*
X69426640Y-98904183D01*
X69420570Y-98915539D01*
X69394181Y-99002531D01*
X69385271Y-99093000D01*
X69385271Y-100043000D01*
X69394181Y-100133469D01*
X69420570Y-100220461D01*
X69463423Y-100300634D01*
X69521094Y-100370906D01*
X69591366Y-100428577D01*
X69671539Y-100471430D01*
X69758531Y-100497819D01*
X69761300Y-100498092D01*
X69761301Y-100686271D01*
X69377000Y-100686271D01*
X69354366Y-100688500D01*
X69312041Y-100609315D01*
X69246972Y-100530028D01*
X69186325Y-100480257D01*
X69212165Y-100395075D01*
X69222219Y-100293000D01*
X69219700Y-99939475D01*
X69089525Y-99809300D01*
X68440300Y-99809300D01*
X68440300Y-100683525D01*
X68518300Y-100761525D01*
X68518300Y-101358700D01*
X68538300Y-101358700D01*
X68538300Y-101841300D01*
X68518300Y-101841300D01*
X68518300Y-102690525D01*
X68648475Y-102820700D01*
X68877000Y-102823219D01*
X68937724Y-102817238D01*
X68899634Y-102888500D01*
X68877000Y-102886271D01*
X67677000Y-102886271D01*
X67635304Y-102890378D01*
X67595209Y-102902540D01*
X67558259Y-102922291D01*
X67525871Y-102948871D01*
X67499291Y-102981259D01*
X67479540Y-103018209D01*
X67467378Y-103058304D01*
X67463271Y-103100000D01*
X67463271Y-104500000D01*
X67467378Y-104541696D01*
X67479540Y-104581791D01*
X67499291Y-104618741D01*
X67525871Y-104651129D01*
X67558259Y-104677709D01*
X67595209Y-104697460D01*
X67635304Y-104709622D01*
X67677000Y-104713729D01*
X67800301Y-104713729D01*
X67800300Y-104987908D01*
X67797531Y-104988181D01*
X67710539Y-105014570D01*
X67630366Y-105057423D01*
X67560094Y-105115094D01*
X67502423Y-105185366D01*
X67459570Y-105265539D01*
X67433181Y-105352531D01*
X67424271Y-105443000D01*
X67424271Y-106393000D01*
X67433181Y-106483469D01*
X67459570Y-106570461D01*
X67502423Y-106650634D01*
X67560094Y-106720906D01*
X67630366Y-106778577D01*
X67710539Y-106821430D01*
X67797531Y-106847819D01*
X67888000Y-106856729D01*
X68388000Y-106856729D01*
X68478469Y-106847819D01*
X68564225Y-106821805D01*
X68822740Y-107080320D01*
X67147229Y-107080320D01*
X67147229Y-106483999D01*
X67138319Y-106393530D01*
X67111930Y-106306538D01*
X67069077Y-106226366D01*
X67011406Y-106156094D01*
X66941134Y-106098423D01*
X66860962Y-106055570D01*
X66773970Y-106029181D01*
X66687700Y-106020685D01*
X66687700Y-102300000D01*
X67153781Y-102300000D01*
X67163835Y-102402075D01*
X67193609Y-102500227D01*
X67241959Y-102590685D01*
X67307028Y-102669972D01*
X67386315Y-102735041D01*
X67476773Y-102783391D01*
X67574925Y-102813165D01*
X67677000Y-102823219D01*
X67905525Y-102820700D01*
X68035700Y-102690525D01*
X68035700Y-101841300D01*
X67286475Y-101841300D01*
X67156300Y-101971475D01*
X67153781Y-102300000D01*
X66687700Y-102300000D01*
X66687700Y-100900000D01*
X67153781Y-100900000D01*
X67156300Y-101228525D01*
X67286475Y-101358700D01*
X68035700Y-101358700D01*
X68035700Y-100509475D01*
X67957700Y-100431475D01*
X67957700Y-99809300D01*
X67308475Y-99809300D01*
X67178300Y-99939475D01*
X67175781Y-100293000D01*
X67185835Y-100395075D01*
X67215609Y-100493227D01*
X67263578Y-100582972D01*
X67241959Y-100609315D01*
X67193609Y-100699773D01*
X67163835Y-100797925D01*
X67153781Y-100900000D01*
X66687700Y-100900000D01*
X66687700Y-98437700D01*
X67372075Y-98437700D01*
X67329028Y-98473028D01*
%TA.AperFunction,Conductor*%
D24*
G36*
X67329028Y-98473028D02*
G01*
X67263959Y-98552315D01*
X67215609Y-98642773D01*
X67185835Y-98740925D01*
X67175781Y-98843000D01*
X67178300Y-99196525D01*
X67308475Y-99326700D01*
X67957700Y-99326700D01*
X67957700Y-99306700D01*
X68440300Y-99306700D01*
X68440300Y-99326700D01*
X69089525Y-99326700D01*
X69219700Y-99196525D01*
X69222219Y-98843000D01*
X69221490Y-98835598D01*
X69229527Y-98840968D01*
X69341031Y-98887155D01*
X69426640Y-98904183D01*
X69420570Y-98915539D01*
X69394181Y-99002531D01*
X69385271Y-99093000D01*
X69385271Y-100043000D01*
X69394181Y-100133469D01*
X69420570Y-100220461D01*
X69463423Y-100300634D01*
X69521094Y-100370906D01*
X69591366Y-100428577D01*
X69671539Y-100471430D01*
X69758531Y-100497819D01*
X69761300Y-100498092D01*
X69761301Y-100686271D01*
X69377000Y-100686271D01*
X69354366Y-100688500D01*
X69312041Y-100609315D01*
X69246972Y-100530028D01*
X69186325Y-100480257D01*
X69212165Y-100395075D01*
X69222219Y-100293000D01*
X69219700Y-99939475D01*
X69089525Y-99809300D01*
X68440300Y-99809300D01*
X68440300Y-100683525D01*
X68518300Y-100761525D01*
X68518300Y-101358700D01*
X68538300Y-101358700D01*
X68538300Y-101841300D01*
X68518300Y-101841300D01*
X68518300Y-102690525D01*
X68648475Y-102820700D01*
X68877000Y-102823219D01*
X68937724Y-102817238D01*
X68899634Y-102888500D01*
X68877000Y-102886271D01*
X67677000Y-102886271D01*
X67635304Y-102890378D01*
X67595209Y-102902540D01*
X67558259Y-102922291D01*
X67525871Y-102948871D01*
X67499291Y-102981259D01*
X67479540Y-103018209D01*
X67467378Y-103058304D01*
X67463271Y-103100000D01*
X67463271Y-104500000D01*
X67467378Y-104541696D01*
X67479540Y-104581791D01*
X67499291Y-104618741D01*
X67525871Y-104651129D01*
X67558259Y-104677709D01*
X67595209Y-104697460D01*
X67635304Y-104709622D01*
X67677000Y-104713729D01*
X67800301Y-104713729D01*
X67800300Y-104987908D01*
X67797531Y-104988181D01*
X67710539Y-105014570D01*
X67630366Y-105057423D01*
X67560094Y-105115094D01*
X67502423Y-105185366D01*
X67459570Y-105265539D01*
X67433181Y-105352531D01*
X67424271Y-105443000D01*
X67424271Y-106393000D01*
X67433181Y-106483469D01*
X67459570Y-106570461D01*
X67502423Y-106650634D01*
X67560094Y-106720906D01*
X67630366Y-106778577D01*
X67710539Y-106821430D01*
X67797531Y-106847819D01*
X67888000Y-106856729D01*
X68388000Y-106856729D01*
X68478469Y-106847819D01*
X68564225Y-106821805D01*
X68822740Y-107080320D01*
X67147229Y-107080320D01*
X67147229Y-106483999D01*
X67138319Y-106393530D01*
X67111930Y-106306538D01*
X67069077Y-106226366D01*
X67011406Y-106156094D01*
X66941134Y-106098423D01*
X66860962Y-106055570D01*
X66773970Y-106029181D01*
X66687700Y-106020685D01*
X66687700Y-102300000D01*
X67153781Y-102300000D01*
X67163835Y-102402075D01*
X67193609Y-102500227D01*
X67241959Y-102590685D01*
X67307028Y-102669972D01*
X67386315Y-102735041D01*
X67476773Y-102783391D01*
X67574925Y-102813165D01*
X67677000Y-102823219D01*
X67905525Y-102820700D01*
X68035700Y-102690525D01*
X68035700Y-101841300D01*
X67286475Y-101841300D01*
X67156300Y-101971475D01*
X67153781Y-102300000D01*
X66687700Y-102300000D01*
X66687700Y-100900000D01*
X67153781Y-100900000D01*
X67156300Y-101228525D01*
X67286475Y-101358700D01*
X68035700Y-101358700D01*
X68035700Y-100509475D01*
X67957700Y-100431475D01*
X67957700Y-99809300D01*
X67308475Y-99809300D01*
X67178300Y-99939475D01*
X67175781Y-100293000D01*
X67185835Y-100395075D01*
X67215609Y-100493227D01*
X67263578Y-100582972D01*
X67241959Y-100609315D01*
X67193609Y-100699773D01*
X67163835Y-100797925D01*
X67153781Y-100900000D01*
X66687700Y-100900000D01*
X66687700Y-98437700D01*
X67372075Y-98437700D01*
X67329028Y-98473028D01*
G37*
%TD.AperFunction*%
D23*
X69377000Y-102513729D02*
X70413149Y-102513729D01*
X70477300Y-102577880D01*
X70348475Y-102579300D01*
X70218300Y-102709475D01*
X70218300Y-103558700D01*
X70967525Y-103558700D01*
X71097700Y-103428525D01*
X71100219Y-103100000D01*
X71090165Y-102997925D01*
X71060391Y-102899773D01*
X71012041Y-102809315D01*
X70948139Y-102731450D01*
X71424800Y-102731450D01*
X71424800Y-103759623D01*
X71055324Y-104129099D01*
X70967525Y-104041300D01*
X70218300Y-104041300D01*
X70218300Y-104890525D01*
X70279300Y-104951525D01*
X70279300Y-105676700D01*
X70299300Y-105676700D01*
X70299300Y-106159300D01*
X70279300Y-106159300D01*
X70279300Y-106179300D01*
X69796700Y-106179300D01*
X69796700Y-106159300D01*
X69147475Y-106159300D01*
X69017300Y-106289475D01*
X69017086Y-106319506D01*
X68851729Y-106154150D01*
X68851729Y-105443000D01*
X68842819Y-105352531D01*
X68816430Y-105265539D01*
X68773577Y-105185366D01*
X68715906Y-105115094D01*
X68645634Y-105057423D01*
X68565461Y-105014570D01*
X68478469Y-104988181D01*
X68475700Y-104987908D01*
X68475700Y-104713729D01*
X68877000Y-104713729D01*
X68899634Y-104711500D01*
X68941959Y-104790685D01*
X69007028Y-104869972D01*
X69085725Y-104934557D01*
X69054609Y-104992773D01*
X69024835Y-105090925D01*
X69014781Y-105193000D01*
X69017300Y-105546525D01*
X69147475Y-105676700D01*
X69796700Y-105676700D01*
X69796700Y-104802475D01*
X69735700Y-104741475D01*
X69735700Y-104041300D01*
X69715700Y-104041300D01*
X69715700Y-103558700D01*
X69735700Y-103558700D01*
X69735700Y-102709475D01*
X69605525Y-102579300D01*
X69377000Y-102576781D01*
X69316276Y-102582762D01*
X69354366Y-102511500D01*
X69377000Y-102513729D01*
%TA.AperFunction,Conductor*%
D24*
G36*
X69377000Y-102513729D02*
G01*
X70413149Y-102513729D01*
X70477300Y-102577880D01*
X70348475Y-102579300D01*
X70218300Y-102709475D01*
X70218300Y-103558700D01*
X70967525Y-103558700D01*
X71097700Y-103428525D01*
X71100219Y-103100000D01*
X71090165Y-102997925D01*
X71060391Y-102899773D01*
X71012041Y-102809315D01*
X70948139Y-102731450D01*
X71424800Y-102731450D01*
X71424800Y-103759623D01*
X71055324Y-104129099D01*
X70967525Y-104041300D01*
X70218300Y-104041300D01*
X70218300Y-104890525D01*
X70279300Y-104951525D01*
X70279300Y-105676700D01*
X70299300Y-105676700D01*
X70299300Y-106159300D01*
X70279300Y-106159300D01*
X70279300Y-106179300D01*
X69796700Y-106179300D01*
X69796700Y-106159300D01*
X69147475Y-106159300D01*
X69017300Y-106289475D01*
X69017086Y-106319506D01*
X68851729Y-106154150D01*
X68851729Y-105443000D01*
X68842819Y-105352531D01*
X68816430Y-105265539D01*
X68773577Y-105185366D01*
X68715906Y-105115094D01*
X68645634Y-105057423D01*
X68565461Y-105014570D01*
X68478469Y-104988181D01*
X68475700Y-104987908D01*
X68475700Y-104713729D01*
X68877000Y-104713729D01*
X68899634Y-104711500D01*
X68941959Y-104790685D01*
X69007028Y-104869972D01*
X69085725Y-104934557D01*
X69054609Y-104992773D01*
X69024835Y-105090925D01*
X69014781Y-105193000D01*
X69017300Y-105546525D01*
X69147475Y-105676700D01*
X69796700Y-105676700D01*
X69796700Y-104802475D01*
X69735700Y-104741475D01*
X69735700Y-104041300D01*
X69715700Y-104041300D01*
X69715700Y-103558700D01*
X69735700Y-103558700D01*
X69735700Y-102709475D01*
X69605525Y-102579300D01*
X69377000Y-102576781D01*
X69316276Y-102582762D01*
X69354366Y-102511500D01*
X69377000Y-102513729D01*
G37*
%TD.AperFunction*%
%TD*%
D23*
%TO.N,GND*%
X77203800Y-97834275D02*
X77333975Y-97964450D01*
X77363931Y-97951464D01*
X77460552Y-97917043D01*
X77548601Y-97864433D01*
X77624694Y-97795657D01*
X77685908Y-97713357D01*
X77712431Y-97657479D01*
X78037500Y-97657479D01*
X78079196Y-97653372D01*
X78110258Y-97643950D01*
X78214742Y-97643950D01*
X78245804Y-97653372D01*
X78287500Y-97657479D01*
X78837500Y-97657479D01*
X78879196Y-97653372D01*
X78910258Y-97643950D01*
X79014742Y-97643950D01*
X79045804Y-97653372D01*
X79087500Y-97657479D01*
X79637500Y-97657479D01*
X79679196Y-97653372D01*
X79710258Y-97643950D01*
X79814742Y-97643950D01*
X79845804Y-97653372D01*
X79887500Y-97657479D01*
X80437500Y-97657479D01*
X80479196Y-97653372D01*
X80510258Y-97643950D01*
X80614742Y-97643950D01*
X80645804Y-97653372D01*
X80687500Y-97657479D01*
X81237500Y-97657479D01*
X81279196Y-97653372D01*
X81310258Y-97643950D01*
X81414742Y-97643950D01*
X81445804Y-97653372D01*
X81487500Y-97657479D01*
X82037500Y-97657479D01*
X82079196Y-97653372D01*
X82110258Y-97643950D01*
X82214742Y-97643950D01*
X82245804Y-97653372D01*
X82287500Y-97657479D01*
X82837500Y-97657479D01*
X82879196Y-97653372D01*
X82910258Y-97643950D01*
X83014742Y-97643950D01*
X83045804Y-97653372D01*
X83087500Y-97657479D01*
X83637500Y-97657479D01*
X83679196Y-97653372D01*
X83710258Y-97643950D01*
X83814742Y-97643950D01*
X83845804Y-97653372D01*
X83887500Y-97657479D01*
X84437500Y-97657479D01*
X84479196Y-97653372D01*
X84510258Y-97643950D01*
X84614742Y-97643950D01*
X84645804Y-97653372D01*
X84687500Y-97657479D01*
X85237500Y-97657479D01*
X85279196Y-97653372D01*
X85310258Y-97643950D01*
X85712300Y-97643950D01*
X85712300Y-98045992D01*
X85702878Y-98077054D01*
X85698771Y-98118750D01*
X85698771Y-98443819D01*
X85642893Y-98470342D01*
X85560593Y-98531556D01*
X85491817Y-98607649D01*
X85439207Y-98695698D01*
X85404786Y-98792319D01*
X85391800Y-98822275D01*
X85521975Y-98952450D01*
X85712300Y-98952450D01*
X85712300Y-99435050D01*
X85521975Y-99435050D01*
X85391800Y-99565225D01*
X85404786Y-99595181D01*
X85439207Y-99691802D01*
X85491817Y-99779851D01*
X85560593Y-99855944D01*
X85642893Y-99917158D01*
X85698771Y-99943681D01*
X85698771Y-100268750D01*
X85702878Y-100310446D01*
X85712300Y-100341508D01*
X85712300Y-100445992D01*
X85702878Y-100477054D01*
X85698771Y-100518750D01*
X85698771Y-101068750D01*
X85702878Y-101110446D01*
X85712300Y-101141508D01*
X85712300Y-101245992D01*
X85702878Y-101277054D01*
X85698771Y-101318750D01*
X85698771Y-101868750D01*
X85702878Y-101910446D01*
X85712300Y-101941508D01*
X85712300Y-102045992D01*
X85702878Y-102077054D01*
X85698771Y-102118750D01*
X85698771Y-102668750D01*
X85702878Y-102710446D01*
X85712300Y-102741508D01*
X85712300Y-102845992D01*
X85702878Y-102877054D01*
X85698771Y-102918750D01*
X85698771Y-103468750D01*
X85702878Y-103510446D01*
X85712300Y-103541508D01*
X85712300Y-103645992D01*
X85702878Y-103677054D01*
X85698771Y-103718750D01*
X85698771Y-104268750D01*
X85702878Y-104310446D01*
X85712300Y-104341508D01*
X85712300Y-104445992D01*
X85702878Y-104477054D01*
X85698771Y-104518750D01*
X85698771Y-104843819D01*
X85642893Y-104870342D01*
X85560593Y-104931556D01*
X85491817Y-105007649D01*
X85439207Y-105095698D01*
X85404786Y-105192319D01*
X85391800Y-105222275D01*
X85521975Y-105352450D01*
X85712300Y-105352450D01*
X85712300Y-105835050D01*
X85521975Y-105835050D01*
X85391800Y-105965225D01*
X85404786Y-105995181D01*
X85439207Y-106091802D01*
X85491817Y-106179851D01*
X85560593Y-106255944D01*
X85642893Y-106317158D01*
X85698771Y-106343681D01*
X85698771Y-106668750D01*
X85702878Y-106710446D01*
X85712300Y-106741508D01*
X85712300Y-107143550D01*
X85310258Y-107143550D01*
X85279196Y-107134128D01*
X85237500Y-107130021D01*
X84687500Y-107130021D01*
X84645804Y-107134128D01*
X84614742Y-107143550D01*
X84510258Y-107143550D01*
X84479196Y-107134128D01*
X84437500Y-107130021D01*
X83887500Y-107130021D01*
X83845804Y-107134128D01*
X83814742Y-107143550D01*
X83710258Y-107143550D01*
X83679196Y-107134128D01*
X83637500Y-107130021D01*
X83087500Y-107130021D01*
X83045804Y-107134128D01*
X83014742Y-107143550D01*
X82910258Y-107143550D01*
X82879196Y-107134128D01*
X82837500Y-107130021D01*
X82512431Y-107130021D01*
X82485908Y-107074143D01*
X82424694Y-106991843D01*
X82348601Y-106923067D01*
X82260552Y-106870457D01*
X82163931Y-106836036D01*
X82133975Y-106823050D01*
X82003800Y-106953225D01*
X82003800Y-107143550D01*
X81521200Y-107143550D01*
X81521200Y-106953225D01*
X81391025Y-106823050D01*
X81361069Y-106836036D01*
X81264448Y-106870457D01*
X81176399Y-106923067D01*
X81100306Y-106991843D01*
X81039092Y-107074143D01*
X81012569Y-107130021D01*
X80687500Y-107130021D01*
X80645804Y-107134128D01*
X80614742Y-107143550D01*
X80510258Y-107143550D01*
X80479196Y-107134128D01*
X80437500Y-107130021D01*
X79887500Y-107130021D01*
X79845804Y-107134128D01*
X79814742Y-107143550D01*
X79710258Y-107143550D01*
X79679196Y-107134128D01*
X79637500Y-107130021D01*
X79087500Y-107130021D01*
X79045804Y-107134128D01*
X79014742Y-107143550D01*
X78910258Y-107143550D01*
X78879196Y-107134128D01*
X78837500Y-107130021D01*
X78287500Y-107130021D01*
X78245804Y-107134128D01*
X78214742Y-107143550D01*
X78110258Y-107143550D01*
X78079196Y-107134128D01*
X78037500Y-107130021D01*
X77487500Y-107130021D01*
X77445804Y-107134128D01*
X77414742Y-107143550D01*
X77310258Y-107143550D01*
X77279196Y-107134128D01*
X77237500Y-107130021D01*
X76687500Y-107130021D01*
X76645804Y-107134128D01*
X76614742Y-107143550D01*
X76212700Y-107143550D01*
X76212700Y-106741508D01*
X76222122Y-106710446D01*
X76226229Y-106668750D01*
X76226229Y-106118750D01*
X76222122Y-106077054D01*
X76212700Y-106045992D01*
X76212700Y-105941508D01*
X76222122Y-105910446D01*
X76226229Y-105868750D01*
X76226229Y-105318750D01*
X76222122Y-105277054D01*
X76212700Y-105245992D01*
X76212700Y-105141508D01*
X76222122Y-105110446D01*
X76226229Y-105068750D01*
X76226229Y-104743681D01*
X76282107Y-104717158D01*
X76364407Y-104655944D01*
X76433183Y-104579851D01*
X76485793Y-104491802D01*
X76520214Y-104395181D01*
X76533200Y-104365225D01*
X76403025Y-104235050D01*
X76212700Y-104235050D01*
X76212700Y-103752450D01*
X76403025Y-103752450D01*
X76533200Y-103622275D01*
X76520214Y-103592319D01*
X76485793Y-103495698D01*
X76433183Y-103407649D01*
X76364407Y-103331556D01*
X76282107Y-103270342D01*
X76226229Y-103243819D01*
X76226229Y-102918750D01*
X76222122Y-102877054D01*
X76212700Y-102845992D01*
X76212700Y-102741508D01*
X76222122Y-102710446D01*
X76226229Y-102668750D01*
X76226229Y-102118750D01*
X76222122Y-102077054D01*
X76212700Y-102045992D01*
X76212700Y-101941508D01*
X76222122Y-101910446D01*
X76226229Y-101868750D01*
X76226229Y-101318750D01*
X76222122Y-101277054D01*
X76212700Y-101245992D01*
X76212700Y-101141508D01*
X76222122Y-101110446D01*
X76226229Y-101068750D01*
X76226229Y-100518750D01*
X76222122Y-100477054D01*
X76212700Y-100445992D01*
X76212700Y-100341508D01*
X76222122Y-100310446D01*
X76226229Y-100268750D01*
X76226229Y-99718750D01*
X76222122Y-99677054D01*
X76212700Y-99645992D01*
X76212700Y-99541508D01*
X76222122Y-99510446D01*
X76226229Y-99468750D01*
X76226229Y-98918750D01*
X76222122Y-98877054D01*
X76212700Y-98845992D01*
X76212700Y-98741508D01*
X76222122Y-98710446D01*
X76226229Y-98668750D01*
X76226229Y-98118750D01*
X76222122Y-98077054D01*
X76212700Y-98045992D01*
X76212700Y-97657755D01*
X76239092Y-97713357D01*
X76300306Y-97795657D01*
X76376399Y-97864433D01*
X76464448Y-97917043D01*
X76561069Y-97951464D01*
X76591025Y-97964450D01*
X76721200Y-97834275D01*
X76721200Y-97643950D01*
X77203800Y-97643950D01*
X77203800Y-97834275D01*
%TA.AperFunction,Conductor*%
D24*
G36*
X77203800Y-97834275D02*
G01*
X77333975Y-97964450D01*
X77363931Y-97951464D01*
X77460552Y-97917043D01*
X77548601Y-97864433D01*
X77624694Y-97795657D01*
X77685908Y-97713357D01*
X77712431Y-97657479D01*
X78037500Y-97657479D01*
X78079196Y-97653372D01*
X78110258Y-97643950D01*
X78214742Y-97643950D01*
X78245804Y-97653372D01*
X78287500Y-97657479D01*
X78837500Y-97657479D01*
X78879196Y-97653372D01*
X78910258Y-97643950D01*
X79014742Y-97643950D01*
X79045804Y-97653372D01*
X79087500Y-97657479D01*
X79637500Y-97657479D01*
X79679196Y-97653372D01*
X79710258Y-97643950D01*
X79814742Y-97643950D01*
X79845804Y-97653372D01*
X79887500Y-97657479D01*
X80437500Y-97657479D01*
X80479196Y-97653372D01*
X80510258Y-97643950D01*
X80614742Y-97643950D01*
X80645804Y-97653372D01*
X80687500Y-97657479D01*
X81237500Y-97657479D01*
X81279196Y-97653372D01*
X81310258Y-97643950D01*
X81414742Y-97643950D01*
X81445804Y-97653372D01*
X81487500Y-97657479D01*
X82037500Y-97657479D01*
X82079196Y-97653372D01*
X82110258Y-97643950D01*
X82214742Y-97643950D01*
X82245804Y-97653372D01*
X82287500Y-97657479D01*
X82837500Y-97657479D01*
X82879196Y-97653372D01*
X82910258Y-97643950D01*
X83014742Y-97643950D01*
X83045804Y-97653372D01*
X83087500Y-97657479D01*
X83637500Y-97657479D01*
X83679196Y-97653372D01*
X83710258Y-97643950D01*
X83814742Y-97643950D01*
X83845804Y-97653372D01*
X83887500Y-97657479D01*
X84437500Y-97657479D01*
X84479196Y-97653372D01*
X84510258Y-97643950D01*
X84614742Y-97643950D01*
X84645804Y-97653372D01*
X84687500Y-97657479D01*
X85237500Y-97657479D01*
X85279196Y-97653372D01*
X85310258Y-97643950D01*
X85712300Y-97643950D01*
X85712300Y-98045992D01*
X85702878Y-98077054D01*
X85698771Y-98118750D01*
X85698771Y-98443819D01*
X85642893Y-98470342D01*
X85560593Y-98531556D01*
X85491817Y-98607649D01*
X85439207Y-98695698D01*
X85404786Y-98792319D01*
X85391800Y-98822275D01*
X85521975Y-98952450D01*
X85712300Y-98952450D01*
X85712300Y-99435050D01*
X85521975Y-99435050D01*
X85391800Y-99565225D01*
X85404786Y-99595181D01*
X85439207Y-99691802D01*
X85491817Y-99779851D01*
X85560593Y-99855944D01*
X85642893Y-99917158D01*
X85698771Y-99943681D01*
X85698771Y-100268750D01*
X85702878Y-100310446D01*
X85712300Y-100341508D01*
X85712300Y-100445992D01*
X85702878Y-100477054D01*
X85698771Y-100518750D01*
X85698771Y-101068750D01*
X85702878Y-101110446D01*
X85712300Y-101141508D01*
X85712300Y-101245992D01*
X85702878Y-101277054D01*
X85698771Y-101318750D01*
X85698771Y-101868750D01*
X85702878Y-101910446D01*
X85712300Y-101941508D01*
X85712300Y-102045992D01*
X85702878Y-102077054D01*
X85698771Y-102118750D01*
X85698771Y-102668750D01*
X85702878Y-102710446D01*
X85712300Y-102741508D01*
X85712300Y-102845992D01*
X85702878Y-102877054D01*
X85698771Y-102918750D01*
X85698771Y-103468750D01*
X85702878Y-103510446D01*
X85712300Y-103541508D01*
X85712300Y-103645992D01*
X85702878Y-103677054D01*
X85698771Y-103718750D01*
X85698771Y-104268750D01*
X85702878Y-104310446D01*
X85712300Y-104341508D01*
X85712300Y-104445992D01*
X85702878Y-104477054D01*
X85698771Y-104518750D01*
X85698771Y-104843819D01*
X85642893Y-104870342D01*
X85560593Y-104931556D01*
X85491817Y-105007649D01*
X85439207Y-105095698D01*
X85404786Y-105192319D01*
X85391800Y-105222275D01*
X85521975Y-105352450D01*
X85712300Y-105352450D01*
X85712300Y-105835050D01*
X85521975Y-105835050D01*
X85391800Y-105965225D01*
X85404786Y-105995181D01*
X85439207Y-106091802D01*
X85491817Y-106179851D01*
X85560593Y-106255944D01*
X85642893Y-106317158D01*
X85698771Y-106343681D01*
X85698771Y-106668750D01*
X85702878Y-106710446D01*
X85712300Y-106741508D01*
X85712300Y-107143550D01*
X85310258Y-107143550D01*
X85279196Y-107134128D01*
X85237500Y-107130021D01*
X84687500Y-107130021D01*
X84645804Y-107134128D01*
X84614742Y-107143550D01*
X84510258Y-107143550D01*
X84479196Y-107134128D01*
X84437500Y-107130021D01*
X83887500Y-107130021D01*
X83845804Y-107134128D01*
X83814742Y-107143550D01*
X83710258Y-107143550D01*
X83679196Y-107134128D01*
X83637500Y-107130021D01*
X83087500Y-107130021D01*
X83045804Y-107134128D01*
X83014742Y-107143550D01*
X82910258Y-107143550D01*
X82879196Y-107134128D01*
X82837500Y-107130021D01*
X82512431Y-107130021D01*
X82485908Y-107074143D01*
X82424694Y-106991843D01*
X82348601Y-106923067D01*
X82260552Y-106870457D01*
X82163931Y-106836036D01*
X82133975Y-106823050D01*
X82003800Y-106953225D01*
X82003800Y-107143550D01*
X81521200Y-107143550D01*
X81521200Y-106953225D01*
X81391025Y-106823050D01*
X81361069Y-106836036D01*
X81264448Y-106870457D01*
X81176399Y-106923067D01*
X81100306Y-106991843D01*
X81039092Y-107074143D01*
X81012569Y-107130021D01*
X80687500Y-107130021D01*
X80645804Y-107134128D01*
X80614742Y-107143550D01*
X80510258Y-107143550D01*
X80479196Y-107134128D01*
X80437500Y-107130021D01*
X79887500Y-107130021D01*
X79845804Y-107134128D01*
X79814742Y-107143550D01*
X79710258Y-107143550D01*
X79679196Y-107134128D01*
X79637500Y-107130021D01*
X79087500Y-107130021D01*
X79045804Y-107134128D01*
X79014742Y-107143550D01*
X78910258Y-107143550D01*
X78879196Y-107134128D01*
X78837500Y-107130021D01*
X78287500Y-107130021D01*
X78245804Y-107134128D01*
X78214742Y-107143550D01*
X78110258Y-107143550D01*
X78079196Y-107134128D01*
X78037500Y-107130021D01*
X77487500Y-107130021D01*
X77445804Y-107134128D01*
X77414742Y-107143550D01*
X77310258Y-107143550D01*
X77279196Y-107134128D01*
X77237500Y-107130021D01*
X76687500Y-107130021D01*
X76645804Y-107134128D01*
X76614742Y-107143550D01*
X76212700Y-107143550D01*
X76212700Y-106741508D01*
X76222122Y-106710446D01*
X76226229Y-106668750D01*
X76226229Y-106118750D01*
X76222122Y-106077054D01*
X76212700Y-106045992D01*
X76212700Y-105941508D01*
X76222122Y-105910446D01*
X76226229Y-105868750D01*
X76226229Y-105318750D01*
X76222122Y-105277054D01*
X76212700Y-105245992D01*
X76212700Y-105141508D01*
X76222122Y-105110446D01*
X76226229Y-105068750D01*
X76226229Y-104743681D01*
X76282107Y-104717158D01*
X76364407Y-104655944D01*
X76433183Y-104579851D01*
X76485793Y-104491802D01*
X76520214Y-104395181D01*
X76533200Y-104365225D01*
X76403025Y-104235050D01*
X76212700Y-104235050D01*
X76212700Y-103752450D01*
X76403025Y-103752450D01*
X76533200Y-103622275D01*
X76520214Y-103592319D01*
X76485793Y-103495698D01*
X76433183Y-103407649D01*
X76364407Y-103331556D01*
X76282107Y-103270342D01*
X76226229Y-103243819D01*
X76226229Y-102918750D01*
X76222122Y-102877054D01*
X76212700Y-102845992D01*
X76212700Y-102741508D01*
X76222122Y-102710446D01*
X76226229Y-102668750D01*
X76226229Y-102118750D01*
X76222122Y-102077054D01*
X76212700Y-102045992D01*
X76212700Y-101941508D01*
X76222122Y-101910446D01*
X76226229Y-101868750D01*
X76226229Y-101318750D01*
X76222122Y-101277054D01*
X76212700Y-101245992D01*
X76212700Y-101141508D01*
X76222122Y-101110446D01*
X76226229Y-101068750D01*
X76226229Y-100518750D01*
X76222122Y-100477054D01*
X76212700Y-100445992D01*
X76212700Y-100341508D01*
X76222122Y-100310446D01*
X76226229Y-100268750D01*
X76226229Y-99718750D01*
X76222122Y-99677054D01*
X76212700Y-99645992D01*
X76212700Y-99541508D01*
X76222122Y-99510446D01*
X76226229Y-99468750D01*
X76226229Y-98918750D01*
X76222122Y-98877054D01*
X76212700Y-98845992D01*
X76212700Y-98741508D01*
X76222122Y-98710446D01*
X76226229Y-98668750D01*
X76226229Y-98118750D01*
X76222122Y-98077054D01*
X76212700Y-98045992D01*
X76212700Y-97657755D01*
X76239092Y-97713357D01*
X76300306Y-97795657D01*
X76376399Y-97864433D01*
X76464448Y-97917043D01*
X76561069Y-97951464D01*
X76591025Y-97964450D01*
X76721200Y-97834275D01*
X76721200Y-97643950D01*
X77203800Y-97643950D01*
X77203800Y-97834275D01*
G37*
%TD.AperFunction*%
%TD*%
D23*
%TO.N,GND*%
X49654300Y-17700302D02*
X49777561Y-17700302D01*
X49650857Y-17861777D01*
X49690586Y-18059603D01*
X49768146Y-18245877D01*
X49880556Y-18413440D01*
X50023496Y-18555853D01*
X50191473Y-18667644D01*
X50281524Y-18700810D01*
X50433700Y-18616210D01*
X50433700Y-17700300D01*
X50413700Y-17700300D01*
X50413700Y-17475200D01*
X50787300Y-17475200D01*
X50787300Y-23799800D01*
X49208200Y-23799800D01*
X49208200Y-23799623D01*
X49208525Y-23799700D01*
X49338700Y-23669525D01*
X49338700Y-22795300D01*
X49318729Y-22795300D01*
X49318729Y-22312700D01*
X49338700Y-22312700D01*
X49338700Y-22292700D01*
X49654300Y-22292700D01*
X49654300Y-22430300D01*
X49720988Y-22624792D01*
X49821300Y-22797312D01*
X49821300Y-23669525D01*
X49951475Y-23799700D01*
X50000608Y-23788129D01*
X50097616Y-23754816D01*
X50186262Y-23703219D01*
X50263138Y-23635319D01*
X50325291Y-23553726D01*
X50370331Y-23461575D01*
X50396528Y-23362408D01*
X50402875Y-23260036D01*
X50401601Y-23064055D01*
X50433700Y-23046210D01*
X50433700Y-21880300D01*
X50402665Y-21880300D01*
X50402875Y-21847964D01*
X50396528Y-21745592D01*
X50370331Y-21646425D01*
X50325291Y-21554274D01*
X50263138Y-21472681D01*
X50186262Y-21404781D01*
X50174097Y-21397700D01*
X50433700Y-21397700D01*
X50433700Y-20231790D01*
X50281524Y-20147190D01*
X50123881Y-20196631D01*
X49960378Y-20321296D01*
X49824338Y-20475463D01*
X49720988Y-20653208D01*
X49675595Y-20785595D01*
X49662659Y-20766236D01*
X49587764Y-20691341D01*
X49499697Y-20632496D01*
X49401841Y-20591963D01*
X49297959Y-20571300D01*
X49192041Y-20571300D01*
X49088159Y-20591963D01*
X48990303Y-20632496D01*
X48902236Y-20691341D01*
X48827341Y-20766236D01*
X48768496Y-20854303D01*
X48727963Y-20952159D01*
X48707300Y-21056041D01*
X48707300Y-21161959D01*
X48727963Y-21265841D01*
X48768496Y-21363697D01*
X48827341Y-21451764D01*
X48875847Y-21500270D01*
X48834709Y-21554274D01*
X48804896Y-21615271D01*
X48505000Y-21615271D01*
X48463304Y-21619378D01*
X48423209Y-21631540D01*
X48386259Y-21651291D01*
X48380000Y-21656428D01*
X48373741Y-21651291D01*
X48336791Y-21631540D01*
X48296696Y-21619378D01*
X48255000Y-21615271D01*
X47955000Y-21615271D01*
X47913304Y-21619378D01*
X47873209Y-21631540D01*
X47855000Y-21641273D01*
X47836791Y-21631540D01*
X47796696Y-21619378D01*
X47755000Y-21615271D01*
X47754750Y-21615271D01*
X47798677Y-21549530D01*
X47844864Y-21438026D01*
X47868409Y-21319654D01*
X47868409Y-21198962D01*
X47844864Y-21080590D01*
X47798677Y-20969086D01*
X47731624Y-20868734D01*
X47646283Y-20783393D01*
X47545931Y-20716340D01*
X47434427Y-20670153D01*
X47316055Y-20646608D01*
X47195363Y-20646608D01*
X47076991Y-20670153D01*
X46965487Y-20716340D01*
X46865135Y-20783393D01*
X46779794Y-20868734D01*
X46712741Y-20969086D01*
X46666554Y-21080590D01*
X46645556Y-21186158D01*
X46596200Y-21171186D01*
X46546580Y-21166299D01*
X46546577Y-21166299D01*
X46529999Y-21164666D01*
X46513421Y-21166299D01*
X45711577Y-21166299D01*
X45694999Y-21164666D01*
X45678421Y-21166299D01*
X45678418Y-21166299D01*
X45628798Y-21171186D01*
X45565142Y-21190496D01*
X45506476Y-21221854D01*
X45455054Y-21264054D01*
X45444479Y-21276940D01*
X45377937Y-21343482D01*
X45365055Y-21354054D01*
X45354486Y-21366933D01*
X45322855Y-21405475D01*
X45306094Y-21436833D01*
X45291497Y-21464142D01*
X45272187Y-21527798D01*
X45268011Y-21570199D01*
X45265667Y-21593998D01*
X45267300Y-21610576D01*
X45267300Y-21616483D01*
X45255000Y-21615271D01*
X44955000Y-21615271D01*
X44913304Y-21619378D01*
X44873209Y-21631540D01*
X44855000Y-21641273D01*
X44836791Y-21631540D01*
X44796696Y-21619378D01*
X44755000Y-21615271D01*
X44455000Y-21615271D01*
X44413304Y-21619378D01*
X44373209Y-21631540D01*
X44336259Y-21651291D01*
X44330000Y-21656428D01*
X44323741Y-21651291D01*
X44286791Y-21631540D01*
X44246696Y-21619378D01*
X44205000Y-21615271D01*
X43905104Y-21615271D01*
X43875291Y-21554274D01*
X43834153Y-21500270D01*
X43882659Y-21451764D01*
X43941504Y-21363697D01*
X43982037Y-21265841D01*
X44002700Y-21161959D01*
X44002700Y-21056041D01*
X43982037Y-20952159D01*
X43941504Y-20854303D01*
X43882659Y-20766236D01*
X43807764Y-20691341D01*
X43719697Y-20632496D01*
X43621841Y-20591963D01*
X43517959Y-20571300D01*
X43412041Y-20571300D01*
X43308159Y-20591963D01*
X43210303Y-20632496D01*
X43122236Y-20691341D01*
X43047341Y-20766236D01*
X43034405Y-20785595D01*
X42989012Y-20653208D01*
X42885662Y-20475463D01*
X42749622Y-20321296D01*
X42586119Y-20196631D01*
X42428476Y-20147190D01*
X42276302Y-20231789D01*
X42276302Y-20068300D01*
X42081450Y-20068300D01*
X42081450Y-18779700D01*
X42276302Y-18779700D01*
X42276302Y-18616211D01*
X42428476Y-18700810D01*
X42518527Y-18667644D01*
X42686504Y-18555853D01*
X42829444Y-18413440D01*
X42941854Y-18245877D01*
X43019414Y-18059603D01*
X43059143Y-17861777D01*
X42932439Y-17700302D01*
X43055700Y-17700302D01*
X43055700Y-17475200D01*
X49654300Y-17475200D01*
X49654300Y-17700302D01*
%TA.AperFunction,Conductor*%
D24*
G36*
X49654300Y-17700302D02*
G01*
X49777561Y-17700302D01*
X49650857Y-17861777D01*
X49690586Y-18059603D01*
X49768146Y-18245877D01*
X49880556Y-18413440D01*
X50023496Y-18555853D01*
X50191473Y-18667644D01*
X50281524Y-18700810D01*
X50433700Y-18616210D01*
X50433700Y-17700300D01*
X50413700Y-17700300D01*
X50413700Y-17475200D01*
X50787300Y-17475200D01*
X50787300Y-23799800D01*
X49208200Y-23799800D01*
X49208200Y-23799623D01*
X49208525Y-23799700D01*
X49338700Y-23669525D01*
X49338700Y-22795300D01*
X49318729Y-22795300D01*
X49318729Y-22312700D01*
X49338700Y-22312700D01*
X49338700Y-22292700D01*
X49654300Y-22292700D01*
X49654300Y-22430300D01*
X49720988Y-22624792D01*
X49821300Y-22797312D01*
X49821300Y-23669525D01*
X49951475Y-23799700D01*
X50000608Y-23788129D01*
X50097616Y-23754816D01*
X50186262Y-23703219D01*
X50263138Y-23635319D01*
X50325291Y-23553726D01*
X50370331Y-23461575D01*
X50396528Y-23362408D01*
X50402875Y-23260036D01*
X50401601Y-23064055D01*
X50433700Y-23046210D01*
X50433700Y-21880300D01*
X50402665Y-21880300D01*
X50402875Y-21847964D01*
X50396528Y-21745592D01*
X50370331Y-21646425D01*
X50325291Y-21554274D01*
X50263138Y-21472681D01*
X50186262Y-21404781D01*
X50174097Y-21397700D01*
X50433700Y-21397700D01*
X50433700Y-20231790D01*
X50281524Y-20147190D01*
X50123881Y-20196631D01*
X49960378Y-20321296D01*
X49824338Y-20475463D01*
X49720988Y-20653208D01*
X49675595Y-20785595D01*
X49662659Y-20766236D01*
X49587764Y-20691341D01*
X49499697Y-20632496D01*
X49401841Y-20591963D01*
X49297959Y-20571300D01*
X49192041Y-20571300D01*
X49088159Y-20591963D01*
X48990303Y-20632496D01*
X48902236Y-20691341D01*
X48827341Y-20766236D01*
X48768496Y-20854303D01*
X48727963Y-20952159D01*
X48707300Y-21056041D01*
X48707300Y-21161959D01*
X48727963Y-21265841D01*
X48768496Y-21363697D01*
X48827341Y-21451764D01*
X48875847Y-21500270D01*
X48834709Y-21554274D01*
X48804896Y-21615271D01*
X48505000Y-21615271D01*
X48463304Y-21619378D01*
X48423209Y-21631540D01*
X48386259Y-21651291D01*
X48380000Y-21656428D01*
X48373741Y-21651291D01*
X48336791Y-21631540D01*
X48296696Y-21619378D01*
X48255000Y-21615271D01*
X47955000Y-21615271D01*
X47913304Y-21619378D01*
X47873209Y-21631540D01*
X47855000Y-21641273D01*
X47836791Y-21631540D01*
X47796696Y-21619378D01*
X47755000Y-21615271D01*
X47754750Y-21615271D01*
X47798677Y-21549530D01*
X47844864Y-21438026D01*
X47868409Y-21319654D01*
X47868409Y-21198962D01*
X47844864Y-21080590D01*
X47798677Y-20969086D01*
X47731624Y-20868734D01*
X47646283Y-20783393D01*
X47545931Y-20716340D01*
X47434427Y-20670153D01*
X47316055Y-20646608D01*
X47195363Y-20646608D01*
X47076991Y-20670153D01*
X46965487Y-20716340D01*
X46865135Y-20783393D01*
X46779794Y-20868734D01*
X46712741Y-20969086D01*
X46666554Y-21080590D01*
X46645556Y-21186158D01*
X46596200Y-21171186D01*
X46546580Y-21166299D01*
X46546577Y-21166299D01*
X46529999Y-21164666D01*
X46513421Y-21166299D01*
X45711577Y-21166299D01*
X45694999Y-21164666D01*
X45678421Y-21166299D01*
X45678418Y-21166299D01*
X45628798Y-21171186D01*
X45565142Y-21190496D01*
X45506476Y-21221854D01*
X45455054Y-21264054D01*
X45444479Y-21276940D01*
X45377937Y-21343482D01*
X45365055Y-21354054D01*
X45354486Y-21366933D01*
X45322855Y-21405475D01*
X45306094Y-21436833D01*
X45291497Y-21464142D01*
X45272187Y-21527798D01*
X45268011Y-21570199D01*
X45265667Y-21593998D01*
X45267300Y-21610576D01*
X45267300Y-21616483D01*
X45255000Y-21615271D01*
X44955000Y-21615271D01*
X44913304Y-21619378D01*
X44873209Y-21631540D01*
X44855000Y-21641273D01*
X44836791Y-21631540D01*
X44796696Y-21619378D01*
X44755000Y-21615271D01*
X44455000Y-21615271D01*
X44413304Y-21619378D01*
X44373209Y-21631540D01*
X44336259Y-21651291D01*
X44330000Y-21656428D01*
X44323741Y-21651291D01*
X44286791Y-21631540D01*
X44246696Y-21619378D01*
X44205000Y-21615271D01*
X43905104Y-21615271D01*
X43875291Y-21554274D01*
X43834153Y-21500270D01*
X43882659Y-21451764D01*
X43941504Y-21363697D01*
X43982037Y-21265841D01*
X44002700Y-21161959D01*
X44002700Y-21056041D01*
X43982037Y-20952159D01*
X43941504Y-20854303D01*
X43882659Y-20766236D01*
X43807764Y-20691341D01*
X43719697Y-20632496D01*
X43621841Y-20591963D01*
X43517959Y-20571300D01*
X43412041Y-20571300D01*
X43308159Y-20591963D01*
X43210303Y-20632496D01*
X43122236Y-20691341D01*
X43047341Y-20766236D01*
X43034405Y-20785595D01*
X42989012Y-20653208D01*
X42885662Y-20475463D01*
X42749622Y-20321296D01*
X42586119Y-20196631D01*
X42428476Y-20147190D01*
X42276302Y-20231789D01*
X42276302Y-20068300D01*
X42081450Y-20068300D01*
X42081450Y-18779700D01*
X42276302Y-18779700D01*
X42276302Y-18616211D01*
X42428476Y-18700810D01*
X42518527Y-18667644D01*
X42686504Y-18555853D01*
X42829444Y-18413440D01*
X42941854Y-18245877D01*
X43019414Y-18059603D01*
X43059143Y-17861777D01*
X42932439Y-17700302D01*
X43055700Y-17700302D01*
X43055700Y-17475200D01*
X49654300Y-17475200D01*
X49654300Y-17700302D01*
G37*
%TD.AperFunction*%
D23*
X43371300Y-22312700D02*
X43391271Y-22312700D01*
X43391271Y-22795300D01*
X43371300Y-22795300D01*
X43371300Y-23669525D01*
X43501475Y-23799700D01*
X43501801Y-23799623D01*
X43501801Y-23799800D01*
X42081450Y-23799800D01*
X42081450Y-23209700D01*
X42276302Y-23209700D01*
X42276302Y-23046211D01*
X42308399Y-23064055D01*
X42307125Y-23260036D01*
X42313472Y-23362408D01*
X42339669Y-23461575D01*
X42384709Y-23553726D01*
X42446862Y-23635319D01*
X42523738Y-23703219D01*
X42612384Y-23754816D01*
X42709392Y-23788129D01*
X42758525Y-23799700D01*
X42888700Y-23669525D01*
X42888700Y-22797312D01*
X42989012Y-22624792D01*
X43055700Y-22430300D01*
X43055700Y-22292700D01*
X43371300Y-22292700D01*
X43371300Y-22312700D01*
%TA.AperFunction,Conductor*%
D24*
G36*
X43371300Y-22312700D02*
G01*
X43391271Y-22312700D01*
X43391271Y-22795300D01*
X43371300Y-22795300D01*
X43371300Y-23669525D01*
X43501475Y-23799700D01*
X43501801Y-23799623D01*
X43501801Y-23799800D01*
X42081450Y-23799800D01*
X42081450Y-23209700D01*
X42276302Y-23209700D01*
X42276302Y-23046211D01*
X42308399Y-23064055D01*
X42307125Y-23260036D01*
X42313472Y-23362408D01*
X42339669Y-23461575D01*
X42384709Y-23553726D01*
X42446862Y-23635319D01*
X42523738Y-23703219D01*
X42612384Y-23754816D01*
X42709392Y-23788129D01*
X42758525Y-23799700D01*
X42888700Y-23669525D01*
X42888700Y-22797312D01*
X42989012Y-22624792D01*
X43055700Y-22430300D01*
X43055700Y-22292700D01*
X43371300Y-22292700D01*
X43371300Y-22312700D01*
G37*
%TD.AperFunction*%
%TD*%
D23*
%TO.N,GND*%
X137927300Y-17700300D02*
X137907300Y-17700300D01*
X137907300Y-18616210D01*
X138059476Y-18700810D01*
X138149527Y-18667644D01*
X138317504Y-18555853D01*
X138460444Y-18413440D01*
X138572854Y-18245877D01*
X138650414Y-18059603D01*
X138690143Y-17861777D01*
X138563439Y-17700302D01*
X138686700Y-17700302D01*
X138686700Y-17475200D01*
X145285300Y-17475200D01*
X145285300Y-17700302D01*
X145408561Y-17700302D01*
X145281857Y-17861777D01*
X145321586Y-18059603D01*
X145399146Y-18245877D01*
X145511556Y-18413440D01*
X145654496Y-18555853D01*
X145822473Y-18667644D01*
X145912524Y-18700810D01*
X146064700Y-18616210D01*
X146064700Y-17700300D01*
X146044700Y-17700300D01*
X146044700Y-17475200D01*
X146567300Y-17475200D01*
X146567300Y-17700300D01*
X146547300Y-17700300D01*
X146547300Y-18616210D01*
X146699476Y-18700810D01*
X146789527Y-18667644D01*
X146831050Y-18640010D01*
X146831050Y-20188455D01*
X146699476Y-20147190D01*
X146547300Y-20231790D01*
X146547300Y-21397700D01*
X146567300Y-21397700D01*
X146567300Y-21880300D01*
X146547300Y-21880300D01*
X146547300Y-21900300D01*
X146064700Y-21900300D01*
X146064700Y-21880300D01*
X146033665Y-21880300D01*
X146033875Y-21847964D01*
X146027528Y-21745592D01*
X146001331Y-21646425D01*
X145956291Y-21554274D01*
X145894138Y-21472681D01*
X145817262Y-21404781D01*
X145805097Y-21397700D01*
X146064700Y-21397700D01*
X146064700Y-20231790D01*
X145912524Y-20147190D01*
X145754881Y-20196631D01*
X145591378Y-20321296D01*
X145455338Y-20475463D01*
X145351988Y-20653208D01*
X145306595Y-20785595D01*
X145293659Y-20766236D01*
X145218764Y-20691341D01*
X145130697Y-20632496D01*
X145032841Y-20591963D01*
X144928959Y-20571300D01*
X144823041Y-20571300D01*
X144719159Y-20591963D01*
X144621303Y-20632496D01*
X144533236Y-20691341D01*
X144458341Y-20766236D01*
X144399496Y-20854303D01*
X144358963Y-20952159D01*
X144338300Y-21056041D01*
X144338300Y-21060032D01*
X143995654Y-20717386D01*
X143983031Y-20702005D01*
X143921636Y-20651619D01*
X143851591Y-20614179D01*
X143775588Y-20591124D01*
X143716345Y-20585289D01*
X143716338Y-20585289D01*
X143696547Y-20583340D01*
X143676756Y-20585289D01*
X140243396Y-20585289D01*
X140223608Y-20583340D01*
X140203820Y-20585289D01*
X140203811Y-20585289D01*
X140144568Y-20591124D01*
X140068565Y-20614179D01*
X139998520Y-20651619D01*
X139937125Y-20702005D01*
X139924507Y-20717381D01*
X139625761Y-21016127D01*
X139613037Y-20952159D01*
X139572504Y-20854303D01*
X139513659Y-20766236D01*
X139438764Y-20691341D01*
X139350697Y-20632496D01*
X139252841Y-20591963D01*
X139148959Y-20571300D01*
X139043041Y-20571300D01*
X138939159Y-20591963D01*
X138841303Y-20632496D01*
X138753236Y-20691341D01*
X138678341Y-20766236D01*
X138665405Y-20785595D01*
X138620012Y-20653208D01*
X138516662Y-20475463D01*
X138380622Y-20321296D01*
X138217119Y-20196631D01*
X138059476Y-20147190D01*
X137907300Y-20231790D01*
X137907300Y-21397700D01*
X138166903Y-21397700D01*
X138154738Y-21404781D01*
X138077862Y-21472681D01*
X138015709Y-21554274D01*
X137970669Y-21646425D01*
X137944472Y-21745592D01*
X137938125Y-21847964D01*
X137938335Y-21880300D01*
X137907300Y-21880300D01*
X137907300Y-21900300D01*
X137424700Y-21900300D01*
X137424700Y-21880300D01*
X137404700Y-21880300D01*
X137404700Y-21397700D01*
X137424700Y-21397700D01*
X137424700Y-20231790D01*
X137331450Y-20179949D01*
X137331450Y-18668051D01*
X137424700Y-18616210D01*
X137424700Y-17700300D01*
X137404700Y-17700300D01*
X137404700Y-17475200D01*
X137927300Y-17475200D01*
X137927300Y-17700300D01*
%TA.AperFunction,Conductor*%
D24*
G36*
X137927300Y-17700300D02*
G01*
X137907300Y-17700300D01*
X137907300Y-18616210D01*
X138059476Y-18700810D01*
X138149527Y-18667644D01*
X138317504Y-18555853D01*
X138460444Y-18413440D01*
X138572854Y-18245877D01*
X138650414Y-18059603D01*
X138690143Y-17861777D01*
X138563439Y-17700302D01*
X138686700Y-17700302D01*
X138686700Y-17475200D01*
X145285300Y-17475200D01*
X145285300Y-17700302D01*
X145408561Y-17700302D01*
X145281857Y-17861777D01*
X145321586Y-18059603D01*
X145399146Y-18245877D01*
X145511556Y-18413440D01*
X145654496Y-18555853D01*
X145822473Y-18667644D01*
X145912524Y-18700810D01*
X146064700Y-18616210D01*
X146064700Y-17700300D01*
X146044700Y-17700300D01*
X146044700Y-17475200D01*
X146567300Y-17475200D01*
X146567300Y-17700300D01*
X146547300Y-17700300D01*
X146547300Y-18616210D01*
X146699476Y-18700810D01*
X146789527Y-18667644D01*
X146831050Y-18640010D01*
X146831050Y-20188455D01*
X146699476Y-20147190D01*
X146547300Y-20231790D01*
X146547300Y-21397700D01*
X146567300Y-21397700D01*
X146567300Y-21880300D01*
X146547300Y-21880300D01*
X146547300Y-21900300D01*
X146064700Y-21900300D01*
X146064700Y-21880300D01*
X146033665Y-21880300D01*
X146033875Y-21847964D01*
X146027528Y-21745592D01*
X146001331Y-21646425D01*
X145956291Y-21554274D01*
X145894138Y-21472681D01*
X145817262Y-21404781D01*
X145805097Y-21397700D01*
X146064700Y-21397700D01*
X146064700Y-20231790D01*
X145912524Y-20147190D01*
X145754881Y-20196631D01*
X145591378Y-20321296D01*
X145455338Y-20475463D01*
X145351988Y-20653208D01*
X145306595Y-20785595D01*
X145293659Y-20766236D01*
X145218764Y-20691341D01*
X145130697Y-20632496D01*
X145032841Y-20591963D01*
X144928959Y-20571300D01*
X144823041Y-20571300D01*
X144719159Y-20591963D01*
X144621303Y-20632496D01*
X144533236Y-20691341D01*
X144458341Y-20766236D01*
X144399496Y-20854303D01*
X144358963Y-20952159D01*
X144338300Y-21056041D01*
X144338300Y-21060032D01*
X143995654Y-20717386D01*
X143983031Y-20702005D01*
X143921636Y-20651619D01*
X143851591Y-20614179D01*
X143775588Y-20591124D01*
X143716345Y-20585289D01*
X143716338Y-20585289D01*
X143696547Y-20583340D01*
X143676756Y-20585289D01*
X140243396Y-20585289D01*
X140223608Y-20583340D01*
X140203820Y-20585289D01*
X140203811Y-20585289D01*
X140144568Y-20591124D01*
X140068565Y-20614179D01*
X139998520Y-20651619D01*
X139937125Y-20702005D01*
X139924507Y-20717381D01*
X139625761Y-21016127D01*
X139613037Y-20952159D01*
X139572504Y-20854303D01*
X139513659Y-20766236D01*
X139438764Y-20691341D01*
X139350697Y-20632496D01*
X139252841Y-20591963D01*
X139148959Y-20571300D01*
X139043041Y-20571300D01*
X138939159Y-20591963D01*
X138841303Y-20632496D01*
X138753236Y-20691341D01*
X138678341Y-20766236D01*
X138665405Y-20785595D01*
X138620012Y-20653208D01*
X138516662Y-20475463D01*
X138380622Y-20321296D01*
X138217119Y-20196631D01*
X138059476Y-20147190D01*
X137907300Y-20231790D01*
X137907300Y-21397700D01*
X138166903Y-21397700D01*
X138154738Y-21404781D01*
X138077862Y-21472681D01*
X138015709Y-21554274D01*
X137970669Y-21646425D01*
X137944472Y-21745592D01*
X137938125Y-21847964D01*
X137938335Y-21880300D01*
X137907300Y-21880300D01*
X137907300Y-21900300D01*
X137424700Y-21900300D01*
X137424700Y-21880300D01*
X137404700Y-21880300D01*
X137404700Y-21397700D01*
X137424700Y-21397700D01*
X137424700Y-20231790D01*
X137331450Y-20179949D01*
X137331450Y-18668051D01*
X137424700Y-18616210D01*
X137424700Y-17700300D01*
X137404700Y-17700300D01*
X137404700Y-17475200D01*
X137927300Y-17475200D01*
X137927300Y-17700300D01*
G37*
%TD.AperFunction*%
%TD*%
D25*
X142748000Y-57150000D02*
X142750440Y-57174776D01*
X142757667Y-57198601D01*
X142769403Y-57220557D01*
X142785197Y-57239803D01*
X142804443Y-57255597D01*
X142826399Y-57267333D01*
X142850224Y-57274560D01*
X142875000Y-57277000D01*
X144335500Y-57277000D01*
X144335500Y-58610500D01*
X142875000Y-58610500D01*
X142850224Y-58612940D01*
X142826399Y-58620167D01*
X142804443Y-58631903D01*
X142785197Y-58647697D01*
X142769403Y-58666943D01*
X142757667Y-58688899D01*
X142750440Y-58712724D01*
X142748000Y-58737500D01*
X142748000Y-64293750D01*
X142750440Y-64318526D01*
X142757667Y-64342351D01*
X142769403Y-64364307D01*
X142785197Y-64383553D01*
X142804443Y-64399347D01*
X142826399Y-64411083D01*
X142850224Y-64418310D01*
X142875000Y-64420750D01*
X144335500Y-64420750D01*
X144335500Y-65754250D01*
X141414500Y-65754250D01*
X141414500Y-62706250D01*
X141412060Y-62681474D01*
X141404833Y-62657649D01*
X141393097Y-62635693D01*
X141377303Y-62616447D01*
X141358057Y-62600653D01*
X141336101Y-62588917D01*
X141312276Y-62581690D01*
X141287500Y-62579250D01*
X138112500Y-62579250D01*
X138087724Y-62581690D01*
X138063899Y-62588917D01*
X138041943Y-62600653D01*
X138022697Y-62616447D01*
X138006903Y-62635693D01*
X137995167Y-62657649D01*
X137987940Y-62681474D01*
X137985500Y-62706250D01*
X137985500Y-64293750D01*
X137987940Y-64318526D01*
X137995167Y-64342351D01*
X138006903Y-64364307D01*
X138022697Y-64383553D01*
X138041943Y-64399347D01*
X138063899Y-64411083D01*
X138087724Y-64418310D01*
X138112500Y-64420750D01*
X139573000Y-64420750D01*
X139573000Y-65754250D01*
X136652000Y-65754250D01*
X136652000Y-58737500D01*
X136649560Y-58712724D01*
X136642333Y-58688899D01*
X136630597Y-58666943D01*
X136614803Y-58647697D01*
X136595557Y-58631903D01*
X136573601Y-58620167D01*
X136549776Y-58612940D01*
X136525000Y-58610500D01*
X135064500Y-58610500D01*
X135064500Y-57277000D01*
X137985500Y-57277000D01*
X137985500Y-60325000D01*
X137987940Y-60349776D01*
X137995167Y-60373601D01*
X138006903Y-60395557D01*
X138022697Y-60414803D01*
X138041943Y-60430597D01*
X138063899Y-60442333D01*
X138087724Y-60449560D01*
X138112500Y-60452000D01*
X141287500Y-60452000D01*
X141312276Y-60449560D01*
X141336101Y-60442333D01*
X141358057Y-60430597D01*
X141377303Y-60414803D01*
X141393097Y-60395557D01*
X141404833Y-60373601D01*
X141412060Y-60349776D01*
X141414500Y-60325000D01*
X141414500Y-57202606D01*
X142748000Y-55869106D01*
X142748000Y-57150000D01*
%TA.AperFunction,NonConductor*%
D26*
G36*
X142748000Y-57150000D02*
G01*
X142750440Y-57174776D01*
X142757667Y-57198601D01*
X142769403Y-57220557D01*
X142785197Y-57239803D01*
X142804443Y-57255597D01*
X142826399Y-57267333D01*
X142850224Y-57274560D01*
X142875000Y-57277000D01*
X144335500Y-57277000D01*
X144335500Y-58610500D01*
X142875000Y-58610500D01*
X142850224Y-58612940D01*
X142826399Y-58620167D01*
X142804443Y-58631903D01*
X142785197Y-58647697D01*
X142769403Y-58666943D01*
X142757667Y-58688899D01*
X142750440Y-58712724D01*
X142748000Y-58737500D01*
X142748000Y-64293750D01*
X142750440Y-64318526D01*
X142757667Y-64342351D01*
X142769403Y-64364307D01*
X142785197Y-64383553D01*
X142804443Y-64399347D01*
X142826399Y-64411083D01*
X142850224Y-64418310D01*
X142875000Y-64420750D01*
X144335500Y-64420750D01*
X144335500Y-65754250D01*
X141414500Y-65754250D01*
X141414500Y-62706250D01*
X141412060Y-62681474D01*
X141404833Y-62657649D01*
X141393097Y-62635693D01*
X141377303Y-62616447D01*
X141358057Y-62600653D01*
X141336101Y-62588917D01*
X141312276Y-62581690D01*
X141287500Y-62579250D01*
X138112500Y-62579250D01*
X138087724Y-62581690D01*
X138063899Y-62588917D01*
X138041943Y-62600653D01*
X138022697Y-62616447D01*
X138006903Y-62635693D01*
X137995167Y-62657649D01*
X137987940Y-62681474D01*
X137985500Y-62706250D01*
X137985500Y-64293750D01*
X137987940Y-64318526D01*
X137995167Y-64342351D01*
X138006903Y-64364307D01*
X138022697Y-64383553D01*
X138041943Y-64399347D01*
X138063899Y-64411083D01*
X138087724Y-64418310D01*
X138112500Y-64420750D01*
X139573000Y-64420750D01*
X139573000Y-65754250D01*
X136652000Y-65754250D01*
X136652000Y-58737500D01*
X136649560Y-58712724D01*
X136642333Y-58688899D01*
X136630597Y-58666943D01*
X136614803Y-58647697D01*
X136595557Y-58631903D01*
X136573601Y-58620167D01*
X136549776Y-58612940D01*
X136525000Y-58610500D01*
X135064500Y-58610500D01*
X135064500Y-57277000D01*
X137985500Y-57277000D01*
X137985500Y-60325000D01*
X137987940Y-60349776D01*
X137995167Y-60373601D01*
X138006903Y-60395557D01*
X138022697Y-60414803D01*
X138041943Y-60430597D01*
X138063899Y-60442333D01*
X138087724Y-60449560D01*
X138112500Y-60452000D01*
X141287500Y-60452000D01*
X141312276Y-60449560D01*
X141336101Y-60442333D01*
X141358057Y-60430597D01*
X141377303Y-60414803D01*
X141393097Y-60395557D01*
X141404833Y-60373601D01*
X141412060Y-60349776D01*
X141414500Y-60325000D01*
X141414500Y-57202606D01*
X142748000Y-55869106D01*
X142748000Y-57150000D01*
G37*
%TD.AperFunction*%
D27*
X150006050Y-67456050D02*
X130988729Y-67456050D01*
X130988729Y-66956250D01*
X130984622Y-66914554D01*
X130981450Y-66904097D01*
X130981450Y-65893950D01*
X150006050Y-65893950D01*
X150006050Y-67456050D01*
%TA.AperFunction,NonConductor*%
D26*
G36*
X150006050Y-67456050D02*
G01*
X130988729Y-67456050D01*
X130988729Y-66956250D01*
X130984622Y-66914554D01*
X130981450Y-66904097D01*
X130981450Y-65893950D01*
X150006050Y-65893950D01*
X150006050Y-67456050D01*
G37*
%TD.AperFunction*%
M02*
