M48
; DRILL file {KiCad (5.1.10-1-10_14)} date Friday, June 17, 2022 at 07:42:28 PM
; FORMAT={-:-/ absolute / inch / decimal}
; #@! TF.CreationDate,2022-06-17T19:42:28+09:00
; #@! TF.GenerationSoftware,Kicad,Pcbnew,(5.1.10-1-10_14)
; #@! TF.FileFunction,Plated,1,2,PTH
FMAT,2
INCH
T1C0.0157
T2C0.0236
T3C0.0579
%
G90
G05
T1
X1.855Y-0.9766
X1.8605Y-0.837
X1.8903Y-0.946
X1.95Y-4.255
X1.9511Y-1.1889
X2.0163Y-1.3487
X2.0173Y-1.39
X2.025Y-4.19
X2.075Y-4.23
X2.12Y-4.19
X2.1639Y-1.3611
X2.195Y-1.39
X2.4603Y-4.2153
X2.6748Y-3.83
X2.737Y-3.83
X2.737Y-3.87
X2.865Y-4.0
X2.8869Y-4.3281
X2.895Y-3.97
X2.9Y-4.235
X2.9309Y-4.2839
X2.935Y-3.835
X2.9475Y-4.2268
X3.035Y-3.57
X3.09Y-1.22
X3.105Y-4.315
X3.1075Y-3.6418
X3.1484Y-3.6413
X3.155Y-3.535
X3.1769Y-3.6704
X3.2055Y-3.6991
X3.2663Y-2.0337
X3.4213Y-2.7837
X3.4287Y-1.2837
X3.4924Y-3.7449
X3.5018Y-4.3118
X3.5599Y-3.7449
X3.6139Y-4.1997
X3.655Y-4.205
X3.7048Y-4.1085
X3.76Y-4.12
X3.9Y-3.485
X3.99Y-4.195
X3.99Y-4.235
X3.995Y-4.095
X4.73Y-2.385
X4.7518Y-2.4178
X4.81Y-2.31
X4.8326Y-2.3422
X5.29Y-1.58
X5.3184Y-1.6079
X5.3389Y-1.5361
X5.3668Y-1.5639
X5.495Y-1.11
X5.555Y-1.2552
X5.635Y-1.255
X5.69Y-1.11
T3
X0.9437Y-1.6812
X1.1312Y-2.4312
X1.1937Y-1.5813
X1.3187Y-0.9313
X1.3812Y-2.3312
X1.5062Y-3.1812
X1.5687Y-0.8312
X1.6937Y-1.6812
X1.7562Y-3.0812
X1.8812Y-2.4312
X1.9437Y-1.5813
X2.0688Y-0.9313
X2.1313Y-2.3312
X2.1625Y-3.9312
X2.2563Y-3.1812
X2.3188Y-0.8312
X2.4125Y-3.8312
X2.4438Y-1.6812
X2.5063Y-3.0812
X2.6313Y-2.4312
X2.6938Y-1.5813
X2.8188Y-0.9313
X2.8813Y-2.3312
X3.0063Y-3.1812
X3.0688Y-0.8312
X3.1938Y-1.6812
X3.2563Y-3.0812
X3.3813Y-2.4312
X3.4438Y-1.5813
X3.5688Y-0.9313
X3.6313Y-2.3312
X3.6625Y-3.9312
X3.7563Y-3.1812
X3.8188Y-0.8312
X3.9125Y-3.8312
X3.9438Y-1.6812
X4.0062Y-3.0812
X4.1312Y-2.4312
X4.1937Y-1.5813
X4.3187Y-0.9313
X4.3812Y-2.3312
X4.5062Y-3.1812
X4.5687Y-0.8312
X4.6Y-3.9312
X4.6937Y-1.6812
X4.7562Y-3.0812
X4.85Y-3.8312
X4.8812Y-2.4312
X4.9437Y-1.5813
X5.0687Y-0.9313
X5.1312Y-2.3312
X5.3187Y-0.8312
X5.4437Y-1.6812
X5.5375Y-3.9312
X5.6937Y-1.5813
X5.7875Y-3.8312
X5.9125Y-3.1812
X6.1Y-2.4312
X6.1625Y-3.0812
X6.1937Y-0.9313
X6.35Y-2.3312
X6.3812Y-1.6812
X6.4437Y-0.8312
X6.475Y-3.9312
X6.6312Y-1.5813
X6.725Y-3.8312
T2
G00X1.6549Y-0.6756
M15
G01X1.6549Y-0.6992
M16
G05
G00X1.6549Y-0.8303
M15
G01X1.6549Y-0.8736
M16
G05
G00X1.9951Y-0.6756
M15
G01X1.9951Y-0.6992
M16
G05
G00X1.9951Y-0.8303
M15
G01X1.9951Y-0.8736
M16
G05
G00X5.4199Y-0.6756
M15
G01X5.4199Y-0.6992
M16
G05
G00X5.4199Y-0.8303
M15
G01X5.4199Y-0.8736
M16
G05
G00X5.7601Y-0.6756
M15
G01X5.7601Y-0.6992
M16
G05
G00X5.7601Y-0.8303
M15
G01X5.7601Y-0.8736
M16
G05
T0
M30
