M48
; DRILL file {KiCad (5.1.10-1-10_14)} date Friday, June 17, 2022 at 08:08:19 PM
; FORMAT={-:-/ absolute / inch / decimal}
; #@! TF.CreationDate,2022-06-17T20:08:19+09:00
; #@! TF.GenerationSoftware,Kicad,Pcbnew,(5.1.10-1-10_14)
; #@! TF.FileFunction,Plated,1,2,PTH
FMAT,2
INCH
T1C0.0157
T2C0.0236
T3C0.0579
%
G90
G05
T1
X1.9Y-1.695
X1.945Y-2.0
X1.95Y-1.78
X2.01Y-1.725
X2.055Y-1.725
X2.1507Y-1.8143
X2.155Y-1.695
X2.21Y-1.93
X2.3Y-2.3075
X2.33Y-3.225
X2.335Y-3.405
X2.41Y-3.225
X2.41Y-3.405
X2.6206Y-4.5981
X2.64Y-4.6837
X2.66Y-2.7514
X2.6614Y-2.8125
X2.685Y-4.5
X2.91Y-3.735
X2.9536Y-3.7314
X3.17Y-3.5
X3.6385Y-4.1335
X3.6965Y-4.7
X3.7225Y-4.2364
X3.725Y-2.0585
X3.75Y-4.9688
X3.7535Y-4.83
X3.765Y-4.6757
X3.7852Y-4.5499
X3.8125Y-5.0435
X3.8125Y-5.1007
X3.8846Y-4.793
X3.8869Y-4.4607
X3.9156Y-4.9864
X3.92Y-4.19
X3.92Y-5.0435
X3.9375Y-4.4296
X3.9375Y-4.5312
X3.955Y-4.9864
X3.9606Y-4.305
X3.965Y-4.19
X3.995Y-5.0435
X4.0Y-4.305
X4.04Y-4.38
X4.0995Y-5.008
X4.2Y-5.0435
X4.2157Y-4.4553
X4.25Y-4.265
X4.255Y-4.4524
X4.2803Y-5.001
X4.2865Y-5.125
X4.29Y-3.53
X4.3Y-2.78
X4.3Y-4.4524
X4.3236Y-3.6014
X4.325Y-4.76
X4.34Y-4.4532
X4.345Y-4.9864
X4.3639Y-3.5611
X4.365Y-4.3998
X4.4223Y-4.3998
X4.4223Y-4.7327
X4.425Y-4.795
X4.43Y-4.635
X4.4411Y-4.8426
X4.465Y-4.4175
X4.49Y-4.76
X4.4936Y-4.385
X4.5009Y-4.6259
X4.5161Y-4.2339
X4.545Y-3.84
X4.547Y-4.5358
X4.58Y-3.865
X4.5964Y-3.7936
X4.6148Y-3.8927
X4.6243Y-3.8214
X4.68Y-4.63
X4.8014Y-2.845
X4.8161Y-4.4339
X4.83Y-2.81
X4.8872Y-3.5585
X4.9648Y-3.1177
X5.009Y-4.6447
X5.0625Y-4.2364
X5.0625Y-4.3125
X5.075Y-4.65
X5.14Y-2.8765
X5.17Y-4.485
X5.2904Y-4.5704
X5.315Y-3.86
X5.3164Y-3.7636
X5.4311Y-2.2714
X5.4592Y-4.0808
X5.4723Y-2.3127
X5.4871Y-4.0279
X5.5127Y-2.2723
X5.63Y-3.045
X5.6375Y-2.0585
X5.6598Y-2.8085
X5.66Y-2.8479
X5.6789Y-3.0011
X5.68Y-1.92
X5.7Y-2.0
X5.75Y-1.815
X5.75Y-1.915
X5.81Y-1.82
X5.815Y-1.915
X5.8524Y-1.7875
X5.93Y-2.0014
T3
X1.5062Y-1.6812
X1.6Y-4.6812
X1.6937Y-2.4312
X1.7562Y-1.5813
X1.7875Y-3.1812
X1.85Y-4.5812
X1.9437Y-2.3312
X1.975Y-3.9312
X2.0375Y-3.0812
X2.225Y-3.8312
X2.2563Y-1.6812
X2.5063Y-1.5813
X2.5375Y-4.6812
X2.6313Y-2.4312
X2.7875Y-4.5812
X2.8188Y-3.1812
X2.8813Y-2.3312
X3.0063Y-1.6812
X3.0688Y-3.0812
X3.1938Y-3.9312
X3.2563Y-1.5813
X3.3813Y-2.4312
X3.4438Y-3.8312
X3.475Y-4.6812
X3.5688Y-3.1812
X3.6313Y-2.3312
X3.725Y-4.5812
X3.7563Y-1.6812
X3.8188Y-3.0812
X3.9438Y-3.9312
X4.0062Y-1.5813
X4.1312Y-2.4312
X4.1937Y-3.8312
X4.3187Y-3.1812
X4.3812Y-2.3312
X4.5062Y-1.6812
X4.5687Y-3.0812
X4.6937Y-3.9312
X4.7562Y-1.5813
X4.7875Y-4.6812
X4.8812Y-2.4312
X4.9437Y-3.8312
X5.0375Y-4.5812
X5.0687Y-3.1812
X5.1312Y-2.3312
X5.2562Y-1.6812
X5.3187Y-3.0812
X5.4437Y-3.9312
X5.5062Y-1.5813
X5.6312Y-2.4312
X5.6937Y-3.8312
X5.8187Y-3.1812
X5.8812Y-2.3312
X6.0062Y-1.6812
X6.0687Y-3.0812
X6.1Y-4.6812
X6.1937Y-3.9312
X6.2562Y-1.5813
X6.35Y-4.5812
X6.4437Y-3.8312
T2
G00X1.8599Y-1.4306
M15
G01X1.8599Y-1.4542
M16
G05
G00X1.8599Y-1.5853
M15
G01X1.8599Y-1.6286
M16
G05
G00X2.2001Y-1.4306
M15
G01X2.2001Y-1.4542
M16
G05
G00X2.2001Y-1.5853
M15
G01X2.2001Y-1.6286
M16
G05
G00X5.6099Y-1.4306
M15
G01X5.6099Y-1.4542
M16
G05
G00X5.6099Y-1.5853
M15
G01X5.6099Y-1.6286
M16
G05
G00X5.9501Y-1.4306
M15
G01X5.9501Y-1.4542
M16
G05
G00X5.9501Y-1.5853
M15
G01X5.9501Y-1.6286
M16
G05
T0
M30
