M48
; DRILL file {KiCad (5.1.10-1-10_14)} date Friday, June 17, 2022 at 08:08:19 PM
; FORMAT={-:-/ absolute / inch / decimal}
; #@! TF.CreationDate,2022-06-17T20:08:19+09:00
; #@! TF.GenerationSoftware,Kicad,Pcbnew,(5.1.10-1-10_14)
; #@! TF.FileFunction,NonPlated,1,2,NPTH
FMAT,2
INCH
T1C0.0256
T2C0.0689
T3C0.1200
T4C0.1570
%
G90
G05
T1
X1.9162Y-1.5861
X2.1438Y-1.5861
X5.6662Y-1.5861
X5.8938Y-1.5861
T2
X1.4563Y-1.7812
X1.55Y-4.7812
X1.6438Y-2.5312
X1.7375Y-3.2812
X1.8562Y-1.7812
X1.925Y-4.0312
X1.95Y-4.7812
X2.0437Y-2.5312
X2.1375Y-3.2812
X2.2062Y-1.7812
X2.325Y-4.0312
X2.4875Y-4.7812
X2.5812Y-2.5312
X2.6062Y-1.7812
X2.7687Y-3.2812
X2.8875Y-4.7812
X2.9562Y-1.7812
X2.9812Y-2.5312
X3.1437Y-4.0312
X3.1687Y-3.2812
X3.3312Y-2.5312
X3.3562Y-1.7812
X3.425Y-4.7812
X3.5187Y-3.2812
X3.5437Y-4.0312
X3.7062Y-1.7812
X3.7312Y-2.5312
X3.825Y-4.7812
X3.8937Y-4.0312
X3.9187Y-3.2812
X4.0812Y-2.5312
X4.1063Y-1.7812
X4.2687Y-3.2812
X4.2938Y-4.0312
X4.4562Y-1.7812
X4.4813Y-2.5312
X4.6437Y-4.0312
X4.6688Y-3.2812
X4.7375Y-4.7812
X4.8312Y-2.5312
X4.8563Y-1.7812
X5.0187Y-3.2812
X5.0438Y-4.0312
X5.1375Y-4.7812
X5.2062Y-1.7812
X5.2313Y-2.5312
X5.3937Y-4.0312
X5.4188Y-3.2812
X5.5812Y-2.5312
X5.6063Y-1.7812
X5.7687Y-3.2812
X5.7938Y-4.0312
X5.9562Y-1.7812
X5.9813Y-2.5312
X6.05Y-4.7812
X6.1437Y-4.0312
X6.1688Y-3.2812
X6.3563Y-1.7812
X6.45Y-4.7812
X6.5438Y-4.0312
T3
X1.6562Y-3.7563
X2.5938Y-3.7563
X4.4688Y-4.5062
X5.4062Y-4.5062
T4
X1.6562Y-1.7812
X1.6562Y-4.3563
X1.75Y-4.7812
X1.8438Y-2.5312
X1.9375Y-3.2812
X2.125Y-4.0312
X2.4062Y-1.7812
X2.5938Y-4.3563
X2.6875Y-4.7812
X2.7812Y-2.5312
X2.9688Y-3.2812
X3.1562Y-1.7812
X3.3438Y-4.0312
X3.5312Y-2.5312
X3.625Y-4.7812
X3.7188Y-3.2812
X3.9062Y-1.7812
X4.0938Y-4.0312
X4.2812Y-2.5312
X4.4688Y-3.2812
X4.4688Y-5.1063
X4.6562Y-1.7812
X4.8438Y-4.0312
X4.9375Y-4.7812
X5.0312Y-2.5312
X5.2188Y-3.2812
X5.4062Y-1.7812
X5.4062Y-5.1063
X5.5938Y-4.0312
X5.7812Y-2.5312
X5.9688Y-3.2812
X6.1562Y-1.7812
X6.25Y-4.7812
X6.3438Y-4.0312
T0
M30
