%TF.GenerationSoftware,KiCad,Pcbnew,(5.1.10-1-10_14)*%
%TF.CreationDate,2022-06-17T20:08:22+09:00*%
%TF.ProjectId,pcb-left,7063622d-6c65-4667-942e-6b696361645f,rev?*%
%TF.SameCoordinates,Original*%
%TF.FileFunction,Paste,Bot*%
%TF.FilePolarity,Positive*%
%FSLAX46Y46*%
G04 Gerber Fmt 4.6, Leading zero omitted, Abs format (unit mm)*
G04 Created by KiCad (PCBNEW (5.1.10-1-10_14)) date 2022-06-17 20:08:22*
%MOMM*%
%LPD*%
G01*
G04 APERTURE LIST*
%ADD10R,1.200000X1.400000*%
%ADD11R,1.500000X0.550000*%
%ADD12R,0.550000X1.500000*%
%ADD13R,1.800000X1.100000*%
%ADD14R,1.200000X0.900000*%
G04 APERTURE END LIST*
%TO.C,R9*%
G36*
G01*
X96443750Y-113162501D02*
X96443750Y-112262499D01*
G75*
G02*
X96693749Y-112012500I249999J0D01*
G01*
X97218751Y-112012500D01*
G75*
G02*
X97468750Y-112262499I0J-249999D01*
G01*
X97468750Y-113162501D01*
G75*
G02*
X97218751Y-113412500I-249999J0D01*
G01*
X96693749Y-113412500D01*
G75*
G02*
X96443750Y-113162501I0J249999D01*
G01*
G37*
G36*
G01*
X94618750Y-113162501D02*
X94618750Y-112262499D01*
G75*
G02*
X94868749Y-112012500I249999J0D01*
G01*
X95393751Y-112012500D01*
G75*
G02*
X95643750Y-112262499I0J-249999D01*
G01*
X95643750Y-113162501D01*
G75*
G02*
X95393751Y-113412500I-249999J0D01*
G01*
X94868749Y-113412500D01*
G75*
G02*
X94618750Y-113162501I0J249999D01*
G01*
G37*
%TD*%
D10*
%TO.C,Y1*%
X117182000Y-120861000D03*
X117182000Y-118661000D03*
X115482000Y-118661000D03*
X115482000Y-120861000D03*
%TD*%
%TO.C,USB2*%
G36*
G01*
X149687000Y-42456000D02*
X149687000Y-41006000D01*
G75*
G02*
X149737000Y-40956000I50000J0D01*
G01*
X150337000Y-40956000D01*
G75*
G02*
X150387000Y-41006000I0J-50000D01*
G01*
X150387000Y-42456000D01*
G75*
G02*
X150337000Y-42506000I-50000J0D01*
G01*
X149737000Y-42506000D01*
G75*
G02*
X149687000Y-42456000I0J50000D01*
G01*
G37*
G36*
G01*
X143237000Y-42456000D02*
X143237000Y-41006000D01*
G75*
G02*
X143287000Y-40956000I50000J0D01*
G01*
X143887000Y-40956000D01*
G75*
G02*
X143937000Y-41006000I0J-50000D01*
G01*
X143937000Y-42456000D01*
G75*
G02*
X143887000Y-42506000I-50000J0D01*
G01*
X143287000Y-42506000D01*
G75*
G02*
X143237000Y-42456000I0J50000D01*
G01*
G37*
G36*
G01*
X148912000Y-42456000D02*
X148912000Y-41006000D01*
G75*
G02*
X148962000Y-40956000I50000J0D01*
G01*
X149562000Y-40956000D01*
G75*
G02*
X149612000Y-41006000I0J-50000D01*
G01*
X149612000Y-42456000D01*
G75*
G02*
X149562000Y-42506000I-50000J0D01*
G01*
X148962000Y-42506000D01*
G75*
G02*
X148912000Y-42456000I0J50000D01*
G01*
G37*
G36*
G01*
X144012000Y-42456000D02*
X144012000Y-41006000D01*
G75*
G02*
X144062000Y-40956000I50000J0D01*
G01*
X144662000Y-40956000D01*
G75*
G02*
X144712000Y-41006000I0J-50000D01*
G01*
X144712000Y-42456000D01*
G75*
G02*
X144662000Y-42506000I-50000J0D01*
G01*
X144062000Y-42506000D01*
G75*
G02*
X144012000Y-42456000I0J50000D01*
G01*
G37*
G36*
G01*
X144862000Y-42456000D02*
X144862000Y-41006000D01*
G75*
G02*
X144912000Y-40956000I50000J0D01*
G01*
X145212000Y-40956000D01*
G75*
G02*
X145262000Y-41006000I0J-50000D01*
G01*
X145262000Y-42456000D01*
G75*
G02*
X145212000Y-42506000I-50000J0D01*
G01*
X144912000Y-42506000D01*
G75*
G02*
X144862000Y-42456000I0J50000D01*
G01*
G37*
G36*
G01*
X148362000Y-42456000D02*
X148362000Y-41006000D01*
G75*
G02*
X148412000Y-40956000I50000J0D01*
G01*
X148712000Y-40956000D01*
G75*
G02*
X148762000Y-41006000I0J-50000D01*
G01*
X148762000Y-42456000D01*
G75*
G02*
X148712000Y-42506000I-50000J0D01*
G01*
X148412000Y-42506000D01*
G75*
G02*
X148362000Y-42456000I0J50000D01*
G01*
G37*
G36*
G01*
X145362000Y-42456000D02*
X145362000Y-41006000D01*
G75*
G02*
X145412000Y-40956000I50000J0D01*
G01*
X145712000Y-40956000D01*
G75*
G02*
X145762000Y-41006000I0J-50000D01*
G01*
X145762000Y-42456000D01*
G75*
G02*
X145712000Y-42506000I-50000J0D01*
G01*
X145412000Y-42506000D01*
G75*
G02*
X145362000Y-42456000I0J50000D01*
G01*
G37*
G36*
G01*
X147862000Y-42456000D02*
X147862000Y-41006000D01*
G75*
G02*
X147912000Y-40956000I50000J0D01*
G01*
X148212000Y-40956000D01*
G75*
G02*
X148262000Y-41006000I0J-50000D01*
G01*
X148262000Y-42456000D01*
G75*
G02*
X148212000Y-42506000I-50000J0D01*
G01*
X147912000Y-42506000D01*
G75*
G02*
X147862000Y-42456000I0J50000D01*
G01*
G37*
G36*
G01*
X145862000Y-42456000D02*
X145862000Y-41006000D01*
G75*
G02*
X145912000Y-40956000I50000J0D01*
G01*
X146212000Y-40956000D01*
G75*
G02*
X146262000Y-41006000I0J-50000D01*
G01*
X146262000Y-42456000D01*
G75*
G02*
X146212000Y-42506000I-50000J0D01*
G01*
X145912000Y-42506000D01*
G75*
G02*
X145862000Y-42456000I0J50000D01*
G01*
G37*
G36*
G01*
X147362000Y-42456000D02*
X147362000Y-41006000D01*
G75*
G02*
X147412000Y-40956000I50000J0D01*
G01*
X147712000Y-40956000D01*
G75*
G02*
X147762000Y-41006000I0J-50000D01*
G01*
X147762000Y-42456000D01*
G75*
G02*
X147712000Y-42506000I-50000J0D01*
G01*
X147412000Y-42506000D01*
G75*
G02*
X147362000Y-42456000I0J50000D01*
G01*
G37*
G36*
G01*
X146862000Y-42456000D02*
X146862000Y-41006000D01*
G75*
G02*
X146912000Y-40956000I50000J0D01*
G01*
X147212000Y-40956000D01*
G75*
G02*
X147262000Y-41006000I0J-50000D01*
G01*
X147262000Y-42456000D01*
G75*
G02*
X147212000Y-42506000I-50000J0D01*
G01*
X146912000Y-42506000D01*
G75*
G02*
X146862000Y-42456000I0J50000D01*
G01*
G37*
G36*
G01*
X146362000Y-42456000D02*
X146362000Y-41006000D01*
G75*
G02*
X146412000Y-40956000I50000J0D01*
G01*
X146712000Y-40956000D01*
G75*
G02*
X146762000Y-41006000I0J-50000D01*
G01*
X146762000Y-42456000D01*
G75*
G02*
X146712000Y-42506000I-50000J0D01*
G01*
X146412000Y-42506000D01*
G75*
G02*
X146362000Y-42456000I0J50000D01*
G01*
G37*
%TD*%
%TO.C,USB1*%
G36*
G01*
X54437000Y-42456000D02*
X54437000Y-41006000D01*
G75*
G02*
X54487000Y-40956000I50000J0D01*
G01*
X55087000Y-40956000D01*
G75*
G02*
X55137000Y-41006000I0J-50000D01*
G01*
X55137000Y-42456000D01*
G75*
G02*
X55087000Y-42506000I-50000J0D01*
G01*
X54487000Y-42506000D01*
G75*
G02*
X54437000Y-42456000I0J50000D01*
G01*
G37*
G36*
G01*
X47987000Y-42456000D02*
X47987000Y-41006000D01*
G75*
G02*
X48037000Y-40956000I50000J0D01*
G01*
X48637000Y-40956000D01*
G75*
G02*
X48687000Y-41006000I0J-50000D01*
G01*
X48687000Y-42456000D01*
G75*
G02*
X48637000Y-42506000I-50000J0D01*
G01*
X48037000Y-42506000D01*
G75*
G02*
X47987000Y-42456000I0J50000D01*
G01*
G37*
G36*
G01*
X53662000Y-42456000D02*
X53662000Y-41006000D01*
G75*
G02*
X53712000Y-40956000I50000J0D01*
G01*
X54312000Y-40956000D01*
G75*
G02*
X54362000Y-41006000I0J-50000D01*
G01*
X54362000Y-42456000D01*
G75*
G02*
X54312000Y-42506000I-50000J0D01*
G01*
X53712000Y-42506000D01*
G75*
G02*
X53662000Y-42456000I0J50000D01*
G01*
G37*
G36*
G01*
X48762000Y-42456000D02*
X48762000Y-41006000D01*
G75*
G02*
X48812000Y-40956000I50000J0D01*
G01*
X49412000Y-40956000D01*
G75*
G02*
X49462000Y-41006000I0J-50000D01*
G01*
X49462000Y-42456000D01*
G75*
G02*
X49412000Y-42506000I-50000J0D01*
G01*
X48812000Y-42506000D01*
G75*
G02*
X48762000Y-42456000I0J50000D01*
G01*
G37*
G36*
G01*
X49612000Y-42456000D02*
X49612000Y-41006000D01*
G75*
G02*
X49662000Y-40956000I50000J0D01*
G01*
X49962000Y-40956000D01*
G75*
G02*
X50012000Y-41006000I0J-50000D01*
G01*
X50012000Y-42456000D01*
G75*
G02*
X49962000Y-42506000I-50000J0D01*
G01*
X49662000Y-42506000D01*
G75*
G02*
X49612000Y-42456000I0J50000D01*
G01*
G37*
G36*
G01*
X53112000Y-42456000D02*
X53112000Y-41006000D01*
G75*
G02*
X53162000Y-40956000I50000J0D01*
G01*
X53462000Y-40956000D01*
G75*
G02*
X53512000Y-41006000I0J-50000D01*
G01*
X53512000Y-42456000D01*
G75*
G02*
X53462000Y-42506000I-50000J0D01*
G01*
X53162000Y-42506000D01*
G75*
G02*
X53112000Y-42456000I0J50000D01*
G01*
G37*
G36*
G01*
X50112000Y-42456000D02*
X50112000Y-41006000D01*
G75*
G02*
X50162000Y-40956000I50000J0D01*
G01*
X50462000Y-40956000D01*
G75*
G02*
X50512000Y-41006000I0J-50000D01*
G01*
X50512000Y-42456000D01*
G75*
G02*
X50462000Y-42506000I-50000J0D01*
G01*
X50162000Y-42506000D01*
G75*
G02*
X50112000Y-42456000I0J50000D01*
G01*
G37*
G36*
G01*
X52612000Y-42456000D02*
X52612000Y-41006000D01*
G75*
G02*
X52662000Y-40956000I50000J0D01*
G01*
X52962000Y-40956000D01*
G75*
G02*
X53012000Y-41006000I0J-50000D01*
G01*
X53012000Y-42456000D01*
G75*
G02*
X52962000Y-42506000I-50000J0D01*
G01*
X52662000Y-42506000D01*
G75*
G02*
X52612000Y-42456000I0J50000D01*
G01*
G37*
G36*
G01*
X50612000Y-42456000D02*
X50612000Y-41006000D01*
G75*
G02*
X50662000Y-40956000I50000J0D01*
G01*
X50962000Y-40956000D01*
G75*
G02*
X51012000Y-41006000I0J-50000D01*
G01*
X51012000Y-42456000D01*
G75*
G02*
X50962000Y-42506000I-50000J0D01*
G01*
X50662000Y-42506000D01*
G75*
G02*
X50612000Y-42456000I0J50000D01*
G01*
G37*
G36*
G01*
X52112000Y-42456000D02*
X52112000Y-41006000D01*
G75*
G02*
X52162000Y-40956000I50000J0D01*
G01*
X52462000Y-40956000D01*
G75*
G02*
X52512000Y-41006000I0J-50000D01*
G01*
X52512000Y-42456000D01*
G75*
G02*
X52462000Y-42506000I-50000J0D01*
G01*
X52162000Y-42506000D01*
G75*
G02*
X52112000Y-42456000I0J50000D01*
G01*
G37*
G36*
G01*
X51612000Y-42456000D02*
X51612000Y-41006000D01*
G75*
G02*
X51662000Y-40956000I50000J0D01*
G01*
X51962000Y-40956000D01*
G75*
G02*
X52012000Y-41006000I0J-50000D01*
G01*
X52012000Y-42456000D01*
G75*
G02*
X51962000Y-42506000I-50000J0D01*
G01*
X51662000Y-42506000D01*
G75*
G02*
X51612000Y-42456000I0J50000D01*
G01*
G37*
G36*
G01*
X51112000Y-42456000D02*
X51112000Y-41006000D01*
G75*
G02*
X51162000Y-40956000I50000J0D01*
G01*
X51462000Y-40956000D01*
G75*
G02*
X51512000Y-41006000I0J-50000D01*
G01*
X51512000Y-42456000D01*
G75*
G02*
X51462000Y-42506000I-50000J0D01*
G01*
X51162000Y-42506000D01*
G75*
G02*
X51112000Y-42456000I0J50000D01*
G01*
G37*
%TD*%
D11*
%TO.C,U1*%
X99710000Y-116142000D03*
X99710000Y-116942000D03*
X99710000Y-117742000D03*
X99710000Y-118542000D03*
X99710000Y-119342000D03*
X99710000Y-120142000D03*
X99710000Y-120942000D03*
X99710000Y-121742000D03*
X99710000Y-122542000D03*
X99710000Y-123342000D03*
X99710000Y-124142000D03*
D12*
X101410000Y-125842000D03*
X102210000Y-125842000D03*
X103010000Y-125842000D03*
X103810000Y-125842000D03*
X104610000Y-125842000D03*
X105410000Y-125842000D03*
X106210000Y-125842000D03*
X107010000Y-125842000D03*
X107810000Y-125842000D03*
X108610000Y-125842000D03*
X109410000Y-125842000D03*
D11*
X111110000Y-124142000D03*
X111110000Y-123342000D03*
X111110000Y-122542000D03*
X111110000Y-121742000D03*
X111110000Y-120942000D03*
X111110000Y-120142000D03*
X111110000Y-119342000D03*
X111110000Y-118542000D03*
X111110000Y-117742000D03*
X111110000Y-116942000D03*
X111110000Y-116142000D03*
D12*
X109410000Y-114442000D03*
X108610000Y-114442000D03*
X107810000Y-114442000D03*
X107010000Y-114442000D03*
X106210000Y-114442000D03*
X105410000Y-114442000D03*
X104610000Y-114442000D03*
X103810000Y-114442000D03*
X103010000Y-114442000D03*
X102210000Y-114442000D03*
X101410000Y-114442000D03*
%TD*%
D13*
%TO.C,SW1*%
X145467000Y-120722000D03*
X139267000Y-117022000D03*
X145467000Y-117022000D03*
X139267000Y-120722000D03*
%TD*%
%TO.C,R8*%
G36*
G01*
X101985500Y-128454999D02*
X101985500Y-129355001D01*
G75*
G02*
X101735501Y-129605000I-249999J0D01*
G01*
X101210499Y-129605000D01*
G75*
G02*
X100960500Y-129355001I0J249999D01*
G01*
X100960500Y-128454999D01*
G75*
G02*
X101210499Y-128205000I249999J0D01*
G01*
X101735501Y-128205000D01*
G75*
G02*
X101985500Y-128454999I0J-249999D01*
G01*
G37*
G36*
G01*
X103810500Y-128454999D02*
X103810500Y-129355001D01*
G75*
G02*
X103560501Y-129605000I-249999J0D01*
G01*
X103035499Y-129605000D01*
G75*
G02*
X102785500Y-129355001I0J249999D01*
G01*
X102785500Y-128454999D01*
G75*
G02*
X103035499Y-128205000I249999J0D01*
G01*
X103560501Y-128205000D01*
G75*
G02*
X103810500Y-128454999I0J-249999D01*
G01*
G37*
%TD*%
%TO.C,R7*%
G36*
G01*
X131502999Y-116478000D02*
X132403001Y-116478000D01*
G75*
G02*
X132653000Y-116727999I0J-249999D01*
G01*
X132653000Y-117253001D01*
G75*
G02*
X132403001Y-117503000I-249999J0D01*
G01*
X131502999Y-117503000D01*
G75*
G02*
X131253000Y-117253001I0J249999D01*
G01*
X131253000Y-116727999D01*
G75*
G02*
X131502999Y-116478000I249999J0D01*
G01*
G37*
G36*
G01*
X131502999Y-114653000D02*
X132403001Y-114653000D01*
G75*
G02*
X132653000Y-114902999I0J-249999D01*
G01*
X132653000Y-115428001D01*
G75*
G02*
X132403001Y-115678000I-249999J0D01*
G01*
X131502999Y-115678000D01*
G75*
G02*
X131253000Y-115428001I0J249999D01*
G01*
X131253000Y-114902999D01*
G75*
G02*
X131502999Y-114653000I249999J0D01*
G01*
G37*
%TD*%
%TO.C,R6*%
G36*
G01*
X61664001Y-83928000D02*
X60763999Y-83928000D01*
G75*
G02*
X60514000Y-83678001I0J249999D01*
G01*
X60514000Y-83152999D01*
G75*
G02*
X60763999Y-82903000I249999J0D01*
G01*
X61664001Y-82903000D01*
G75*
G02*
X61914000Y-83152999I0J-249999D01*
G01*
X61914000Y-83678001D01*
G75*
G02*
X61664001Y-83928000I-249999J0D01*
G01*
G37*
G36*
G01*
X61664001Y-85753000D02*
X60763999Y-85753000D01*
G75*
G02*
X60514000Y-85503001I0J249999D01*
G01*
X60514000Y-84977999D01*
G75*
G02*
X60763999Y-84728000I249999J0D01*
G01*
X61664001Y-84728000D01*
G75*
G02*
X61914000Y-84977999I0J-249999D01*
G01*
X61914000Y-85503001D01*
G75*
G02*
X61664001Y-85753000I-249999J0D01*
G01*
G37*
%TD*%
%TO.C,R5*%
G36*
G01*
X59632001Y-83928000D02*
X58731999Y-83928000D01*
G75*
G02*
X58482000Y-83678001I0J249999D01*
G01*
X58482000Y-83152999D01*
G75*
G02*
X58731999Y-82903000I249999J0D01*
G01*
X59632001Y-82903000D01*
G75*
G02*
X59882000Y-83152999I0J-249999D01*
G01*
X59882000Y-83678001D01*
G75*
G02*
X59632001Y-83928000I-249999J0D01*
G01*
G37*
G36*
G01*
X59632001Y-85753000D02*
X58731999Y-85753000D01*
G75*
G02*
X58482000Y-85503001I0J249999D01*
G01*
X58482000Y-84977999D01*
G75*
G02*
X58731999Y-84728000I249999J0D01*
G01*
X59632001Y-84728000D01*
G75*
G02*
X59882000Y-84977999I0J-249999D01*
G01*
X59882000Y-85503001D01*
G75*
G02*
X59632001Y-85753000I-249999J0D01*
G01*
G37*
%TD*%
%TO.C,R4*%
G36*
G01*
X149013500Y-47821001D02*
X149013500Y-46920999D01*
G75*
G02*
X149263499Y-46671000I249999J0D01*
G01*
X149788501Y-46671000D01*
G75*
G02*
X150038500Y-46920999I0J-249999D01*
G01*
X150038500Y-47821001D01*
G75*
G02*
X149788501Y-48071000I-249999J0D01*
G01*
X149263499Y-48071000D01*
G75*
G02*
X149013500Y-47821001I0J249999D01*
G01*
G37*
G36*
G01*
X147188500Y-47821001D02*
X147188500Y-46920999D01*
G75*
G02*
X147438499Y-46671000I249999J0D01*
G01*
X147963501Y-46671000D01*
G75*
G02*
X148213500Y-46920999I0J-249999D01*
G01*
X148213500Y-47821001D01*
G75*
G02*
X147963501Y-48071000I-249999J0D01*
G01*
X147438499Y-48071000D01*
G75*
G02*
X147188500Y-47821001I0J249999D01*
G01*
G37*
%TD*%
%TO.C,R3*%
G36*
G01*
X144737500Y-46920999D02*
X144737500Y-47821001D01*
G75*
G02*
X144487501Y-48071000I-249999J0D01*
G01*
X143962499Y-48071000D01*
G75*
G02*
X143712500Y-47821001I0J249999D01*
G01*
X143712500Y-46920999D01*
G75*
G02*
X143962499Y-46671000I249999J0D01*
G01*
X144487501Y-46671000D01*
G75*
G02*
X144737500Y-46920999I0J-249999D01*
G01*
G37*
G36*
G01*
X146562500Y-46920999D02*
X146562500Y-47821001D01*
G75*
G02*
X146312501Y-48071000I-249999J0D01*
G01*
X145787499Y-48071000D01*
G75*
G02*
X145537500Y-47821001I0J249999D01*
G01*
X145537500Y-46920999D01*
G75*
G02*
X145787499Y-46671000I249999J0D01*
G01*
X146312501Y-46671000D01*
G75*
G02*
X146562500Y-46920999I0J-249999D01*
G01*
G37*
%TD*%
%TO.C,R2*%
G36*
G01*
X55187001Y-47733000D02*
X54286999Y-47733000D01*
G75*
G02*
X54037000Y-47483001I0J249999D01*
G01*
X54037000Y-46957999D01*
G75*
G02*
X54286999Y-46708000I249999J0D01*
G01*
X55187001Y-46708000D01*
G75*
G02*
X55437000Y-46957999I0J-249999D01*
G01*
X55437000Y-47483001D01*
G75*
G02*
X55187001Y-47733000I-249999J0D01*
G01*
G37*
G36*
G01*
X55187001Y-49558000D02*
X54286999Y-49558000D01*
G75*
G02*
X54037000Y-49308001I0J249999D01*
G01*
X54037000Y-48782999D01*
G75*
G02*
X54286999Y-48533000I249999J0D01*
G01*
X55187001Y-48533000D01*
G75*
G02*
X55437000Y-48782999I0J-249999D01*
G01*
X55437000Y-49308001D01*
G75*
G02*
X55187001Y-49558000I-249999J0D01*
G01*
G37*
%TD*%
%TO.C,R1*%
G36*
G01*
X49726001Y-47756500D02*
X48825999Y-47756500D01*
G75*
G02*
X48576000Y-47506501I0J249999D01*
G01*
X48576000Y-46981499D01*
G75*
G02*
X48825999Y-46731500I249999J0D01*
G01*
X49726001Y-46731500D01*
G75*
G02*
X49976000Y-46981499I0J-249999D01*
G01*
X49976000Y-47506501D01*
G75*
G02*
X49726001Y-47756500I-249999J0D01*
G01*
G37*
G36*
G01*
X49726001Y-49581500D02*
X48825999Y-49581500D01*
G75*
G02*
X48576000Y-49331501I0J249999D01*
G01*
X48576000Y-48806499D01*
G75*
G02*
X48825999Y-48556500I249999J0D01*
G01*
X49726001Y-48556500D01*
G75*
G02*
X49976000Y-48806499I0J-249999D01*
G01*
X49976000Y-49331501D01*
G75*
G02*
X49726001Y-49581500I-249999J0D01*
G01*
G37*
%TD*%
D14*
%TO.C,D30*%
X158877000Y-48261000D03*
X158877000Y-51561000D03*
%TD*%
%TO.C,D29*%
X163703000Y-105411000D03*
X163703000Y-108711000D03*
%TD*%
%TO.C,D28*%
X154178000Y-86361000D03*
X154178000Y-89661000D03*
%TD*%
%TO.C,D27*%
X149352000Y-67311000D03*
X149352000Y-70611000D03*
%TD*%
%TO.C,D26*%
X139827000Y-48261000D03*
X139827000Y-51561000D03*
%TD*%
%TO.C,D25*%
X161290000Y-124461000D03*
X161290000Y-127761000D03*
%TD*%
%TO.C,D24*%
X144653000Y-105411000D03*
X144653000Y-108711000D03*
%TD*%
%TO.C,D23*%
X135255000Y-86361000D03*
X135255000Y-89661000D03*
%TD*%
%TO.C,D22*%
X130302000Y-67311000D03*
X130302000Y-70611000D03*
%TD*%
%TO.C,D21*%
X120777000Y-48261000D03*
X120777000Y-51561000D03*
%TD*%
%TO.C,D20*%
X128016000Y-124461000D03*
X128016000Y-127761000D03*
%TD*%
%TO.C,D19*%
X125603000Y-105411000D03*
X125603000Y-108711000D03*
%TD*%
%TO.C,D18*%
X116078000Y-86361000D03*
X116078000Y-89661000D03*
%TD*%
%TO.C,D17*%
X111252000Y-67184000D03*
X111252000Y-70484000D03*
%TD*%
%TO.C,D16*%
X101727000Y-48261000D03*
X101727000Y-51561000D03*
%TD*%
%TO.C,D15*%
X94615000Y-124461000D03*
X94615000Y-127761000D03*
%TD*%
%TO.C,D14*%
X106426000Y-105411000D03*
X106426000Y-108711000D03*
%TD*%
%TO.C,D13*%
X97028000Y-86361000D03*
X97028000Y-89661000D03*
%TD*%
%TO.C,D12*%
X92329000Y-67184000D03*
X92329000Y-70484000D03*
%TD*%
%TO.C,D11*%
X82804000Y-48261000D03*
X82804000Y-51561000D03*
%TD*%
%TO.C,D10*%
X70866000Y-124461000D03*
X70866000Y-127761000D03*
%TD*%
%TO.C,D9*%
X87503000Y-105411000D03*
X87503000Y-108711000D03*
%TD*%
%TO.C,D8*%
X77978000Y-86361000D03*
X77978000Y-89661000D03*
%TD*%
%TO.C,D7*%
X73279000Y-67311000D03*
X73279000Y-70611000D03*
%TD*%
%TO.C,D6*%
X63754000Y-48261000D03*
X63754000Y-51561000D03*
%TD*%
%TO.C,D5*%
X47117000Y-124461000D03*
X47117000Y-127761000D03*
%TD*%
%TO.C,D4*%
X56642000Y-105411000D03*
X56642000Y-108711000D03*
%TD*%
%TO.C,D3*%
X51562000Y-86361000D03*
X51562000Y-89661000D03*
%TD*%
%TO.C,D2*%
X49276000Y-67311000D03*
X49276000Y-70611000D03*
%TD*%
%TO.C,D1*%
X44450000Y-48261000D03*
X44450000Y-51561000D03*
%TD*%
%TO.C,C7*%
G36*
G01*
X104579000Y-111031000D02*
X104579000Y-111981000D01*
G75*
G02*
X104329000Y-112231000I-250000J0D01*
G01*
X103829000Y-112231000D01*
G75*
G02*
X103579000Y-111981000I0J250000D01*
G01*
X103579000Y-111031000D01*
G75*
G02*
X103829000Y-110781000I250000J0D01*
G01*
X104329000Y-110781000D01*
G75*
G02*
X104579000Y-111031000I0J-250000D01*
G01*
G37*
G36*
G01*
X106479000Y-111031000D02*
X106479000Y-111981000D01*
G75*
G02*
X106229000Y-112231000I-250000J0D01*
G01*
X105729000Y-112231000D01*
G75*
G02*
X105479000Y-111981000I0J250000D01*
G01*
X105479000Y-111031000D01*
G75*
G02*
X105729000Y-110781000I250000J0D01*
G01*
X106229000Y-110781000D01*
G75*
G02*
X106479000Y-111031000I0J-250000D01*
G01*
G37*
%TD*%
%TO.C,C6*%
G36*
G01*
X115882000Y-116111000D02*
X115882000Y-117061000D01*
G75*
G02*
X115632000Y-117311000I-250000J0D01*
G01*
X115132000Y-117311000D01*
G75*
G02*
X114882000Y-117061000I0J250000D01*
G01*
X114882000Y-116111000D01*
G75*
G02*
X115132000Y-115861000I250000J0D01*
G01*
X115632000Y-115861000D01*
G75*
G02*
X115882000Y-116111000I0J-250000D01*
G01*
G37*
G36*
G01*
X117782000Y-116111000D02*
X117782000Y-117061000D01*
G75*
G02*
X117532000Y-117311000I-250000J0D01*
G01*
X117032000Y-117311000D01*
G75*
G02*
X116782000Y-117061000I0J250000D01*
G01*
X116782000Y-116111000D01*
G75*
G02*
X117032000Y-115861000I250000J0D01*
G01*
X117532000Y-115861000D01*
G75*
G02*
X117782000Y-116111000I0J-250000D01*
G01*
G37*
%TD*%
%TO.C,C5*%
G36*
G01*
X116782000Y-123411000D02*
X116782000Y-122461000D01*
G75*
G02*
X117032000Y-122211000I250000J0D01*
G01*
X117532000Y-122211000D01*
G75*
G02*
X117782000Y-122461000I0J-250000D01*
G01*
X117782000Y-123411000D01*
G75*
G02*
X117532000Y-123661000I-250000J0D01*
G01*
X117032000Y-123661000D01*
G75*
G02*
X116782000Y-123411000I0J250000D01*
G01*
G37*
G36*
G01*
X114882000Y-123411000D02*
X114882000Y-122461000D01*
G75*
G02*
X115132000Y-122211000I250000J0D01*
G01*
X115632000Y-122211000D01*
G75*
G02*
X115882000Y-122461000I0J-250000D01*
G01*
X115882000Y-123411000D01*
G75*
G02*
X115632000Y-123661000I-250000J0D01*
G01*
X115132000Y-123661000D01*
G75*
G02*
X114882000Y-123411000I0J250000D01*
G01*
G37*
%TD*%
%TO.C,C4*%
G36*
G01*
X117478000Y-113886000D02*
X117478000Y-112936000D01*
G75*
G02*
X117728000Y-112686000I250000J0D01*
G01*
X118228000Y-112686000D01*
G75*
G02*
X118478000Y-112936000I0J-250000D01*
G01*
X118478000Y-113886000D01*
G75*
G02*
X118228000Y-114136000I-250000J0D01*
G01*
X117728000Y-114136000D01*
G75*
G02*
X117478000Y-113886000I0J250000D01*
G01*
G37*
G36*
G01*
X115578000Y-113886000D02*
X115578000Y-112936000D01*
G75*
G02*
X115828000Y-112686000I250000J0D01*
G01*
X116328000Y-112686000D01*
G75*
G02*
X116578000Y-112936000I0J-250000D01*
G01*
X116578000Y-113886000D01*
G75*
G02*
X116328000Y-114136000I-250000J0D01*
G01*
X115828000Y-114136000D01*
G75*
G02*
X115578000Y-113886000I0J250000D01*
G01*
G37*
%TD*%
%TO.C,C3*%
G36*
G01*
X97630000Y-124962500D02*
X96680000Y-124962500D01*
G75*
G02*
X96430000Y-124712500I0J250000D01*
G01*
X96430000Y-124212500D01*
G75*
G02*
X96680000Y-123962500I250000J0D01*
G01*
X97630000Y-123962500D01*
G75*
G02*
X97880000Y-124212500I0J-250000D01*
G01*
X97880000Y-124712500D01*
G75*
G02*
X97630000Y-124962500I-250000J0D01*
G01*
G37*
G36*
G01*
X97630000Y-126862500D02*
X96680000Y-126862500D01*
G75*
G02*
X96430000Y-126612500I0J250000D01*
G01*
X96430000Y-126112500D01*
G75*
G02*
X96680000Y-125862500I250000J0D01*
G01*
X97630000Y-125862500D01*
G75*
G02*
X97880000Y-126112500I0J-250000D01*
G01*
X97880000Y-126612500D01*
G75*
G02*
X97630000Y-126862500I-250000J0D01*
G01*
G37*
%TD*%
%TO.C,C2*%
G36*
G01*
X96934000Y-116020000D02*
X97884000Y-116020000D01*
G75*
G02*
X98134000Y-116270000I0J-250000D01*
G01*
X98134000Y-116770000D01*
G75*
G02*
X97884000Y-117020000I-250000J0D01*
G01*
X96934000Y-117020000D01*
G75*
G02*
X96684000Y-116770000I0J250000D01*
G01*
X96684000Y-116270000D01*
G75*
G02*
X96934000Y-116020000I250000J0D01*
G01*
G37*
G36*
G01*
X96934000Y-114120000D02*
X97884000Y-114120000D01*
G75*
G02*
X98134000Y-114370000I0J-250000D01*
G01*
X98134000Y-114870000D01*
G75*
G02*
X97884000Y-115120000I-250000J0D01*
G01*
X96934000Y-115120000D01*
G75*
G02*
X96684000Y-114870000I0J250000D01*
G01*
X96684000Y-114370000D01*
G75*
G02*
X96934000Y-114120000I250000J0D01*
G01*
G37*
%TD*%
%TO.C,C1*%
G36*
G01*
X109289000Y-129380000D02*
X109289000Y-128430000D01*
G75*
G02*
X109539000Y-128180000I250000J0D01*
G01*
X110039000Y-128180000D01*
G75*
G02*
X110289000Y-128430000I0J-250000D01*
G01*
X110289000Y-129380000D01*
G75*
G02*
X110039000Y-129630000I-250000J0D01*
G01*
X109539000Y-129630000D01*
G75*
G02*
X109289000Y-129380000I0J250000D01*
G01*
G37*
G36*
G01*
X107389000Y-129380000D02*
X107389000Y-128430000D01*
G75*
G02*
X107639000Y-128180000I250000J0D01*
G01*
X108139000Y-128180000D01*
G75*
G02*
X108389000Y-128430000I0J-250000D01*
G01*
X108389000Y-129380000D01*
G75*
G02*
X108139000Y-129630000I-250000J0D01*
G01*
X107639000Y-129630000D01*
G75*
G02*
X107389000Y-129380000I0J250000D01*
G01*
G37*
%TD*%
M02*
